Director-bold.ufo
<glyph name="exclam" format="2">
	<advance width="700"/>
	<unicode hex="0021"/>
	<outline>
		<contour>
			<point x="387" y="226" type="curve" smooth="yes"/>
			<point x="429" y="651" type="line" smooth="yes"/>
			<point x="434" y="699"/>
			<point x="398" y="732"/>
			<point x="350" y="732" type="curve" smooth="yes"/>
			<point x="302" y="732"/>
			<point x="266" y="699"/>
			<point x="271" y="651" type="curve" smooth="yes"/>
			<point x="317" y="225" type="line" smooth="yes"/>
			<point x="319" y="210"/>
			<point x="328" y="193"/>
			<point x="352" y="193" type="curve" smooth="yes"/>
			<point x="376" y="193"/>
			<point x="385" y="210"/>
		</contour>
		<contour>
			<point x="352" y="0" type="curve" smooth="yes"/>
			<point x="390" y="0"/>
			<point x="420" y="27"/>
			<point x="420" y="65" type="curve" smooth="yes"/>
			<point x="420" y="102"/>
			<point x="390" y="130"/>
			<point x="352" y="130" type="curve" smooth="yes"/>
			<point x="315" y="130"/>
			<point x="284" y="102"/>
			<point x="284" y="65" type="curve" smooth="yes"/>
			<point x="284" y="27"/>
			<point x="315" y="0"/>
		</contour>
	</outline>
</glyph>
<glyph name="quotedbl" format="2">
	<advance width="700"/>
	<unicode hex="0022"/>
	<outline>
		<contour>
			<point x="189" y="667" type="curve" smooth="yes"/>
			<point x="220" y="377" type="line" smooth="yes"/>
			<point x="222" y="358"/>
			<point x="231" y="346"/>
			<point x="257" y="346" type="curve" smooth="yes"/>
			<point x="283" y="346"/>
			<point x="292" y="358"/>
			<point x="294" y="377" type="curve" smooth="yes"/>
			<point x="324" y="667" type="line" smooth="yes"/>
			<point x="329" y="717"/>
			<point x="300" y="740"/>
			<point x="257" y="740" type="curve" smooth="yes"/>
			<point x="213" y="740"/>
			<point x="184" y="713"/>
		</contour>
		<contour>
			<point x="389" y="667" type="curve" smooth="yes"/>
			<point x="420" y="377" type="line" smooth="yes"/>
			<point x="422" y="358"/>
			<point x="431" y="346"/>
			<point x="457" y="346" type="curve" smooth="yes"/>
			<point x="483" y="346"/>
			<point x="492" y="358"/>
			<point x="494" y="377" type="curve" smooth="yes"/>
			<point x="524" y="667" type="line" smooth="yes"/>
			<point x="529" y="717"/>
			<point x="500" y="740"/>
			<point x="457" y="740" type="curve" smooth="yes"/>
			<point x="413" y="740"/>
			<point x="384" y="713"/>
		</contour>
	</outline>
</glyph>
<glyph name="numbersign" format="2">
	<advance width="700"/>
	<unicode hex="0023"/>
	<outline>
		<contour>
			<point x="300" y="506" type="line"/>
			<point x="328" y="706" type="line" smooth="yes"/>
			<point x="331" y="725"/>
			<point x="320" y="741"/>
			<point x="295" y="742" type="curve" smooth="yes"/>
			<point x="269" y="743"/>
			<point x="261" y="729"/>
			<point x="258" y="710" type="curve" smooth="yes"/>
			<point x="229" y="506" type="line"/>
			<point x="139" y="506" type="line" smooth="yes"/>
			<point x="120" y="506"/>
			<point x="105" y="498"/>
			<point x="105" y="471" type="curve" smooth="yes"/>
			<point x="105" y="444"/>
			<point x="120" y="436"/>
			<point x="139" y="436" type="curve" smooth="yes"/>
			<point x="220" y="436" type="line"/>
			<point x="200" y="285" type="line"/>
			<point x="110" y="285" type="line" smooth="yes"/>
			<point x="91" y="285"/>
			<point x="75" y="275"/>
			<point x="75" y="250" type="curve" smooth="yes"/>
			<point x="75" y="225"/>
			<point x="91" y="215"/>
			<point x="110" y="215" type="curve" smooth="yes"/>
			<point x="192" y="215" type="line"/>
			<point x="164" y="24" type="line" smooth="yes"/>
			<point x="161" y="5"/>
			<point x="172" y="-11"/>
			<point x="197" y="-12" type="curve" smooth="yes"/>
			<point x="223" y="-13"/>
			<point x="232" y="1"/>
			<point x="234" y="20" type="curve"/>
			<point x="263" y="215" type="line"/>
			<point x="411" y="215" type="line"/>
			<point x="384" y="24" type="line" smooth="yes"/>
			<point x="381" y="5"/>
			<point x="392" y="-12"/>
			<point x="417" y="-12" type="curve" smooth="yes"/>
			<point x="442" y="-12"/>
			<point x="451" y="1"/>
			<point x="454" y="20" type="curve" smooth="yes"/>
			<point x="482" y="215" type="line"/>
			<point x="583" y="215" type="line" smooth="yes"/>
			<point x="602" y="215"/>
			<point x="617" y="223"/>
			<point x="617" y="250" type="curve" smooth="yes"/>
			<point x="617" y="277"/>
			<point x="602" y="285"/>
			<point x="583" y="285" type="curve" smooth="yes"/>
			<point x="492" y="285" type="line"/>
			<point x="513" y="436" type="line"/>
			<point x="612" y="436" type="line" smooth="yes"/>
			<point x="631" y="436"/>
			<point x="646" y="444"/>
			<point x="646" y="471" type="curve" smooth="yes"/>
			<point x="646" y="498"/>
			<point x="631" y="506"/>
			<point x="612" y="506" type="curve" smooth="yes"/>
			<point x="522" y="506" type="line"/>
			<point x="550" y="706" type="line" smooth="yes"/>
			<point x="553" y="725"/>
			<point x="542" y="741"/>
			<point x="517" y="742" type="curve" smooth="yes"/>
			<point x="491" y="743"/>
			<point x="483" y="729"/>
			<point x="480" y="710" type="curve" smooth="yes"/>
			<point x="451" y="506" type="line"/>
		</contour>
		<contour>
			<point x="271" y="285" type="line"/>
			<point x="291" y="436" type="line"/>
			<point x="442" y="436" type="line"/>
			<point x="422" y="285" type="line"/>
		</contour>
	</outline>
</glyph>
<glyph name="percent" format="2">
	<advance width="700"/>
	<unicode hex="0025"/>
	<outline>
		<contour>
			<point x="74" y="555" type="curve" smooth="yes"/>
			<point x="39" y="458"/>
			<point x="71" y="342"/>
			<point x="164" y="342" type="curve" smooth="yes"/>
			<point x="227" y="342"/>
			<point x="288" y="398"/>
			<point x="316" y="474" type="curve" smooth="yes"/>
			<point x="343" y="547"/>
			<point x="331" y="619"/>
			<point x="293" y="656" type="curve"/>
			<point x="334" y="671"/>
			<point x="387" y="700"/>
			<point x="434" y="734" type="curve" smooth="yes"/>
			<point x="470" y="760"/>
			<point x="503" y="788"/>
			<point x="526" y="814" type="curve"/>
			<point x="100" y="-90" type="line" smooth="yes"/>
			<point x="91" y="-110"/>
			<point x="83" y="-143"/>
			<point x="116" y="-149" type="curve"/>
			<point x="137" y="-156"/>
			<point x="154" y="-139"/>
			<point x="167" y="-111" type="curve" smooth="yes"/>
			<point x="598" y="808" type="line" smooth="yes"/>
			<point x="610" y="834"/>
			<point x="604" y="860"/>
			<point x="575" y="872" type="curve"/>
			<point x="530" y="895"/>
			<point x="485" y="842"/>
			<point x="429" y="802" type="curve" smooth="yes"/>
			<point x="302" y="711"/>
			<point x="219" y="688"/>
			<point x="179" y="672" type="curve" smooth="yes"/>
			<point x="136" y="656"/>
			<point x="95" y="613"/>
		</contour>
		<contour>
			<point x="136" y="538" type="curve" smooth="yes"/>
			<point x="155" y="590"/>
			<point x="200" y="645"/>
			<point x="236" y="624" type="curve"/>
			<point x="269" y="607"/>
			<point x="277" y="558"/>
			<point x="253" y="494" type="curve" smooth="yes"/>
			<point x="234" y="444"/>
			<point x="201" y="404"/>
			<point x="170" y="404" type="curve" smooth="yes"/>
			<point x="121" y="404"/>
			<point x="113" y="475"/>
		</contour>
		<contour>
			<point x="363" y="208" type="curve" smooth="yes"/>
			<point x="330" y="119"/>
			<point x="354" y="17"/>
			<point x="427" y="-2" type="curve"/>
			<point x="505" y="-19"/>
			<point x="576" y="45"/>
			<point x="606" y="127" type="curve" smooth="yes"/>
			<point x="638" y="215"/>
			<point x="615" y="317"/>
			<point x="543" y="336" type="curve"/>
			<point x="461" y="354"/>
			<point x="393" y="289"/>
		</contour>
		<contour>
			<point x="427" y="188" type="curve" smooth="yes"/>
			<point x="446" y="239"/>
			<point x="488" y="293"/>
			<point x="527" y="273" type="curve"/>
			<point x="561" y="254"/>
			<point x="567" y="206"/>
			<point x="544" y="144" type="curve" smooth="yes"/>
			<point x="525" y="92"/>
			<point x="491" y="54"/>
			<point x="461" y="54" type="curve" smooth="yes"/>
			<point x="411" y="54"/>
			<point x="403" y="123"/>
		</contour>
	</outline>
</glyph>
<glyph name="ampersand" format="2">
	<advance width="700"/>
	<unicode hex="0026"/>
	<outline>
		<contour>
			<point x="562" y="512" type="curve" smooth="yes"/>
			<point x="477" y="512"/>
			<point x="452" y="417"/>
			<point x="412" y="303" type="curve" smooth="yes"/>
			<point x="406" y="287" type="line"/>
			<point x="331" y="419" type="line"/>
			<point x="423" y="478"/>
			<point x="466" y="531"/>
			<point x="466" y="606" type="curve" smooth="yes"/>
			<point x="466" y="665"/>
			<point x="433" y="735"/>
			<point x="321" y="735" type="curve" smooth="yes"/>
			<point x="224" y="735"/>
			<point x="152" y="667"/>
			<point x="152" y="583" type="curve" smooth="yes"/>
			<point x="152" y="529"/>
			<point x="169" y="487"/>
			<point x="219" y="414" type="curve"/>
			<point x="114" y="360"/>
			<point x="24" y="281"/>
			<point x="24" y="175" type="curve" smooth="yes"/>
			<point x="24" y="63"/>
			<point x="89" y="0"/>
			<point x="202" y="0" type="curve" smooth="yes"/>
			<point x="285" y="0"/>
			<point x="344" y="56"/>
			<point x="385" y="122" type="curve"/>
			<point x="405" y="87" type="line" smooth="yes"/>
			<point x="455" y="0"/>
			<point x="507" y="0"/>
			<point x="536" y="0" type="curve" smooth="yes"/>
			<point x="603" y="0"/>
			<point x="635" y="52"/>
			<point x="655" y="101" type="curve" smooth="yes"/>
			<point x="675" y="150"/>
			<point x="678" y="172"/>
			<point x="659" y="181" type="curve"/>
			<point x="642" y="187"/>
			<point x="631" y="177"/>
			<point x="625" y="159" type="curve" smooth="yes"/>
			<point x="609" y="113"/>
			<point x="593" y="62"/>
			<point x="557" y="62" type="curve" smooth="yes"/>
			<point x="529" y="62"/>
			<point x="508" y="108"/>
			<point x="486" y="147" type="curve" smooth="yes"/>
			<point x="437" y="233" type="line"/>
			<point x="445" y="255" type="line" smooth="yes"/>
			<point x="472" y="334"/>
			<point x="509" y="459"/>
			<point x="552" y="456" type="curve"/>
			<point x="552" y="440"/>
			<point x="552" y="383"/>
			<point x="552" y="377" type="curve" smooth="yes"/>
			<point x="552" y="352"/>
			<point x="564" y="308"/>
			<point x="614" y="308" type="curve" smooth="yes"/>
			<point x="651" y="308"/>
			<point x="683" y="338"/>
			<point x="683" y="382" type="curve" smooth="yes"/>
			<point x="683" y="415"/>
			<point x="667" y="512"/>
		</contour>
		<contour>
			<point x="272" y="582" type="curve" smooth="yes"/>
			<point x="272" y="623"/>
			<point x="292" y="679"/>
			<point x="340" y="679" type="curve" smooth="yes"/>
			<point x="343" y="679"/>
			<point x="395" y="675"/>
			<point x="395" y="607" type="curve" smooth="yes"/>
			<point x="395" y="555"/>
			<point x="362" y="506"/>
			<point x="307" y="461" type="curve"/>
			<point x="294" y="493"/>
			<point x="272" y="537"/>
		</contour>
		<contour>
			<point x="143" y="196" type="curve" smooth="yes"/>
			<point x="143" y="259"/>
			<point x="189" y="328"/>
			<point x="242" y="372" type="curve"/>
			<point x="358" y="170" type="line"/>
			<point x="327" y="122"/>
			<point x="284" y="71"/>
			<point x="224" y="70" type="curve" smooth="yes"/>
			<point x="170" y="69"/>
			<point x="143" y="131"/>
		</contour>
	</outline>
</glyph>
<glyph name="quotesingle" format="2">
	<advance width="700"/>
	<unicode hex="0027"/>
	<outline>
		<contour>
			<point x="229" y="667" type="curve" smooth="yes"/>
			<point x="260" y="377" type="line" smooth="yes"/>
			<point x="262" y="358"/>
			<point x="271" y="346"/>
			<point x="297" y="346" type="curve" smooth="yes"/>
			<point x="323" y="346"/>
			<point x="332" y="358"/>
			<point x="334" y="377" type="curve" smooth="yes"/>
			<point x="364" y="667" type="line" smooth="yes"/>
			<point x="369" y="717"/>
			<point x="340" y="740"/>
			<point x="297" y="740" type="curve" smooth="yes"/>
			<point x="253" y="740"/>
			<point x="224" y="713"/>
		</contour>
	</outline>
</glyph>
<glyph name="parenleft" format="2">
	<advance width="700"/>
	<unicode hex="0028"/>
	<outline>
		<contour>
			<point x="271" y="365" type="curve" smooth="yes"/>
			<point x="272" y="525"/>
			<point x="330" y="644"/>
			<point x="398" y="740" type="curve" smooth="yes"/>
			<point x="447" y="809" type="line"/>
			<point x="466" y="831"/>
			<point x="467" y="859"/>
			<point x="445" y="867" type="curve" smooth="yes"/>
			<point x="411" y="878"/>
			<point x="390" y="855"/>
			<point x="361" y="826" type="curve" smooth="yes"/>
			<point x="257" y="724"/>
			<point x="151" y="588"/>
			<point x="151" y="365" type="curve" smooth="yes"/>
			<point x="151" y="144"/>
			<point x="260" y="3"/>
			<point x="361" y="-96" type="curve" smooth="yes"/>
			<point x="393" y="-127"/>
			<point x="413" y="-148"/>
			<point x="445" y="-137" type="curve" smooth="yes"/>
			<point x="467" y="-130"/>
			<point x="467" y="-102"/>
			<point x="447" y="-79" type="curve"/>
			<point x="398" y="-10" type="line" smooth="yes"/>
			<point x="331" y="85"/>
			<point x="270" y="205"/>
		</contour>
	</outline>
</glyph>
<glyph name="parenright" format="2">
	<advance width="700"/>
	<unicode hex="0029"/>
	<outline>
		<contour>
			<point x="428" y="365" type="curve" smooth="yes"/>
			<point x="429" y="205"/>
			<point x="368" y="85"/>
			<point x="301" y="-10" type="curve" smooth="yes"/>
			<point x="252" y="-79" type="line"/>
			<point x="232" y="-102"/>
			<point x="232" y="-130"/>
			<point x="254" y="-137" type="curve" smooth="yes"/>
			<point x="286" y="-147"/>
			<point x="306" y="-127"/>
			<point x="338" y="-96" type="curve" smooth="yes"/>
			<point x="440" y="2"/>
			<point x="548" y="144"/>
			<point x="548" y="365" type="curve" smooth="yes"/>
			<point x="548" y="588"/>
			<point x="441" y="723"/>
			<point x="338" y="826" type="curve" smooth="yes"/>
			<point x="309" y="855"/>
			<point x="288" y="878"/>
			<point x="254" y="867" type="curve" smooth="yes"/>
			<point x="232" y="860"/>
			<point x="233" y="831"/>
			<point x="252" y="809" type="curve"/>
			<point x="301" y="740" type="line" smooth="yes"/>
			<point x="369" y="644"/>
			<point x="427" y="525"/>
		</contour>
	</outline>
</glyph>
<glyph name="asterisk" format="2">
	<advance width="700"/>
	<unicode hex="002A"/>
	<outline>
		<contour>
			<point x="97" y="475" type="curve" smooth="yes"/>
			<point x="97" y="456"/>
			<point x="112" y="445"/>
			<point x="129" y="445" type="curve" smooth="yes"/>
			<point x="292" y="445" type="line"/>
			<point x="205" y="291" type="line" smooth="yes"/>
			<point x="197" y="277"/>
			<point x="200" y="254"/>
			<point x="219" y="249" type="curve" smooth="yes"/>
			<point x="234" y="245"/>
			<point x="249" y="247"/>
			<point x="259" y="266" type="curve" smooth="yes"/>
			<point x="346" y="416" type="line"/>
			<point x="432" y="266" type="line" smooth="yes"/>
			<point x="440" y="251"/>
			<point x="459" y="245"/>
			<point x="472" y="249" type="curve"/>
			<point x="492" y="254"/>
			<point x="493" y="278"/>
			<point x="486" y="291" type="curve" smooth="yes"/>
			<point x="397" y="445" type="line"/>
			<point x="553" y="445" type="line" smooth="yes"/>
			<point x="570" y="445"/>
			<point x="586" y="456"/>
			<point x="586" y="475" type="curve" smooth="yes"/>
			<point x="586" y="496"/>
			<point x="570" y="505"/>
			<point x="553" y="505" type="curve" smooth="yes"/>
			<point x="397" y="505" type="line"/>
			<point x="473" y="637" type="line" smooth="yes"/>
			<point x="481" y="651"/>
			<point x="483" y="669"/>
			<point x="462" y="679" type="curve" smooth="yes"/>
			<point x="445" y="687"/>
			<point x="430" y="678"/>
			<point x="420" y="662" type="curve" smooth="yes"/>
			<point x="346" y="531" type="line"/>
			<point x="271" y="662" type="line" smooth="yes"/>
			<point x="262" y="676"/>
			<point x="245" y="685"/>
			<point x="232" y="678" type="curve"/>
			<point x="218" y="672"/>
			<point x="210" y="651"/>
			<point x="218" y="637" type="curve" smooth="yes"/>
			<point x="292" y="505" type="line"/>
			<point x="129" y="505" type="line" smooth="yes"/>
			<point x="112" y="505"/>
			<point x="97" y="494"/>
		</contour>
	</outline>
</glyph>
<glyph name="plus" format="2">
	<advance width="700"/>
	<unicode hex="002B"/>
	<outline>
		<contour>
			<point x="129" y="292" type="curve" smooth="yes"/>
			<point x="315" y="292" type="line"/>
			<point x="315" y="476" type="line" smooth="yes"/>
			<point x="315" y="495"/>
			<point x="323" y="519"/>
			<point x="350" y="519" type="curve" smooth="yes"/>
			<point x="377" y="519"/>
			<point x="385" y="495"/>
			<point x="385" y="476" type="curve" smooth="yes"/>
			<point x="385" y="292" type="line"/>
			<point x="572" y="292" type="line" smooth="yes"/>
			<point x="591" y="292"/>
			<point x="614" y="284"/>
			<point x="614" y="257" type="curve" smooth="yes"/>
			<point x="614" y="230"/>
			<point x="591" y="222"/>
			<point x="572" y="222" type="curve" smooth="yes"/>
			<point x="385" y="222" type="line"/>
			<point x="385" y="32" type="line" smooth="yes"/>
			<point x="385" y="13"/>
			<point x="377" y="-10"/>
			<point x="350" y="-10" type="curve" smooth="yes"/>
			<point x="323" y="-10"/>
			<point x="315" y="13"/>
			<point x="315" y="32" type="curve" smooth="yes"/>
			<point x="315" y="222" type="line"/>
			<point x="129" y="222" type="line" smooth="yes"/>
			<point x="110" y="222"/>
			<point x="86" y="230"/>
			<point x="86" y="257" type="curve" smooth="yes"/>
			<point x="86" y="284"/>
			<point x="110" y="292"/>
		</contour>
	</outline>
</glyph>
<glyph name="comma" format="2">
	<advance width="700"/>
	<unicode hex="002C"/>
	<outline>
		<contour>
			<point x="457" y="59" type="curve" smooth="yes"/>
			<point x="457" y="131"/>
			<point x="405" y="182"/>
			<point x="345" y="182" type="curve" smooth="yes"/>
			<point x="286" y="182"/>
			<point x="244" y="131"/>
			<point x="244" y="82" type="curve" smooth="yes"/>
			<point x="244" y="31"/>
			<point x="285" y="-20"/>
			<point x="335" y="-20" type="curve" smooth="yes"/>
			<point x="345" y="-20"/>
			<point x="350" y="-20"/>
			<point x="369" y="-19" type="curve"/>
			<point x="364" y="-65"/>
			<point x="295" y="-133"/>
			<point x="276" y="-149" type="curve" smooth="yes"/>
			<point x="254" y="-168"/>
			<point x="258" y="-185"/>
			<point x="268" y="-195" type="curve" smooth="yes"/>
			<point x="285" y="-212"/>
			<point x="309" y="-195"/>
			<point x="342" y="-165" type="curve" smooth="yes"/>
			<point x="398" y="-114"/>
			<point x="457" y="-23"/>
		</contour>
	</outline>
</glyph>
<glyph name="hyphen" format="2">
	<advance width="700"/>
	<unicode hex="002D"/>
	<outline>
		<contour>
			<point x="109" y="201" type="curve" smooth="yes"/>
			<point x="591" y="201" type="line" smooth="yes"/>
			<point x="611" y="201"/>
			<point x="638" y="204"/>
			<point x="638" y="232" type="curve" smooth="yes"/>
			<point x="638" y="290" type="line" smooth="yes"/>
			<point x="638" y="318"/>
			<point x="611" y="321"/>
			<point x="591" y="321" type="curve" smooth="yes"/>
			<point x="109" y="321" type="line" smooth="yes"/>
			<point x="89" y="321"/>
			<point x="62" y="318"/>
			<point x="62" y="290" type="curve" smooth="yes"/>
			<point x="62" y="232" type="line" smooth="yes"/>
			<point x="62" y="204"/>
			<point x="89" y="201"/>
		</contour>
	</outline>
</glyph>
<glyph name="period" format="2">
	<advance width="700"/>
	<unicode hex="002E"/>
	<outline>
		<contour>
			<point x="350" y="-10" type="curve"/>
			<point x="405" y="-10"/>
			<point x="449" y="35"/>
			<point x="449" y="91" type="curve" smooth="yes"/>
			<point x="449" y="145"/>
			<point x="405" y="190"/>
			<point x="350" y="190" type="curve" smooth="yes"/>
			<point x="295" y="190"/>
			<point x="250" y="145"/>
			<point x="250" y="91" type="curve" smooth="yes"/>
			<point x="250" y="35"/>
			<point x="295" y="-10"/>
		</contour>
	</outline>
</glyph>
<glyph name="slash" format="2">
	<advance width="700"/>
	<unicode hex="002F"/>
	<outline>
		<contour>
			<point x="560" y="833" type="curve" smooth="yes"/>
			<point x="127" y="-90" type="line" smooth="yes"/>
			<point x="113" y="-121"/>
			<point x="117" y="-145"/>
			<point x="152" y="-150" type="curve" smooth="yes"/>
			<point x="175" y="-153"/>
			<point x="186" y="-131"/>
			<point x="195" y="-111" type="curve" smooth="yes"/>
			<point x="628" y="812" type="line" smooth="yes"/>
			<point x="642" y="844"/>
			<point x="638" y="869"/>
			<point x="604" y="872" type="curve" smooth="yes"/>
			<point x="580" y="874"/>
			<point x="569" y="853"/>
		</contour>
	</outline>
</glyph>
<glyph name="zero" format="2">
	<advance width="700"/>
	<unicode hex="0030"/>
	<outline>
		<contour>
			<point x="632" y="379" type="line" smooth="yes"/>
			<point x="632" y="579"/>
			<point x="492" y="730"/>
			<point x="350" y="730" type="curve" smooth="yes"/>
			<point x="208" y="730"/>
			<point x="68" y="579"/>
			<point x="68" y="379" type="curve" smooth="yes"/>
			<point x="68" y="351" type="line" smooth="yes"/>
			<point x="68" y="151"/>
			<point x="208" y="0"/>
			<point x="350" y="0" type="curve" smooth="yes"/>
			<point x="492" y="0"/>
			<point x="632" y="151"/>
			<point x="632" y="351" type="curve" smooth="yes"/>
		</contour>
		<contour>
			<point x="350" y="50" type="curve" smooth="yes"/>
			<point x="254" y="50"/>
			<point x="198" y="204"/>
			<point x="198" y="366" type="curve" smooth="yes"/>
			<point x="198" y="529"/>
			<point x="254" y="680"/>
			<point x="350" y="680" type="curve" smooth="yes"/>
			<point x="445" y="680"/>
			<point x="502" y="529"/>
			<point x="502" y="366" type="curve" smooth="yes"/>
			<point x="502" y="204"/>
			<point x="445" y="50"/>
		</contour>
	</outline>
</glyph>
<glyph name="one" format="2">
	<advance width="700"/>
	<unicode hex="0031"/>
	<outline>
		<contour>
			<point x="461" y="700" type="line" smooth="yes"/>
			<point x="461" y="714"/>
			<point x="452" y="730"/>
			<point x="427" y="730" type="curve" smooth="yes"/>
			<point x="398" y="730"/>
			<point x="377" y="691"/>
			<point x="251" y="602" type="curve" smooth="yes"/>
			<point x="134" y="520" type="line" smooth="yes"/>
			<point x="121" y="511"/>
			<point x="108" y="495"/>
			<point x="123" y="478" type="curve"/>
			<point x="133" y="468"/>
			<point x="144" y="470"/>
			<point x="158" y="477" type="curve" smooth="yes"/>
			<point x="177" y="487"/>
			<point x="321" y="585"/>
			<point x="341" y="601" type="curve"/>
			<point x="341" y="27" type="line" smooth="yes"/>
			<point x="341" y="11"/>
			<point x="350" y="0"/>
			<point x="366" y="0" type="curve" smooth="yes"/>
			<point x="436" y="0" type="line" smooth="yes"/>
			<point x="450" y="0"/>
			<point x="461" y="10"/>
			<point x="461" y="27" type="curve" smooth="yes"/>
		</contour>
	</outline>
</glyph>
<glyph name="two" format="2">
	<advance width="700"/>
	<unicode hex="0032"/>
	<outline>
		<contour>
			<point x="582" y="27" type="curve" smooth="yes"/>
			<point x="590" y="115" type="line" smooth="yes"/>
			<point x="593" y="142"/>
			<point x="582" y="154"/>
			<point x="566" y="154" type="curve" smooth="yes"/>
			<point x="551" y="154"/>
			<point x="544" y="142"/>
			<point x="535" y="115" type="curve" smooth="yes"/>
			<point x="527" y="90" type="line"/>
			<point x="202" y="90" type="line"/>
			<point x="202" y="163"/>
			<point x="326" y="255"/>
			<point x="440" y="333" type="curve" smooth="yes"/>
			<point x="564" y="418"/>
			<point x="580" y="481"/>
			<point x="580" y="550" type="curve" smooth="yes"/>
			<point x="580" y="633"/>
			<point x="523" y="730"/>
			<point x="359" y="730" type="curve" smooth="yes"/>
			<point x="269" y="730"/>
			<point x="204" y="685"/>
			<point x="177" y="658" type="curve" smooth="yes"/>
			<point x="137" y="618"/>
			<point x="92" y="558"/>
			<point x="123" y="537" type="curve"/>
			<point x="132" y="530"/>
			<point x="153" y="531"/>
			<point x="164" y="548" type="curve" smooth="yes"/>
			<point x="203" y="608"/>
			<point x="251" y="672"/>
			<point x="340" y="672" type="curve" smooth="yes"/>
			<point x="434" y="672"/>
			<point x="450" y="578"/>
			<point x="450" y="541" type="curve" smooth="yes"/>
			<point x="450" y="457"/>
			<point x="398" y="372"/>
			<point x="295" y="305" type="curve" smooth="yes"/>
			<point x="171" y="224"/>
			<point x="88" y="115"/>
			<point x="88" y="31" type="curve" smooth="yes"/>
			<point x="88" y="6"/>
			<point x="104" y="0"/>
			<point x="129" y="0" type="curve" smooth="yes"/>
			<point x="554" y="0" type="line" smooth="yes"/>
			<point x="571" y="0"/>
			<point x="580" y="10"/>
		</contour>
	</outline>
</glyph>
<glyph name="three" format="2">
	<advance width="700"/>
	<unicode hex="0033"/>
	<outline>
		<contour>
			<point x="414" y="564" type="curve" smooth="yes"/>
			<point x="414" y="474"/>
			<point x="311" y="418"/>
			<point x="295" y="409" type="curve" smooth="yes"/>
			<point x="281" y="401"/>
			<point x="263" y="392"/>
			<point x="266" y="374" type="curve" smooth="yes"/>
			<point x="268" y="357"/>
			<point x="289" y="352"/>
			<point x="305" y="356" type="curve"/>
			<point x="414" y="371"/>
			<point x="478" y="324"/>
			<point x="464" y="221" type="curve" smooth="yes"/>
			<point x="445" y="86"/>
			<point x="340" y="-40"/>
			<point x="173" y="-45" type="curve" smooth="yes"/>
			<point x="139" y="-46"/>
			<point x="112" y="-42"/>
			<point x="113" y="-68" type="curve" smooth="yes"/>
			<point x="114" y="-86"/>
			<point x="140" y="-91"/>
			<point x="186" y="-91" type="curve" smooth="yes"/>
			<point x="461" y="-91"/>
			<point x="634" y="110"/>
			<point x="585" y="306" type="curve" smooth="yes"/>
			<point x="566" y="382"/>
			<point x="482" y="433"/>
			<point x="417" y="415" type="curve"/>
			<point x="488" y="431"/>
			<point x="554" y="511"/>
			<point x="541" y="608" type="curve" smooth="yes"/>
			<point x="531" y="684"/>
			<point x="450" y="730"/>
			<point x="343" y="730" type="curve" smooth="yes"/>
			<point x="237" y="730"/>
			<point x="183" y="675"/>
			<point x="155" y="649" type="curve" smooth="yes"/>
			<point x="124" y="620"/>
			<point x="111" y="589"/>
			<point x="130" y="575" type="curve"/>
			<point x="139" y="566"/>
			<point x="159" y="568"/>
			<point x="172" y="586" type="curve" smooth="yes"/>
			<point x="257" y="702"/>
			<point x="414" y="698"/>
		</contour>
	</outline>
</glyph>
<glyph name="four" format="2">
	<advance width="700"/>
	<unicode hex="0034"/>
	<outline>
		<contour>
			<point x="69" y="204" type="curve" smooth="yes"/>
			<point x="71" y="196"/>
			<point x="78" y="187"/>
			<point x="101" y="187" type="curve" smooth="yes"/>
			<point x="373" y="186" type="line"/>
			<point x="373" y="-63" type="line" smooth="yes"/>
			<point x="373" y="-80"/>
			<point x="384" y="-90"/>
			<point x="398" y="-90" type="curve" smooth="yes"/>
			<point x="468" y="-90" type="line" smooth="yes"/>
			<point x="482" y="-90"/>
			<point x="493" y="-80"/>
			<point x="493" y="-63" type="curve" smooth="yes"/>
			<point x="493" y="186" type="line"/>
			<point x="596" y="186" type="line" smooth="yes"/>
			<point x="613" y="186"/>
			<point x="623" y="197"/>
			<point x="623" y="211" type="curve" smooth="yes"/>
			<point x="623" y="225"/>
			<point x="613" y="236"/>
			<point x="596" y="236" type="curve" smooth="yes"/>
			<point x="493" y="236" type="line"/>
			<point x="493" y="677" type="line" smooth="yes"/>
			<point x="493" y="705"/>
			<point x="491" y="730"/>
			<point x="455" y="730" type="curve" smooth="yes"/>
			<point x="441" y="730"/>
			<point x="429" y="720"/>
			<point x="417" y="705" type="curve"/>
			<point x="91" y="258" type="line" smooth="yes"/>
			<point x="75" y="236"/>
			<point x="65" y="218"/>
		</contour>
		<contour>
			<point x="149" y="236" type="line"/>
			<point x="373" y="552" type="line"/>
			<point x="373" y="236" type="line"/>
		</contour>
	</outline>
</glyph>
<glyph name="five" format="2">
	<advance width="700"/>
	<unicode hex="0035"/>
	<outline>
		<contour>
			<point x="542" y="700" type="curve" smooth="yes"/>
			<point x="202" y="700" type="line" smooth="yes"/>
			<point x="177" y="700"/>
			<point x="174" y="684"/>
			<point x="172" y="671" type="curve"/>
			<point x="155" y="416" type="line" smooth="yes"/>
			<point x="154" y="391"/>
			<point x="150" y="372"/>
			<point x="170" y="364" type="curve"/>
			<point x="195" y="353"/>
			<point x="259" y="415"/>
			<point x="332" y="415" type="curve" smooth="yes"/>
			<point x="520" y="415"/>
			<point x="486" y="4"/>
			<point x="206" y="-43" type="curve" smooth="yes"/>
			<point x="182" y="-47"/>
			<point x="156" y="-46"/>
			<point x="155" y="-68" type="curve" smooth="yes"/>
			<point x="153" y="-107"/>
			<point x="247" y="-86"/>
			<point x="310" y="-67" type="curve" smooth="yes"/>
			<point x="455" y="-23"/>
			<point x="580" y="127"/>
			<point x="580" y="274" type="curve" smooth="yes"/>
			<point x="580" y="466"/>
			<point x="398" y="518"/>
			<point x="206" y="425" type="curve"/>
			<point x="217" y="610" type="line"/>
			<point x="532" y="610" type="line" smooth="yes"/>
			<point x="542" y="610"/>
			<point x="561" y="615"/>
			<point x="563" y="637" type="curve" smooth="yes"/>
			<point x="567" y="673" type="line" smooth="yes"/>
			<point x="569" y="695"/>
			<point x="552" y="700"/>
		</contour>
	</outline>
</glyph>
<glyph name="six" format="2">
	<advance width="700"/>
	<unicode hex="0036"/>
	<outline>
		<contour>
			<point x="85" y="414" type="curve" smooth="yes"/>
			<point x="69" y="181"/>
			<point x="210" y="80"/>
			<point x="359" y="80" type="curve" smooth="yes"/>
			<point x="502" y="80"/>
			<point x="618" y="169"/>
			<point x="618" y="314" type="curve" smooth="yes"/>
			<point x="618" y="452"/>
			<point x="510" y="534"/>
			<point x="381" y="534" type="curve" smooth="yes"/>
			<point x="323" y="534"/>
			<point x="278" y="517"/>
			<point x="217" y="462" type="curve"/>
			<point x="230" y="614"/>
			<point x="327" y="781"/>
			<point x="478" y="815" type="curve" smooth="yes"/>
			<point x="505" y="821"/>
			<point x="535" y="821"/>
			<point x="532" y="847" type="curve" smooth="yes"/>
			<point x="530" y="862"/>
			<point x="516" y="866"/>
			<point x="501" y="866" type="curve" smooth="yes"/>
			<point x="291" y="866"/>
			<point x="101" y="644"/>
		</contour>
		<contour>
			<point x="216" y="373" type="curve"/>
			<point x="284" y="451"/>
			<point x="336" y="484"/>
			<point x="370" y="484" type="curve" smooth="yes"/>
			<point x="447" y="484"/>
			<point x="488" y="390"/>
			<point x="487" y="301" type="curve" smooth="yes"/>
			<point x="486" y="199"/>
			<point x="439" y="130"/>
			<point x="370" y="130" type="curve" smooth="yes"/>
			<point x="294" y="130"/>
			<point x="225" y="196"/>
		</contour>
	</outline>
</glyph>
<glyph name="seven" format="2">
	<advance width="700"/>
	<unicode hex="0037"/>
	<outline>
		<contour>
			<point x="86" y="700" type="line"/>
			<point x="52" y="700"/>
			<point x="55" y="676"/>
			<point x="55" y="669" type="curve"/>
			<point x="50" y="532" type="line" smooth="yes"/>
			<point x="49" y="516"/>
			<point x="63" y="505"/>
			<point x="79" y="505" type="curve" smooth="yes"/>
			<point x="104" y="505"/>
			<point x="105" y="514"/>
			<point x="108" y="532" type="curve" smooth="yes"/>
			<point x="122" y="610" type="line"/>
			<point x="467" y="610" type="line"/>
			<point x="329" y="475"/>
			<point x="212" y="163"/>
			<point x="212" y="-6" type="curve" smooth="yes"/>
			<point x="212" y="-81"/>
			<point x="241" y="-90"/>
			<point x="276" y="-90" type="curve" smooth="yes"/>
			<point x="321" y="-90"/>
			<point x="338" y="-69"/>
			<point x="338" y="-38" type="curve" smooth="yes"/>
			<point x="338" y="417"/>
			<point x="503" y="567"/>
			<point x="555" y="629" type="curve" smooth="yes"/>
			<point x="574" y="652"/>
			<point x="592" y="662"/>
			<point x="591" y="680" type="curve" smooth="yes"/>
			<point x="590" y="698"/>
			<point x="576" y="700"/>
			<point x="560" y="700" type="curve"/>
		</contour>
	</outline>
</glyph>
<glyph name="eight" format="2">
	<advance width="700"/>
	<unicode hex="0038"/>
	<outline>
		<contour>
			<point x="270" y="498" type="curve"/>
			<point x="144" y="457"/>
			<point x="90" y="375"/>
			<point x="90" y="281" type="curve" smooth="yes"/>
			<point x="90" y="161"/>
			<point x="197" y="75"/>
			<point x="344" y="75" type="curve" smooth="yes"/>
			<point x="513" y="75"/>
			<point x="608" y="163"/>
			<point x="608" y="295" type="curve" smooth="yes"/>
			<point x="608" y="386"/>
			<point x="533" y="464"/>
			<point x="418" y="513" type="curve"/>
			<point x="501" y="537"/>
			<point x="569" y="624"/>
			<point x="569" y="691" type="curve" smooth="yes"/>
			<point x="569" y="789"/>
			<point x="494" y="880"/>
			<point x="355" y="880" type="curve" smooth="yes"/>
			<point x="200" y="880"/>
			<point x="115" y="790"/>
			<point x="119" y="673" type="curve" smooth="yes"/>
			<point x="121" y="612"/>
			<point x="172" y="538"/>
		</contour>
		<contour>
			<point x="319" y="458" type="curve"/>
			<point x="454" y="390"/>
			<point x="490" y="329"/>
			<point x="490" y="268" type="curve" smooth="yes"/>
			<point x="490" y="184"/>
			<point x="433" y="127"/>
			<point x="360" y="126" type="curve" smooth="yes"/>
			<point x="283" y="125"/>
			<point x="210" y="192"/>
			<point x="210" y="279" type="curve" smooth="yes"/>
			<point x="210" y="368"/>
			<point x="250" y="428"/>
		</contour>
		<contour>
			<point x="357" y="550" type="curve"/>
			<point x="266" y="612"/>
			<point x="239" y="643"/>
			<point x="239" y="705" type="curve" smooth="yes"/>
			<point x="239" y="757"/>
			<point x="274" y="829"/>
			<point x="351" y="829" type="curve" smooth="yes"/>
			<point x="439" y="829"/>
			<point x="460" y="755"/>
			<point x="460" y="698" type="curve" smooth="yes"/>
			<point x="460" y="634"/>
			<point x="410" y="573"/>
		</contour>
	</outline>
</glyph>
<glyph name="nine" format="2">
	<advance width="700"/>
	<unicode hex="0039"/>
	<outline>
		<contour>
			<point x="82" y="496" type="curve" smooth="yes"/>
			<point x="82" y="358"/>
			<point x="190" y="276"/>
			<point x="319" y="276" type="curve" smooth="yes"/>
			<point x="377" y="276"/>
			<point x="422" y="298"/>
			<point x="483" y="349" type="curve"/>
			<point x="470" y="197"/>
			<point x="378" y="7"/>
			<point x="222" y="-35" type="curve" smooth="yes"/>
			<point x="195" y="-42"/>
			<point x="165" y="-41"/>
			<point x="168" y="-67" type="curve" smooth="yes"/>
			<point x="170" y="-87"/>
			<point x="197" y="-89"/>
			<point x="222" y="-84" type="curve" smooth="yes"/>
			<point x="424" y="-45"/>
			<point x="599" y="162"/>
			<point x="615" y="396" type="curve" smooth="yes"/>
			<point x="631" y="629"/>
			<point x="490" y="730"/>
			<point x="341" y="730" type="curve" smooth="yes"/>
			<point x="198" y="730"/>
			<point x="82" y="641"/>
		</contour>
		<contour>
			<point x="212" y="509" type="curve" smooth="yes"/>
			<point x="213" y="611"/>
			<point x="260" y="680"/>
			<point x="330" y="680" type="curve" smooth="yes"/>
			<point x="406" y="680"/>
			<point x="475" y="614"/>
			<point x="484" y="435" type="curve"/>
			<point x="418" y="356"/>
			<point x="363" y="326"/>
			<point x="330" y="326" type="curve" smooth="yes"/>
			<point x="252" y="326"/>
			<point x="211" y="420"/>
		</contour>
	</outline>
</glyph>
<glyph name="colon" format="2">
	<advance width="700"/>
	<unicode hex="003A"/>
	<outline>
		<contour>
			<point x="349" y="309" type="curve" smooth="yes"/>
			<point x="404" y="309"/>
			<point x="448" y="354"/>
			<point x="448" y="409" type="curve" smooth="yes"/>
			<point x="448" y="464"/>
			<point x="404" y="509"/>
			<point x="349" y="509" type="curve" smooth="yes"/>
			<point x="294" y="509"/>
			<point x="249" y="464"/>
			<point x="249" y="409" type="curve" smooth="yes"/>
			<point x="249" y="354"/>
			<point x="294" y="309"/>
		</contour>
		<contour>
			<point x="349" y="-20" type="curve" smooth="yes"/>
			<point x="404" y="-20"/>
			<point x="448" y="25"/>
			<point x="448" y="81" type="curve" smooth="yes"/>
			<point x="448" y="135"/>
			<point x="404" y="180"/>
			<point x="349" y="180" type="curve" smooth="yes"/>
			<point x="294" y="180"/>
			<point x="249" y="135"/>
			<point x="249" y="81" type="curve" smooth="yes"/>
			<point x="249" y="25"/>
			<point x="294" y="-20"/>
		</contour>
	</outline>
</glyph>
<glyph name="semicolon" format="2">
	<advance width="700"/>
	<unicode hex="003B"/>
	<outline>
		<contour>
			<point x="345" y="318" type="curve" smooth="yes"/>
			<point x="400" y="318"/>
			<point x="444" y="363"/>
			<point x="444" y="418" type="curve" smooth="yes"/>
			<point x="444" y="473"/>
			<point x="400" y="518"/>
			<point x="345" y="518" type="curve" smooth="yes"/>
			<point x="290" y="518"/>
			<point x="245" y="473"/>
			<point x="245" y="418" type="curve" smooth="yes"/>
			<point x="245" y="363"/>
			<point x="290" y="318"/>
		</contour>
		<contour>
			<point x="457" y="59" type="curve" smooth="yes"/>
			<point x="457" y="131"/>
			<point x="405" y="182"/>
			<point x="345" y="182" type="curve" smooth="yes"/>
			<point x="286" y="182"/>
			<point x="244" y="131"/>
			<point x="244" y="82" type="curve" smooth="yes"/>
			<point x="244" y="31"/>
			<point x="285" y="-20"/>
			<point x="335" y="-20" type="curve" smooth="yes"/>
			<point x="345" y="-20"/>
			<point x="350" y="-20"/>
			<point x="369" y="-19" type="curve"/>
			<point x="364" y="-65"/>
			<point x="295" y="-133"/>
			<point x="276" y="-149" type="curve" smooth="yes"/>
			<point x="254" y="-168"/>
			<point x="258" y="-185"/>
			<point x="268" y="-195" type="curve" smooth="yes"/>
			<point x="285" y="-212"/>
			<point x="309" y="-195"/>
			<point x="342" y="-165" type="curve" smooth="yes"/>
			<point x="398" y="-114"/>
			<point x="457" y="-23"/>
		</contour>
	</outline>
</glyph>
<glyph name="less" format="2">
	<advance width="700"/>
	<unicode hex="003C"/>
	<outline>
		<contour>
			<point x="174" y="231" type="curve" smooth="yes"/>
			<point x="485" y="102" type="line" smooth="yes"/>
			<point x="501" y="95"/>
			<point x="522" y="90"/>
			<point x="534" y="102" type="curve" smooth="yes"/>
			<point x="545" y="113"/>
			<point x="553" y="135"/>
			<point x="521" y="148" type="curve" smooth="yes"/>
			<point x="239" y="261" type="line"/>
			<point x="522" y="373" type="line" smooth="yes"/>
			<point x="548" y="383"/>
			<point x="543" y="407"/>
			<point x="531" y="419" type="curve"/>
			<point x="522" y="430"/>
			<point x="501" y="424"/>
			<point x="486" y="418" type="curve" smooth="yes"/>
			<point x="174" y="291" type="line" smooth="yes"/>
			<point x="161" y="286"/>
			<point x="149" y="277"/>
			<point x="149" y="262" type="curve" smooth="yes"/>
			<point x="149" y="247"/>
			<point x="161" y="236"/>
		</contour>
	</outline>
</glyph>
<glyph name="equal" format="2">
	<advance width="700"/>
	<unicode hex="003D"/>
	<outline>
		<contour>
			<point x="565" y="323" type="curve" smooth="yes"/>
			<point x="134" y="323" type="line" smooth="yes"/>
			<point x="109" y="323"/>
			<point x="97" y="338"/>
			<point x="97" y="353" type="curve" smooth="yes"/>
			<point x="97" y="368"/>
			<point x="109" y="383"/>
			<point x="134" y="383" type="curve" smooth="yes"/>
			<point x="565" y="383" type="line" smooth="yes"/>
			<point x="590" y="383"/>
			<point x="602" y="368"/>
			<point x="602" y="353" type="curve" smooth="yes"/>
			<point x="602" y="338"/>
			<point x="590" y="323"/>
		</contour>
		<contour>
			<point x="565" y="123" type="curve" smooth="yes"/>
			<point x="134" y="123" type="line" smooth="yes"/>
			<point x="109" y="123"/>
			<point x="97" y="138"/>
			<point x="97" y="153" type="curve" smooth="yes"/>
			<point x="97" y="168"/>
			<point x="109" y="183"/>
			<point x="134" y="183" type="curve" smooth="yes"/>
			<point x="565" y="183" type="line" smooth="yes"/>
			<point x="590" y="183"/>
			<point x="602" y="168"/>
			<point x="602" y="153" type="curve" smooth="yes"/>
			<point x="602" y="138"/>
			<point x="590" y="123"/>
		</contour>
	</outline>
</glyph>
<glyph name="greater" format="2">
	<advance width="700"/>
	<unicode hex="003E"/>
	<outline>
		<contour>
			<point x="528" y="231" type="line" smooth="yes"/>
			<point x="541" y="236"/>
			<point x="553" y="247"/>
			<point x="553" y="262" type="curve" smooth="yes"/>
			<point x="553" y="277"/>
			<point x="541" y="286"/>
			<point x="528" y="291" type="curve" smooth="yes"/>
			<point x="216" y="418" type="line" smooth="yes"/>
			<point x="201" y="424"/>
			<point x="180" y="430"/>
			<point x="171" y="419" type="curve"/>
			<point x="159" y="407"/>
			<point x="154" y="383"/>
			<point x="180" y="373" type="curve" smooth="yes"/>
			<point x="463" y="261" type="line"/>
			<point x="181" y="148" type="line" smooth="yes"/>
			<point x="151" y="136"/>
			<point x="157" y="113"/>
			<point x="168" y="102" type="curve" smooth="yes"/>
			<point x="180" y="90"/>
			<point x="201" y="95"/>
			<point x="217" y="102" type="curve" smooth="yes"/>
		</contour>
	</outline>
</glyph>
<glyph name="question" format="2">
	<advance width="700"/>
	<unicode hex="003F"/>
	<outline>
		<contour>
			<point x="334" y="130" type="curve" smooth="yes"/>
			<point x="297" y="130"/>
			<point x="266" y="102"/>
			<point x="266" y="65" type="curve" smooth="yes"/>
			<point x="266" y="28"/>
			<point x="297" y="0"/>
			<point x="334" y="0" type="curve" smooth="yes"/>
			<point x="372" y="0"/>
			<point x="402" y="28"/>
			<point x="402" y="65" type="curve" smooth="yes"/>
			<point x="402" y="102"/>
			<point x="372" y="130"/>
		</contour>
		<contour>
			<point x="337" y="730" type="curve" smooth="yes"/>
			<point x="450" y="730"/>
			<point x="546" y="677"/>
			<point x="546" y="579" type="curve" smooth="yes"/>
			<point x="546" y="476"/>
			<point x="478" y="450"/>
			<point x="398" y="385" type="curve" smooth="yes"/>
			<point x="360" y="354"/>
			<point x="360" y="319"/>
			<point x="360" y="245" type="curve" smooth="yes"/>
			<point x="360" y="226" type="line" smooth="yes"/>
			<point x="360" y="208"/>
			<point x="349" y="198"/>
			<point x="335" y="198" type="curve" smooth="yes"/>
			<point x="321" y="198"/>
			<point x="310" y="208"/>
			<point x="310" y="225" type="curve" smooth="yes"/>
			<point x="310" y="305" type="line" smooth="yes"/>
			<point x="310" y="359"/>
			<point x="336" y="375"/>
			<point x="373" y="424" type="curve" smooth="yes"/>
			<point x="415" y="480"/>
			<point x="426" y="520"/>
			<point x="426" y="579" type="curve" smooth="yes"/>
			<point x="426" y="642"/>
			<point x="386" y="680"/>
			<point x="327" y="680" type="curve" smooth="yes"/>
			<point x="263" y="680"/>
			<point x="238" y="642"/>
			<point x="238" y="642" type="curve"/>
			<point x="236" y="649"/>
			<point x="252" y="587"/>
			<point x="257" y="569" type="curve" smooth="yes"/>
			<point x="262" y="551"/>
			<point x="253" y="497"/>
			<point x="204" y="490" type="curve" smooth="yes"/>
			<point x="161" y="483"/>
			<point x="120" y="502"/>
			<point x="107" y="552" type="curve" smooth="yes"/>
			<point x="89" y="623"/>
			<point x="172" y="730"/>
		</contour>
	</outline>
</glyph>
<glyph name="at" format="2">
	<advance width="700"/>
	<unicode hex="0040"/>
	<outline>
		<contour>
			<point x="156" y="334" type="curve" smooth="yes"/>
			<point x="140" y="212"/>
			<point x="201" y="129"/>
			<point x="306" y="129" type="curve" smooth="yes"/>
			<point x="354" y="129"/>
			<point x="399" y="150"/>
			<point x="434" y="186" type="curve"/>
			<point x="432" y="157"/>
			<point x="452" y="107"/>
			<point x="518" y="108" type="curve" smooth="yes"/>
			<point x="611" y="109"/>
			<point x="678" y="231"/>
			<point x="678" y="347" type="curve" smooth="yes"/>
			<point x="678" y="533"/>
			<point x="536" y="684"/>
			<point x="349" y="684" type="curve" smooth="yes"/>
			<point x="163" y="684"/>
			<point x="21" y="514"/>
			<point x="21" y="337" type="curve" smooth="yes"/>
			<point x="21" y="161"/>
			<point x="163" y="-10"/>
			<point x="349" y="-10" type="curve" smooth="yes"/>
			<point x="412" y="-10"/>
			<point x="483" y="6"/>
			<point x="473" y="48" type="curve" smooth="yes"/>
			<point x="469" y="65"/>
			<point x="461" y="69"/>
			<point x="448" y="69" type="curve" smooth="yes"/>
			<point x="429" y="69"/>
			<point x="398" y="60"/>
			<point x="349" y="60" type="curve" smooth="yes"/>
			<point x="205" y="60"/>
			<point x="91" y="191"/>
			<point x="91" y="336" type="curve" smooth="yes"/>
			<point x="91" y="482"/>
			<point x="204" y="614"/>
			<point x="349" y="614" type="curve" smooth="yes"/>
			<point x="494" y="614"/>
			<point x="608" y="502"/>
			<point x="608" y="346" type="curve" smooth="yes"/>
			<point x="608" y="298"/>
			<point x="584" y="167"/>
			<point x="519" y="167" type="curve" smooth="yes"/>
			<point x="500" y="167"/>
			<point x="490" y="183"/>
			<point x="494" y="216" type="curve" smooth="yes"/>
			<point x="530" y="488" type="line" smooth="yes"/>
			<point x="532" y="502"/>
			<point x="533" y="526"/>
			<point x="506" y="526" type="curve" smooth="yes"/>
			<point x="486" y="526"/>
			<point x="474" y="511"/>
			<point x="471" y="490" type="curve"/>
			<point x="470" y="484" type="line"/>
			<point x="445" y="520"/>
			<point x="406" y="541"/>
			<point x="358" y="541" type="curve" smooth="yes"/>
			<point x="253" y="541"/>
			<point x="172" y="458"/>
		</contour>
		<contour>
			<point x="262" y="334" type="curve" smooth="yes"/>
			<point x="275" y="429"/>
			<point x="307" y="501"/>
			<point x="358" y="501" type="curve" smooth="yes"/>
			<point x="421" y="501"/>
			<point x="416" y="429"/>
			<point x="403" y="334" type="curve" smooth="yes"/>
			<point x="390" y="238"/>
			<point x="358" y="168"/>
			<point x="306" y="168" type="curve" smooth="yes"/>
			<point x="254" y="168"/>
			<point x="249" y="238"/>
		</contour>
	</outline>
</glyph>
<glyph name="A" format="2">
	<advance width="700"/>
	<unicode hex="0041"/>
	<outline>
		<contour>
			<point x="356" y="731" type="curve" smooth="yes"/>
			<point x="330" y="731"/>
			<point x="317" y="720"/>
			<point x="310" y="699" type="curve" smooth="yes"/>
			<point x="112" y="50" type="line"/>
			<point x="52" y="50" type="line" smooth="yes"/>
			<point x="34" y="50"/>
			<point x="23" y="40"/>
			<point x="23" y="25" type="curve" smooth="yes"/>
			<point x="23" y="10"/>
			<point x="34" y="0"/>
			<point x="52" y="0" type="curve" smooth="yes"/>
			<point x="235" y="0" type="line" smooth="yes"/>
			<point x="253" y="0"/>
			<point x="264" y="10"/>
			<point x="264" y="25" type="curve" smooth="yes"/>
			<point x="264" y="40"/>
			<point x="253" y="50"/>
			<point x="235" y="50" type="curve" smooth="yes"/>
			<point x="178" y="50" type="line"/>
			<point x="221" y="205" type="line"/>
			<point x="436" y="205" type="line"/>
			<point x="481" y="50" type="line"/>
			<point x="409" y="50" type="line" smooth="yes"/>
			<point x="391" y="50"/>
			<point x="380" y="40"/>
			<point x="380" y="25" type="curve" smooth="yes"/>
			<point x="380" y="10"/>
			<point x="391" y="0"/>
			<point x="409" y="0" type="curve" smooth="yes"/>
			<point x="663" y="0" type="line" smooth="yes"/>
			<point x="681" y="0"/>
			<point x="692" y="10"/>
			<point x="692" y="25" type="curve" smooth="yes"/>
			<point x="692" y="40"/>
			<point x="681" y="50"/>
			<point x="663" y="50" type="curve" smooth="yes"/>
			<point x="608" y="50" type="line"/>
			<point x="402" y="699" type="line" smooth="yes"/>
			<point x="395" y="721"/>
			<point x="383" y="731"/>
		</contour>
		<contour>
			<point x="236" y="255" type="line"/>
			<point x="335" y="579" type="line"/>
			<point x="421" y="255" type="line"/>
		</contour>
	</outline>
</glyph>
<glyph name="B" format="2">
	<advance width="700"/>
	<unicode hex="0042"/>
	<outline>
		<contour>
			<point x="79" y="0" type="curve" smooth="yes"/>
			<point x="434" y="0" type="line" smooth="yes"/>
			<point x="557" y="0"/>
			<point x="658" y="86"/>
			<point x="658" y="205" type="curve" smooth="yes"/>
			<point x="658" y="330"/>
			<point x="554" y="371"/>
			<point x="516" y="381" type="curve" smooth="yes"/>
			<point x="488" y="388" type="line"/>
			<point x="516" y="399" type="line" smooth="yes"/>
			<point x="553" y="413"/>
			<point x="624" y="449"/>
			<point x="624" y="555" type="curve" smooth="yes"/>
			<point x="624" y="667"/>
			<point x="524" y="730"/>
			<point x="394" y="730" type="curve" smooth="yes"/>
			<point x="79" y="730" type="line" smooth="yes"/>
			<point x="62" y="730"/>
			<point x="50" y="720"/>
			<point x="50" y="705" type="curve" smooth="yes"/>
			<point x="50" y="692"/>
			<point x="61" y="681"/>
			<point x="79" y="679" type="curve" smooth="yes"/>
			<point x="150" y="671" type="line"/>
			<point x="150" y="50" type="line"/>
			<point x="79" y="50" type="line" smooth="yes"/>
			<point x="61" y="50"/>
			<point x="50" y="40"/>
			<point x="50" y="25" type="curve" smooth="yes"/>
			<point x="50" y="10"/>
			<point x="61" y="0"/>
		</contour>
		<contour>
			<point x="270" y="410" type="line"/>
			<point x="270" y="680" type="line"/>
			<point x="393" y="680" type="line" smooth="yes"/>
			<point x="433" y="680"/>
			<point x="504" y="649"/>
			<point x="504" y="555" type="curve" smooth="yes"/>
			<point x="504" y="458"/>
			<point x="431" y="410"/>
			<point x="393" y="410" type="curve" smooth="yes"/>
		</contour>
		<contour>
			<point x="270" y="50" type="line"/>
			<point x="270" y="360" type="line"/>
			<point x="393" y="360" type="line" smooth="yes"/>
			<point x="474" y="360"/>
			<point x="538" y="306"/>
			<point x="538" y="205" type="curve" smooth="yes"/>
			<point x="538" y="126"/>
			<point x="498" y="50"/>
			<point x="393" y="50" type="curve" smooth="yes"/>
		</contour>
	</outline>
</glyph>
<glyph name="C" format="2">
	<advance width="700"/>
	<unicode hex="0043"/>
	<outline>
		<contour>
			<point x="369" y="730" type="curve" smooth="yes"/>
			<point x="210" y="730"/>
			<point x="76" y="617"/>
			<point x="76" y="365" type="curve" smooth="yes"/>
			<point x="76" y="113"/>
			<point x="210" y="0"/>
			<point x="369" y="0" type="curve" smooth="yes"/>
			<point x="502" y="0"/>
			<point x="569" y="108"/>
			<point x="604" y="232" type="curve" smooth="yes"/>
			<point x="612" y="261"/>
			<point x="601" y="280"/>
			<point x="577" y="280" type="curve" smooth="yes"/>
			<point x="560" y="280"/>
			<point x="552" y="263"/>
			<point x="546" y="249" type="curve" smooth="yes"/>
			<point x="526" y="201" type="line" smooth="yes"/>
			<point x="489" y="111"/>
			<point x="438" y="50"/>
			<point x="369" y="50" type="curve" smooth="yes"/>
			<point x="259" y="50"/>
			<point x="206" y="192"/>
			<point x="206" y="365" type="curve" smooth="yes"/>
			<point x="206" y="537"/>
			<point x="259" y="680"/>
			<point x="359" y="680" type="curve" smooth="yes"/>
			<point x="467" y="680"/>
			<point x="499" y="595"/>
			<point x="536" y="478" type="curve" smooth="yes"/>
			<point x="541" y="462"/>
			<point x="546" y="449"/>
			<point x="566" y="449" type="curve" smooth="yes"/>
			<point x="587" y="449"/>
			<point x="600" y="460"/>
			<point x="600" y="478" type="curve" smooth="yes"/>
			<point x="600" y="701" type="line" smooth="yes"/>
			<point x="600" y="718"/>
			<point x="590" y="730"/>
			<point x="570" y="730" type="curve" smooth="yes"/>
			<point x="557" y="730"/>
			<point x="545" y="720"/>
			<point x="544" y="701" type="curve" smooth="yes"/>
			<point x="540" y="644" type="line"/>
			<point x="508" y="685"/>
			<point x="447" y="730"/>
		</contour>
	</outline>
</glyph>
<glyph name="D" format="2">
	<advance width="700"/>
	<unicode hex="0044"/>
	<outline>
		<contour>
			<point x="267" y="50" type="line"/>
			<point x="376" y="50" type="line" smooth="yes"/>
			<point x="478" y="50"/>
			<point x="548" y="185"/>
			<point x="548" y="362" type="curve" smooth="yes"/>
			<point x="548" y="534"/>
			<point x="482" y="680"/>
			<point x="375" y="680" type="curve" smooth="yes"/>
			<point x="268" y="680" type="line"/>
		</contour>
		<contour>
			<point x="52" y="730" type="curve" smooth="yes"/>
			<point x="385" y="730" type="line" smooth="yes"/>
			<point x="505" y="730"/>
			<point x="668" y="628"/>
			<point x="668" y="362" type="curve" smooth="yes"/>
			<point x="668" y="70"/>
			<point x="502" y="0"/>
			<point x="386" y="0" type="curve" smooth="yes"/>
			<point x="52" y="0" type="line" smooth="yes"/>
			<point x="34" y="0"/>
			<point x="23" y="10"/>
			<point x="23" y="25" type="curve" smooth="yes"/>
			<point x="23" y="40"/>
			<point x="34" y="50"/>
			<point x="52" y="50" type="curve" smooth="yes"/>
			<point x="147" y="50" type="line"/>
			<point x="147" y="680" type="line"/>
			<point x="52" y="680" type="line" smooth="yes"/>
			<point x="34" y="680"/>
			<point x="23" y="690"/>
			<point x="23" y="705" type="curve" smooth="yes"/>
			<point x="23" y="720"/>
			<point x="34" y="730"/>
		</contour>
	</outline>
</glyph>
<glyph name="E" format="2">
	<advance width="700"/>
	<unicode hex="0045"/>
	<outline>
		<contour>
			<point x="283" y="50" type="line"/>
			<point x="283" y="344" type="line"/>
			<point x="356" y="344" type="line" smooth="yes"/>
			<point x="409" y="344"/>
			<point x="422" y="315"/>
			<point x="429" y="276" type="curve" smooth="yes"/>
			<point x="434" y="247" type="line" smooth="yes"/>
			<point x="437" y="230"/>
			<point x="442" y="218"/>
			<point x="459" y="218" type="curve" smooth="yes"/>
			<point x="476" y="218"/>
			<point x="484" y="230"/>
			<point x="484" y="247" type="curve" smooth="yes"/>
			<point x="484" y="501" type="line" smooth="yes"/>
			<point x="484" y="518"/>
			<point x="476" y="530"/>
			<point x="459" y="530" type="curve" smooth="yes"/>
			<point x="442" y="530"/>
			<point x="437" y="518"/>
			<point x="434" y="501" type="curve" smooth="yes"/>
			<point x="429" y="472" type="line" smooth="yes"/>
			<point x="422" y="433"/>
			<point x="409" y="394"/>
			<point x="356" y="394" type="curve" smooth="yes"/>
			<point x="283" y="394" type="line"/>
			<point x="283" y="680" type="line"/>
			<point x="463" y="680" type="line" smooth="yes"/>
			<point x="560" y="678"/>
			<point x="573" y="591"/>
			<point x="579" y="550" type="curve"/>
			<point x="583" y="494" type="line" smooth="yes"/>
			<point x="584" y="476"/>
			<point x="591" y="464"/>
			<point x="609" y="464" type="curve" smooth="yes"/>
			<point x="627" y="464"/>
			<point x="636" y="476"/>
			<point x="635" y="494" type="curve" smooth="yes"/>
			<point x="619" y="699" type="line" smooth="yes"/>
			<point x="618" y="716"/>
			<point x="610" y="730"/>
			<point x="592" y="730" type="curve" smooth="yes"/>
			<point x="70" y="730" type="line" smooth="yes"/>
			<point x="53" y="730"/>
			<point x="41" y="720"/>
			<point x="41" y="705" type="curve" smooth="yes"/>
			<point x="41" y="692"/>
			<point x="51" y="681"/>
			<point x="70" y="679" type="curve" smooth="yes"/>
			<point x="163" y="671" type="line"/>
			<point x="163" y="50" type="line"/>
			<point x="70" y="50" type="line" smooth="yes"/>
			<point x="52" y="50"/>
			<point x="41" y="40"/>
			<point x="41" y="25" type="curve" smooth="yes"/>
			<point x="41" y="10"/>
			<point x="52" y="0"/>
			<point x="70" y="0" type="curve" smooth="yes"/>
			<point x="592" y="0" type="line" smooth="yes"/>
			<point x="610" y="0"/>
			<point x="618" y="14"/>
			<point x="619" y="31" type="curve" smooth="yes"/>
			<point x="635" y="236" type="line" smooth="yes"/>
			<point x="636" y="254"/>
			<point x="627" y="266"/>
			<point x="609" y="266" type="curve" smooth="yes"/>
			<point x="591" y="266"/>
			<point x="584" y="254"/>
			<point x="583" y="236" type="curve" smooth="yes"/>
			<point x="579" y="180" type="line"/>
			<point x="573" y="139"/>
			<point x="560" y="52"/>
			<point x="463" y="50" type="curve" smooth="yes"/>
		</contour>
	</outline>
</glyph>
<glyph name="F" format="2">
	<advance width="700"/>
	<unicode hex="0046"/>
	<outline>
		<contour>
			<point x="300" y="421" type="line"/>
			<point x="300" y="680" type="line"/>
			<point x="487" y="680" type="line" smooth="yes"/>
			<point x="537" y="680"/>
			<point x="562" y="622"/>
			<point x="574" y="568" type="curve" smooth="yes"/>
			<point x="584" y="524"/>
			<point x="586" y="483"/>
			<point x="586" y="475" type="curve" smooth="yes"/>
			<point x="587" y="459"/>
			<point x="599" y="446"/>
			<point x="614" y="447" type="curve" smooth="yes"/>
			<point x="628" y="448"/>
			<point x="639" y="461"/>
			<point x="638" y="479" type="curve" smooth="yes"/>
			<point x="626" y="690" type="line" smooth="yes"/>
			<point x="625" y="728"/>
			<point x="602" y="730"/>
			<point x="580" y="730" type="curve" smooth="yes"/>
			<point x="83" y="730" type="line" smooth="yes"/>
			<point x="66" y="730"/>
			<point x="54" y="720"/>
			<point x="54" y="705" type="curve" smooth="yes"/>
			<point x="54" y="692"/>
			<point x="65" y="681"/>
			<point x="83" y="679" type="curve" smooth="yes"/>
			<point x="180" y="669" type="line"/>
			<point x="180" y="50" type="line"/>
			<point x="81" y="50" type="line" smooth="yes"/>
			<point x="63" y="50"/>
			<point x="52" y="40"/>
			<point x="52" y="25" type="curve" smooth="yes"/>
			<point x="52" y="10"/>
			<point x="63" y="0"/>
			<point x="81" y="0" type="curve" smooth="yes"/>
			<point x="398" y="0" type="line" smooth="yes"/>
			<point x="416" y="0"/>
			<point x="427" y="10"/>
			<point x="427" y="25" type="curve" smooth="yes"/>
			<point x="427" y="40"/>
			<point x="416" y="50"/>
			<point x="398" y="50" type="curve" smooth="yes"/>
			<point x="300" y="50" type="line"/>
			<point x="300" y="371" type="line"/>
			<point x="379" y="371" type="line" smooth="yes"/>
			<point x="432" y="371"/>
			<point x="444" y="339"/>
			<point x="451" y="300" type="curve" smooth="yes"/>
			<point x="456" y="270" type="line" smooth="yes"/>
			<point x="459" y="252"/>
			<point x="465" y="240"/>
			<point x="482" y="240" type="curve" smooth="yes"/>
			<point x="500" y="240"/>
			<point x="508" y="252"/>
			<point x="508" y="270" type="curve" smooth="yes"/>
			<point x="508" y="522" type="line" smooth="yes"/>
			<point x="508" y="540"/>
			<point x="500" y="552"/>
			<point x="482" y="552" type="curve" smooth="yes"/>
			<point x="465" y="552"/>
			<point x="459" y="540"/>
			<point x="456" y="522" type="curve" smooth="yes"/>
			<point x="451" y="492" type="line" smooth="yes"/>
			<point x="444" y="453"/>
			<point x="432" y="421"/>
			<point x="379" y="421" type="curve" smooth="yes"/>
		</contour>
	</outline>
</glyph>
<glyph name="G" format="2">
	<advance width="700"/>
	<unicode hex="0047"/>
	<outline>
		<contour>
			<point x="58" y="365" type="curve" smooth="yes"/>
			<point x="58" y="113"/>
			<point x="182" y="0"/>
			<point x="341" y="0" type="curve" smooth="yes"/>
			<point x="427" y="0"/>
			<point x="496" y="55"/>
			<point x="532" y="116" type="curve"/>
			<point x="531" y="30" type="line" smooth="yes"/>
			<point x="531" y="13"/>
			<point x="540" y="-1"/>
			<point x="558" y="-1" type="curve" smooth="yes"/>
			<point x="576" y="-1"/>
			<point x="585" y="13"/>
			<point x="585" y="30" type="curve"/>
			<point x="583" y="298" type="line"/>
			<point x="645" y="298" type="line" smooth="yes"/>
			<point x="663" y="298"/>
			<point x="674" y="308"/>
			<point x="674" y="323" type="curve" smooth="yes"/>
			<point x="674" y="336"/>
			<point x="663" y="348"/>
			<point x="645" y="348" type="curve" smooth="yes"/>
			<point x="431" y="348" type="line" smooth="yes"/>
			<point x="413" y="348"/>
			<point x="402" y="340"/>
			<point x="402" y="323" type="curve" smooth="yes"/>
			<point x="402" y="306"/>
			<point x="413" y="298"/>
			<point x="431" y="298" type="curve" smooth="yes"/>
			<point x="503" y="298" type="line"/>
			<point x="501" y="154"/>
			<point x="426" y="50"/>
			<point x="341" y="50" type="curve" smooth="yes"/>
			<point x="238" y="50"/>
			<point x="188" y="192"/>
			<point x="188" y="365" type="curve" smooth="yes"/>
			<point x="188" y="537"/>
			<point x="238" y="680"/>
			<point x="341" y="680" type="curve" smooth="yes"/>
			<point x="429" y="680"/>
			<point x="471" y="595"/>
			<point x="508" y="478" type="curve" smooth="yes"/>
			<point x="513" y="462"/>
			<point x="518" y="444"/>
			<point x="548" y="444" type="curve" smooth="yes"/>
			<point x="564" y="444"/>
			<point x="577" y="460"/>
			<point x="577" y="478" type="curve" smooth="yes"/>
			<point x="577" y="701" type="line" smooth="yes"/>
			<point x="577" y="718"/>
			<point x="567" y="730"/>
			<point x="552" y="730" type="curve" smooth="yes"/>
			<point x="539" y="730"/>
			<point x="527" y="720"/>
			<point x="526" y="701" type="curve" smooth="yes"/>
			<point x="522" y="639" type="line"/>
			<point x="483" y="680"/>
			<point x="419" y="730"/>
			<point x="351" y="730" type="curve" smooth="yes"/>
			<point x="182" y="730"/>
			<point x="58" y="617"/>
		</contour>
	</outline>
</glyph>
<glyph name="H" format="2">
	<advance width="700"/>
	<unicode hex="0048"/>
	<outline>
		<contour>
			<point x="229" y="408" type="line"/>
			<point x="229" y="680" type="line"/>
			<point x="281" y="680" type="line" smooth="yes"/>
			<point x="299" y="680"/>
			<point x="310" y="690"/>
			<point x="310" y="705" type="curve" smooth="yes"/>
			<point x="310" y="720"/>
			<point x="299" y="730"/>
			<point x="281" y="730" type="curve" smooth="yes"/>
			<point x="62" y="730" type="line" smooth="yes"/>
			<point x="44" y="730"/>
			<point x="33" y="720"/>
			<point x="33" y="705" type="curve" smooth="yes"/>
			<point x="33" y="690"/>
			<point x="44" y="680"/>
			<point x="62" y="680" type="curve" smooth="yes"/>
			<point x="109" y="680" type="line"/>
			<point x="109" y="50" type="line"/>
			<point x="62" y="50" type="line" smooth="yes"/>
			<point x="44" y="50"/>
			<point x="33" y="40"/>
			<point x="33" y="25" type="curve" smooth="yes"/>
			<point x="33" y="10"/>
			<point x="44" y="0"/>
			<point x="62" y="0" type="curve" smooth="yes"/>
			<point x="281" y="0" type="line" smooth="yes"/>
			<point x="299" y="0"/>
			<point x="310" y="10"/>
			<point x="310" y="25" type="curve" smooth="yes"/>
			<point x="310" y="40"/>
			<point x="299" y="50"/>
			<point x="281" y="50" type="curve" smooth="yes"/>
			<point x="229" y="50" type="line"/>
			<point x="229" y="358" type="line"/>
			<point x="470" y="358" type="line"/>
			<point x="470" y="50" type="line"/>
			<point x="418" y="50" type="line" smooth="yes"/>
			<point x="400" y="50"/>
			<point x="389" y="40"/>
			<point x="389" y="25" type="curve" smooth="yes"/>
			<point x="389" y="10"/>
			<point x="400" y="0"/>
			<point x="418" y="0" type="curve" smooth="yes"/>
			<point x="638" y="0" type="line" smooth="yes"/>
			<point x="656" y="0"/>
			<point x="667" y="8"/>
			<point x="667" y="25" type="curve" smooth="yes"/>
			<point x="667" y="42"/>
			<point x="656" y="50"/>
			<point x="638" y="50" type="curve" smooth="yes"/>
			<point x="590" y="50" type="line"/>
			<point x="590" y="680" type="line"/>
			<point x="637" y="680" type="line" smooth="yes"/>
			<point x="655" y="680"/>
			<point x="666" y="688"/>
			<point x="666" y="705" type="curve" smooth="yes"/>
			<point x="666" y="722"/>
			<point x="655" y="730"/>
			<point x="637" y="730" type="curve" smooth="yes"/>
			<point x="418" y="730" type="line" smooth="yes"/>
			<point x="400" y="730"/>
			<point x="389" y="720"/>
			<point x="389" y="705" type="curve" smooth="yes"/>
			<point x="389" y="690"/>
			<point x="400" y="680"/>
			<point x="418" y="680" type="curve" smooth="yes"/>
			<point x="470" y="680" type="line"/>
			<point x="470" y="408" type="line"/>
		</contour>
	</outline>
</glyph>
<glyph name="I" format="2">
	<advance width="700"/>
	<unicode hex="0049"/>
	<outline>
		<contour>
			<point x="412" y="50" type="line"/>
			<point x="412" y="680" type="line"/>
			<point x="550" y="680" type="line" smooth="yes"/>
			<point x="568" y="680"/>
			<point x="579" y="690"/>
			<point x="579" y="705" type="curve" smooth="yes"/>
			<point x="579" y="720"/>
			<point x="568" y="730"/>
			<point x="550" y="730" type="curve" smooth="yes"/>
			<point x="150" y="730" type="line" smooth="yes"/>
			<point x="132" y="730"/>
			<point x="121" y="720"/>
			<point x="121" y="705" type="curve" smooth="yes"/>
			<point x="121" y="690"/>
			<point x="132" y="680"/>
			<point x="150" y="680" type="curve" smooth="yes"/>
			<point x="292" y="680" type="line"/>
			<point x="292" y="50" type="line"/>
			<point x="151" y="50" type="line" smooth="yes"/>
			<point x="132" y="50"/>
			<point x="121" y="40"/>
			<point x="121" y="25" type="curve" smooth="yes"/>
			<point x="121" y="10"/>
			<point x="132" y="0"/>
			<point x="151" y="0" type="curve" smooth="yes"/>
			<point x="551" y="0" type="line" smooth="yes"/>
			<point x="570" y="0"/>
			<point x="581" y="10"/>
			<point x="581" y="25" type="curve" smooth="yes"/>
			<point x="581" y="40"/>
			<point x="570" y="50"/>
			<point x="551" y="50" type="curve" smooth="yes"/>
		</contour>
	</outline>
</glyph>
<glyph name="J" format="2">
	<advance width="700"/>
	<unicode hex="004A"/>
	<outline>
		<contour>
			<point x="477" y="263" type="curve" smooth="yes"/>
			<point x="477" y="680" type="line"/>
			<point x="615" y="680" type="line" smooth="yes"/>
			<point x="633" y="680"/>
			<point x="644" y="690"/>
			<point x="644" y="705" type="curve" smooth="yes"/>
			<point x="644" y="720"/>
			<point x="633" y="730"/>
			<point x="615" y="730" type="curve" smooth="yes"/>
			<point x="215" y="730" type="line" smooth="yes"/>
			<point x="197" y="730"/>
			<point x="186" y="720"/>
			<point x="186" y="705" type="curve" smooth="yes"/>
			<point x="186" y="690"/>
			<point x="197" y="680"/>
			<point x="215" y="680" type="curve" smooth="yes"/>
			<point x="357" y="680" type="line"/>
			<point x="357" y="263" type="line" smooth="yes"/>
			<point x="357" y="166"/>
			<point x="357" y="45"/>
			<point x="263" y="45" type="curve" smooth="yes"/>
			<point x="148" y="45"/>
			<point x="163" y="109"/>
			<point x="163" y="112" type="curve"/>
			<point x="163" y="112"/>
			<point x="183" y="155"/>
			<point x="191" y="172" type="curve" smooth="yes"/>
			<point x="204" y="200"/>
			<point x="211" y="241"/>
			<point x="161" y="262" type="curve"/>
			<point x="132" y="276"/>
			<point x="87" y="260"/>
			<point x="70" y="222" type="curve"/>
			<point x="38" y="155"/>
			<point x="94" y="0"/>
			<point x="263" y="0" type="curve" smooth="yes"/>
			<point x="488" y="0"/>
			<point x="477" y="186"/>
		</contour>
	</outline>
</glyph>
<glyph name="K" format="2">
	<advance width="700"/>
	<unicode hex="004B"/>
	<outline>
		<contour>
			<point x="290" y="0" type="line" smooth="yes"/>
			<point x="307" y="0"/>
			<point x="318" y="10"/>
			<point x="318" y="25" type="curve" smooth="yes"/>
			<point x="318" y="40"/>
			<point x="307" y="50"/>
			<point x="290" y="50" type="curve" smooth="yes"/>
			<point x="237" y="50" type="line"/>
			<point x="237" y="282" type="line"/>
			<point x="271" y="326" type="line"/>
			<point x="448" y="50" type="line"/>
			<point x="398" y="50" type="line" smooth="yes"/>
			<point x="381" y="50"/>
			<point x="370" y="40"/>
			<point x="370" y="25" type="curve" smooth="yes"/>
			<point x="370" y="10"/>
			<point x="381" y="0"/>
			<point x="398" y="0" type="curve" smooth="yes"/>
			<point x="642" y="0" type="line" smooth="yes"/>
			<point x="660" y="0"/>
			<point x="671" y="10"/>
			<point x="671" y="25" type="curve" smooth="yes"/>
			<point x="671" y="40"/>
			<point x="660" y="50"/>
			<point x="642" y="50" type="curve" smooth="yes"/>
			<point x="586" y="50" type="line"/>
			<point x="349" y="422" type="line"/>
			<point x="552" y="680" type="line"/>
			<point x="612" y="680" type="line" smooth="yes"/>
			<point x="629" y="680"/>
			<point x="640" y="690"/>
			<point x="640" y="705" type="curve" smooth="yes"/>
			<point x="640" y="720"/>
			<point x="629" y="730"/>
			<point x="612" y="730" type="curve" smooth="yes"/>
			<point x="397" y="730" type="line" smooth="yes"/>
			<point x="380" y="730"/>
			<point x="369" y="720"/>
			<point x="369" y="705" type="curve" smooth="yes"/>
			<point x="369" y="690"/>
			<point x="380" y="680"/>
			<point x="397" y="680" type="curve" smooth="yes"/>
			<point x="472" y="680" type="line"/>
			<point x="237" y="381" type="line"/>
			<point x="237" y="680" type="line"/>
			<point x="289" y="680" type="line" smooth="yes"/>
			<point x="307" y="680"/>
			<point x="318" y="690"/>
			<point x="318" y="705" type="curve" smooth="yes"/>
			<point x="318" y="720"/>
			<point x="307" y="730"/>
			<point x="289" y="730" type="curve" smooth="yes"/>
			<point x="56" y="730" type="line" smooth="yes"/>
			<point x="38" y="730"/>
			<point x="27" y="720"/>
			<point x="27" y="705" type="curve" smooth="yes"/>
			<point x="27" y="690"/>
			<point x="38" y="680"/>
			<point x="56" y="680" type="curve" smooth="yes"/>
			<point x="117" y="680" type="line"/>
			<point x="117" y="50" type="line"/>
			<point x="55" y="50" type="line" smooth="yes"/>
			<point x="38" y="50"/>
			<point x="27" y="40"/>
			<point x="27" y="25" type="curve" smooth="yes"/>
			<point x="27" y="10"/>
			<point x="38" y="0"/>
			<point x="55" y="0" type="curve" smooth="yes"/>
		</contour>
	</outline>
</glyph>
<glyph name="L" format="2">
	<advance width="700"/>
	<unicode hex="004C"/>
	<outline>
		<contour>
			<point x="50" y="25" type="curve" smooth="yes"/>
			<point x="50" y="10"/>
			<point x="61" y="0"/>
			<point x="79" y="0" type="curve" smooth="yes"/>
			<point x="585" y="0" type="line" smooth="yes"/>
			<point x="614" y="0"/>
			<point x="622" y="14"/>
			<point x="624" y="32" type="curve" smooth="yes"/>
			<point x="640" y="230" type="line" smooth="yes"/>
			<point x="642" y="248"/>
			<point x="632" y="261"/>
			<point x="614" y="261" type="curve" smooth="yes"/>
			<point x="596" y="261"/>
			<point x="587" y="248"/>
			<point x="586" y="230" type="curve" smooth="yes"/>
			<point x="582" y="182" type="line" smooth="yes"/>
			<point x="577" y="139"/>
			<point x="564" y="50"/>
			<point x="467" y="50" type="curve" smooth="yes"/>
			<point x="275" y="50" type="line"/>
			<point x="275" y="680" type="line"/>
			<point x="351" y="680" type="line" smooth="yes"/>
			<point x="369" y="680"/>
			<point x="380" y="690"/>
			<point x="380" y="705" type="curve" smooth="yes"/>
			<point x="380" y="720"/>
			<point x="369" y="730"/>
			<point x="351" y="730" type="curve" smooth="yes"/>
			<point x="79" y="730" type="line" smooth="yes"/>
			<point x="61" y="730"/>
			<point x="50" y="720"/>
			<point x="50" y="705" type="curve" smooth="yes"/>
			<point x="50" y="690"/>
			<point x="61" y="680"/>
			<point x="79" y="680" type="curve" smooth="yes"/>
			<point x="155" y="680" type="line"/>
			<point x="155" y="50" type="line"/>
			<point x="79" y="50" type="line" smooth="yes"/>
			<point x="61" y="50"/>
			<point x="50" y="40"/>
		</contour>
	</outline>
</glyph>
<glyph name="M" format="2">
	<advance width="700"/>
	<unicode hex="004D"/>
	<outline>
		<contour>
			<point x="506" y="554" type="line"/>
			<point x="503" y="50" type="line"/>
			<point x="438" y="50" type="line" smooth="yes"/>
			<point x="423" y="50"/>
			<point x="412" y="40"/>
			<point x="412" y="25" type="curve" smooth="yes"/>
			<point x="412" y="10"/>
			<point x="423" y="0"/>
			<point x="438" y="0" type="curve" smooth="yes"/>
			<point x="673" y="0" type="line" smooth="yes"/>
			<point x="691" y="0"/>
			<point x="701" y="10"/>
			<point x="701" y="25" type="curve" smooth="yes"/>
			<point x="701" y="39"/>
			<point x="691" y="50"/>
			<point x="673" y="50" type="curve" smooth="yes"/>
			<point x="623" y="50" type="line"/>
			<point x="624" y="675" type="line"/>
			<point x="672" y="680" type="line" smooth="yes"/>
			<point x="688" y="682"/>
			<point x="701" y="688"/>
			<point x="701" y="705" type="curve" smooth="yes"/>
			<point x="701" y="722"/>
			<point x="688" y="730"/>
			<point x="672" y="730" type="curve" smooth="yes"/>
			<point x="563" y="730" type="line" smooth="yes"/>
			<point x="532" y="730"/>
			<point x="522" y="712"/>
			<point x="507" y="678" type="curve" smooth="yes"/>
			<point x="364" y="359" type="line"/>
			<point x="206" y="678" type="line" smooth="yes"/>
			<point x="189" y="712"/>
			<point x="181" y="730"/>
			<point x="150" y="730" type="curve" smooth="yes"/>
			<point x="43" y="730" type="line" smooth="yes"/>
			<point x="27" y="730"/>
			<point x="14" y="722"/>
			<point x="14" y="705" type="curve" smooth="yes"/>
			<point x="14" y="688"/>
			<point x="27" y="682"/>
			<point x="43" y="680" type="curve" smooth="yes"/>
			<point x="95" y="675" type="line"/>
			<point x="96" y="50" type="line"/>
			<point x="40" y="50" type="line" smooth="yes"/>
			<point x="25" y="50"/>
			<point x="14" y="40"/>
			<point x="14" y="25" type="curve" smooth="yes"/>
			<point x="14" y="10"/>
			<point x="25" y="0"/>
			<point x="40" y="0" type="curve" smooth="yes"/>
			<point x="242" y="0" type="line" smooth="yes"/>
			<point x="260" y="0"/>
			<point x="270" y="10"/>
			<point x="270" y="25" type="curve" smooth="yes"/>
			<point x="270" y="39"/>
			<point x="260" y="50"/>
			<point x="242" y="50" type="curve" smooth="yes"/>
			<point x="156" y="50" type="line"/>
			<point x="156" y="524" type="line"/>
			<point x="285" y="246" type="line" smooth="yes"/>
			<point x="296" y="222"/>
			<point x="303" y="200"/>
			<point x="328" y="200" type="curve" smooth="yes"/>
			<point x="352" y="200"/>
			<point x="359" y="221"/>
			<point x="370" y="246" type="curve" smooth="yes"/>
		</contour>
	</outline>
</glyph>
<glyph name="O" format="2">
	<advance width="700"/>
	<unicode hex="004F"/>
	<outline>
		<contour>
			<point x="351" y="-5" type="curve" smooth="yes"/>
			<point x="509" y="-5"/>
			<point x="641" y="133"/>
			<point x="641" y="365" type="curve" smooth="yes"/>
			<point x="641" y="597"/>
			<point x="509" y="735"/>
			<point x="351" y="735" type="curve" smooth="yes"/>
			<point x="194" y="735"/>
			<point x="60" y="595"/>
			<point x="60" y="365" type="curve" smooth="yes"/>
			<point x="60" y="133"/>
			<point x="192" y="-5"/>
		</contour>
		<contour>
			<point x="351" y="45" type="curve" smooth="yes"/>
			<point x="248" y="45"/>
			<point x="190" y="192"/>
			<point x="190" y="365" type="curve" smooth="yes"/>
			<point x="190" y="537"/>
			<point x="248" y="685"/>
			<point x="351" y="685" type="curve" smooth="yes"/>
			<point x="453" y="685"/>
			<point x="511" y="537"/>
			<point x="511" y="365" type="curve" smooth="yes"/>
			<point x="511" y="192"/>
			<point x="453" y="45"/>
		</contour>
	</outline>
</glyph>
<glyph name="P" format="2">
	<advance width="700"/>
	<unicode hex="0050"/>
	<outline>
		<contour>
			<point x="640" y="533" type="curve" smooth="yes"/>
			<point x="640" y="654"/>
			<point x="550" y="730"/>
			<point x="426" y="730" type="curve" smooth="yes"/>
			<point x="74" y="730" type="line" smooth="yes"/>
			<point x="57" y="730"/>
			<point x="45" y="720"/>
			<point x="45" y="705" type="curve" smooth="yes"/>
			<point x="45" y="692"/>
			<point x="56" y="681"/>
			<point x="74" y="679" type="curve" smooth="yes"/>
			<point x="146" y="671" type="line"/>
			<point x="146" y="50" type="line"/>
			<point x="73" y="50" type="line" smooth="yes"/>
			<point x="55" y="50"/>
			<point x="45" y="39"/>
			<point x="45" y="25" type="curve" smooth="yes"/>
			<point x="45" y="11"/>
			<point x="55" y="0"/>
			<point x="73" y="0" type="curve" smooth="yes"/>
			<point x="339" y="0" type="line" smooth="yes"/>
			<point x="357" y="0"/>
			<point x="367" y="11"/>
			<point x="367" y="25" type="curve" smooth="yes"/>
			<point x="367" y="39"/>
			<point x="357" y="50"/>
			<point x="339" y="50" type="curve" smooth="yes"/>
			<point x="266" y="50" type="line"/>
			<point x="266" y="336" type="line"/>
			<point x="426" y="336" type="line" smooth="yes"/>
			<point x="550" y="336"/>
			<point x="640" y="412"/>
		</contour>
		<contour>
			<point x="366" y="680" type="line" smooth="yes"/>
			<point x="419" y="680"/>
			<point x="520" y="655"/>
			<point x="520" y="533" type="curve" smooth="yes"/>
			<point x="520" y="411"/>
			<point x="419" y="386"/>
			<point x="366" y="386" type="curve" smooth="yes"/>
			<point x="266" y="386" type="line"/>
			<point x="266" y="680" type="line"/>
		</contour>
	</outline>
</glyph>
<glyph name="Q" format="2">
	<advance width="700"/>
	<unicode hex="0051"/>
	<outline>
		<contour>
			<point x="60" y="365" type="curve" smooth="yes"/>
			<point x="60" y="172"/>
			<point x="151" y="44"/>
			<point x="276" y="9" type="curve"/>
			<point x="143" y="-104" type="line" smooth="yes"/>
			<point x="116" y="-127"/>
			<point x="117" y="-153"/>
			<point x="131" y="-170" type="curve"/>
			<point x="149" y="-188"/>
			<point x="176" y="-190"/>
			<point x="203" y="-167" type="curve" smooth="yes"/>
			<point x="231" y="-143"/>
			<point x="251" y="-129"/>
			<point x="271" y="-129" type="curve" smooth="yes"/>
			<point x="332" y="-129"/>
			<point x="395" y="-202"/>
			<point x="464" y="-202" type="curve" smooth="yes"/>
			<point x="490" y="-202"/>
			<point x="547" y="-199"/>
			<point x="583" y="-137" type="curve" smooth="yes"/>
			<point x="603" y="-104" type="line" smooth="yes"/>
			<point x="615" y="-84"/>
			<point x="609" y="-64"/>
			<point x="595" y="-54" type="curve"/>
			<point x="577" y="-43"/>
			<point x="556" y="-49"/>
			<point x="541" y="-74" type="curve" smooth="yes"/>
			<point x="504" y="-131"/>
			<point x="484" y="-136"/>
			<point x="465" y="-136" type="curve" smooth="yes"/>
			<point x="421" y="-136"/>
			<point x="363" y="-70"/>
			<point x="283" y="-62" type="curve"/>
			<point x="354" y="-3" type="line"/>
			<point x="511" y="-3"/>
			<point x="641" y="135"/>
			<point x="641" y="365" type="curve" smooth="yes"/>
			<point x="641" y="597"/>
			<point x="509" y="735"/>
			<point x="351" y="735" type="curve" smooth="yes"/>
			<point x="194" y="735"/>
			<point x="60" y="595"/>
		</contour>
		<contour>
			<point x="190" y="365" type="curve" smooth="yes"/>
			<point x="190" y="537"/>
			<point x="248" y="685"/>
			<point x="351" y="685" type="curve" smooth="yes"/>
			<point x="453" y="685"/>
			<point x="511" y="537"/>
			<point x="511" y="365" type="curve" smooth="yes"/>
			<point x="511" y="192"/>
			<point x="453" y="45"/>
			<point x="351" y="45" type="curve" smooth="yes"/>
			<point x="248" y="45"/>
			<point x="190" y="192"/>
		</contour>
	</outline>
</glyph>
<glyph name="R" format="2">
	<advance width="700"/>
	<unicode hex="0052"/>
	<outline>
		<contour>
			<point x="219" y="336" type="line"/>
			<point x="340" y="336" type="line" smooth="yes"/>
			<point x="368" y="336"/>
			<point x="415" y="313"/>
			<point x="415" y="247" type="curve" smooth="yes"/>
			<point x="415" y="140" type="line" smooth="yes"/>
			<point x="415" y="66"/>
			<point x="441" y="-8"/>
			<point x="554" y="-8" type="curve" smooth="yes"/>
			<point x="614" y="-8"/>
			<point x="658" y="42"/>
			<point x="678" y="91" type="curve" smooth="yes"/>
			<point x="698" y="140"/>
			<point x="702" y="165"/>
			<point x="681" y="173" type="curve"/>
			<point x="663" y="182"/>
			<point x="650" y="170"/>
			<point x="642" y="149" type="curve" smooth="yes"/>
			<point x="625" y="104"/>
			<point x="607" y="47"/>
			<point x="571" y="47" type="curve" smooth="yes"/>
			<point x="534" y="47"/>
			<point x="535" y="119"/>
			<point x="535" y="170" type="curve" smooth="yes"/>
			<point x="535" y="247" type="line" smooth="yes"/>
			<point x="535" y="301"/>
			<point x="510" y="324"/>
			<point x="461" y="343" type="curve"/>
			<point x="557" y="363"/>
			<point x="593" y="432"/>
			<point x="593" y="533" type="curve" smooth="yes"/>
			<point x="593" y="654"/>
			<point x="508" y="730"/>
			<point x="384" y="730" type="curve" smooth="yes"/>
			<point x="35" y="730" type="line" smooth="yes"/>
			<point x="20" y="730"/>
			<point x="8" y="719"/>
			<point x="8" y="705" type="curve" smooth="yes"/>
			<point x="8" y="691"/>
			<point x="20" y="682"/>
			<point x="35" y="680" type="curve" smooth="yes"/>
			<point x="99" y="673" type="line"/>
			<point x="99" y="50" type="line"/>
			<point x="36" y="50" type="line" smooth="yes"/>
			<point x="18" y="50"/>
			<point x="8" y="39"/>
			<point x="8" y="25" type="curve" smooth="yes"/>
			<point x="8" y="11"/>
			<point x="18" y="0"/>
			<point x="36" y="0" type="curve" smooth="yes"/>
			<point x="293" y="0" type="line" smooth="yes"/>
			<point x="311" y="0"/>
			<point x="321" y="11"/>
			<point x="321" y="25" type="curve" smooth="yes"/>
			<point x="321" y="39"/>
			<point x="311" y="50"/>
			<point x="293" y="50" type="curve" smooth="yes"/>
			<point x="219" y="50" type="line"/>
		</contour>
		<contour>
			<point x="473" y="533" type="curve" smooth="yes"/>
			<point x="473" y="411"/>
			<point x="387" y="386"/>
			<point x="324" y="386" type="curve" smooth="yes"/>
			<point x="219" y="386" type="line"/>
			<point x="219" y="680" type="line"/>
			<point x="324" y="680" type="line" smooth="yes"/>
			<point x="387" y="680"/>
			<point x="473" y="655"/>
		</contour>
	</outline>
</glyph>
<glyph name="S" format="2">
	<advance width="700"/>
	<unicode hex="0053"/>
	<outline>
		<contour>
			<point x="220" y="574" type="curve" smooth="yes"/>
			<point x="220" y="643"/>
			<point x="257" y="680"/>
			<point x="327" y="680" type="curve" smooth="yes"/>
			<point x="419" y="680"/>
			<point x="513" y="595"/>
			<point x="549" y="511" type="curve" smooth="yes"/>
			<point x="555" y="497"/>
			<point x="558" y="482"/>
			<point x="575" y="482" type="curve" smooth="yes"/>
			<point x="591" y="482"/>
			<point x="599" y="492"/>
			<point x="599" y="510" type="curve" smooth="yes"/>
			<point x="599" y="607" type="line"/>
			<point x="599" y="707" type="line" smooth="yes"/>
			<point x="599" y="725"/>
			<point x="589" y="736"/>
			<point x="574" y="736" type="curve" smooth="yes"/>
			<point x="556" y="736"/>
			<point x="545" y="726"/>
			<point x="543" y="707" type="curve" smooth="yes"/>
			<point x="537" y="629" type="line"/>
			<point x="482" y="697"/>
			<point x="402" y="730"/>
			<point x="327" y="730" type="curve" smooth="yes"/>
			<point x="198" y="730"/>
			<point x="112" y="652"/>
			<point x="112" y="545" type="curve" smooth="yes"/>
			<point x="112" y="411"/>
			<point x="202" y="370"/>
			<point x="327" y="324" type="curve" smooth="yes"/>
			<point x="415" y="292"/>
			<point x="529" y="248"/>
			<point x="529" y="169" type="curve" smooth="yes"/>
			<point x="529" y="75"/>
			<point x="442" y="40"/>
			<point x="384" y="40" type="curve" smooth="yes"/>
			<point x="298" y="40"/>
			<point x="196" y="114"/>
			<point x="180" y="216" type="curve" smooth="yes"/>
			<point x="173" y="262" type="line" smooth="yes"/>
			<point x="171" y="278"/>
			<point x="165" y="291"/>
			<point x="143" y="291" type="curve" smooth="yes"/>
			<point x="126" y="291"/>
			<point x="118" y="278"/>
			<point x="118" y="262" type="curve" smooth="yes"/>
			<point x="118" y="28" type="line" smooth="yes"/>
			<point x="118" y="10"/>
			<point x="129" y="0"/>
			<point x="143" y="0" type="curve" smooth="yes"/>
			<point x="157" y="0"/>
			<point x="168" y="10"/>
			<point x="168" y="28" type="curve" smooth="yes"/>
			<point x="168" y="99" type="line"/>
			<point x="199" y="45"/>
			<point x="280" y="-10"/>
			<point x="386" y="-10" type="curve" smooth="yes"/>
			<point x="497" y="-10"/>
			<point x="622" y="34"/>
			<point x="622" y="193" type="curve" smooth="yes"/>
			<point x="622" y="360"/>
			<point x="507" y="380"/>
			<point x="376" y="436" type="curve" smooth="yes"/>
			<point x="304" y="467"/>
			<point x="220" y="499"/>
		</contour>
	</outline>
</glyph>
<glyph name="T" format="2">
	<advance width="700"/>
	<unicode hex="0054"/>
	<outline>
		<contour>
			<point x="291" y="680" type="line"/>
			<point x="291" y="50" type="line"/>
			<point x="173" y="50" type="line" smooth="yes"/>
			<point x="155" y="50"/>
			<point x="145" y="39"/>
			<point x="145" y="25" type="curve" smooth="yes"/>
			<point x="145" y="11"/>
			<point x="155" y="0"/>
			<point x="173" y="0" type="curve" smooth="yes"/>
			<point x="529" y="0" type="line" smooth="yes"/>
			<point x="547" y="0"/>
			<point x="557" y="11"/>
			<point x="557" y="25" type="curve" smooth="yes"/>
			<point x="557" y="39"/>
			<point x="547" y="50"/>
			<point x="529" y="50" type="curve" smooth="yes"/>
			<point x="411" y="50" type="line"/>
			<point x="411" y="680" type="line"/>
			<point x="458" y="680" type="line" smooth="yes"/>
			<point x="555" y="680"/>
			<point x="554" y="618"/>
			<point x="563" y="517" type="curve" smooth="yes"/>
			<point x="567" y="470" type="line" smooth="yes"/>
			<point x="568" y="452"/>
			<point x="574" y="439"/>
			<point x="593" y="439" type="curve" smooth="yes"/>
			<point x="612" y="439"/>
			<point x="621" y="452"/>
			<point x="621" y="470" type="curve"/>
			<point x="615" y="698" type="line"/>
			<point x="615" y="716"/>
			<point x="606" y="731"/>
			<point x="587" y="731" type="curve" smooth="yes"/>
			<point x="115" y="730" type="line" smooth="yes"/>
			<point x="97" y="730"/>
			<point x="87" y="716"/>
			<point x="87" y="698" type="curve" smooth="yes"/>
			<point x="81" y="470" type="line" smooth="yes"/>
			<point x="81" y="452"/>
			<point x="90" y="439"/>
			<point x="109" y="439" type="curve" smooth="yes"/>
			<point x="128" y="439"/>
			<point x="134" y="452"/>
			<point x="135" y="470" type="curve" smooth="yes"/>
			<point x="139" y="518" type="line" smooth="yes"/>
			<point x="148" y="619"/>
			<point x="147" y="680"/>
			<point x="244" y="680" type="curve" smooth="yes"/>
		</contour>
	</outline>
</glyph>
<glyph name="U" format="2">
	<advance width="700"/>
	<unicode hex="0055"/>
	<outline>
		<contour>
			<point x="11" y="705" type="curve" smooth="yes"/>
			<point x="11" y="691"/>
			<point x="21" y="680"/>
			<point x="39" y="680" type="curve" smooth="yes"/>
			<point x="110" y="680" type="line"/>
			<point x="110" y="297" type="line" smooth="yes"/>
			<point x="110" y="81"/>
			<point x="191" y="0"/>
			<point x="373" y="0" type="curve" smooth="yes"/>
			<point x="505" y="0"/>
			<point x="581" y="81"/>
			<point x="581" y="297" type="curve" smooth="yes"/>
			<point x="581" y="680" type="line"/>
			<point x="642" y="680" type="line" smooth="yes"/>
			<point x="660" y="680"/>
			<point x="670" y="691"/>
			<point x="670" y="705" type="curve" smooth="yes"/>
			<point x="670" y="719"/>
			<point x="660" y="730"/>
			<point x="642" y="730" type="curve" smooth="yes"/>
			<point x="460" y="730" type="line" smooth="yes"/>
			<point x="442" y="730"/>
			<point x="432" y="719"/>
			<point x="432" y="705" type="curve" smooth="yes"/>
			<point x="432" y="691"/>
			<point x="442" y="680"/>
			<point x="460" y="680" type="curve" smooth="yes"/>
			<point x="521" y="680" type="line"/>
			<point x="521" y="270" type="line" smooth="yes"/>
			<point x="521" y="132"/>
			<point x="475" y="50"/>
			<point x="373" y="50" type="curve" smooth="yes"/>
			<point x="291" y="50"/>
			<point x="230" y="92"/>
			<point x="230" y="270" type="curve" smooth="yes"/>
			<point x="230" y="680" type="line"/>
			<point x="301" y="680" type="line" smooth="yes"/>
			<point x="319" y="680"/>
			<point x="329" y="691"/>
			<point x="329" y="705" type="curve" smooth="yes"/>
			<point x="329" y="719"/>
			<point x="319" y="730"/>
			<point x="301" y="730" type="curve" smooth="yes"/>
			<point x="39" y="730" type="line" smooth="yes"/>
			<point x="21" y="730"/>
			<point x="11" y="719"/>
		</contour>
	</outline>
</glyph>
<glyph name="V" format="2">
	<advance width="700"/>
	<unicode hex="0056"/>
	<outline>
		<contour>
			<point x="388" y="223" type="line"/>
			<point x="244" y="680" type="line"/>
			<point x="339" y="680" type="line" smooth="yes"/>
			<point x="356" y="680"/>
			<point x="367" y="689"/>
			<point x="367" y="705" type="curve" smooth="yes"/>
			<point x="367" y="720"/>
			<point x="356" y="730"/>
			<point x="339" y="730" type="curve" smooth="yes"/>
			<point x="45" y="730" type="line" smooth="yes"/>
			<point x="27" y="730"/>
			<point x="17" y="719"/>
			<point x="17" y="705" type="curve" smooth="yes"/>
			<point x="17" y="691"/>
			<point x="27" y="680"/>
			<point x="45" y="680" type="curve" smooth="yes"/>
			<point x="119" y="680" type="line"/>
			<point x="328" y="21" type="line" smooth="yes"/>
			<point x="332" y="7"/>
			<point x="343" y="0"/>
			<point x="353" y="0" type="curve" smooth="yes"/>
			<point x="364" y="0"/>
			<point x="375" y="7"/>
			<point x="379" y="21" type="curve"/>
			<point x="574" y="680" type="line"/>
			<point x="643" y="680" type="line" smooth="yes"/>
			<point x="658" y="680"/>
			<point x="668" y="691"/>
			<point x="668" y="705" type="curve" smooth="yes"/>
			<point x="668" y="719"/>
			<point x="658" y="730"/>
			<point x="643" y="730" type="curve" smooth="yes"/>
			<point x="452" y="730" type="line" smooth="yes"/>
			<point x="435" y="730"/>
			<point x="424" y="720"/>
			<point x="424" y="705" type="curve" smooth="yes"/>
			<point x="424" y="689"/>
			<point x="435" y="680"/>
			<point x="452" y="680" type="curve" smooth="yes"/>
			<point x="521" y="680" type="line"/>
		</contour>
	</outline>
</glyph>
<glyph name="W" format="2">
	<advance width="700"/>
	<unicode hex="0057"/>
	<outline>
		<contour>
			<point x="378" y="523" type="curve" smooth="yes"/>
			<point x="367" y="523"/>
			<point x="357" y="515"/>
			<point x="355" y="507" type="curve" smooth="yes"/>
			<point x="297" y="275" type="line"/>
			<point x="208" y="680" type="line"/>
			<point x="258" y="680" type="line" smooth="yes"/>
			<point x="273" y="680"/>
			<point x="285" y="691"/>
			<point x="285" y="705" type="curve" smooth="yes"/>
			<point x="285" y="719"/>
			<point x="273" y="730"/>
			<point x="258" y="730" type="curve" smooth="yes"/>
			<point x="58" y="730" type="line" smooth="yes"/>
			<point x="43" y="730"/>
			<point x="31" y="719"/>
			<point x="31" y="705" type="curve" smooth="yes"/>
			<point x="31" y="691"/>
			<point x="43" y="680"/>
			<point x="58" y="680" type="curve" smooth="yes"/>
			<point x="88" y="680" type="line"/>
			<point x="235" y="9" type="line" smooth="yes"/>
			<point x="237" y="1"/>
			<point x="247" y="-7"/>
			<point x="258" y="-7" type="curve" smooth="yes"/>
			<point x="273" y="-7"/>
			<point x="281" y="1"/>
			<point x="282" y="9" type="curve"/>
			<point x="349" y="283" type="line"/>
			<point x="426" y="9" type="line" smooth="yes"/>
			<point x="428" y="1"/>
			<point x="435" y="-7"/>
			<point x="450" y="-7" type="curve" smooth="yes"/>
			<point x="461" y="-7"/>
			<point x="471" y="1"/>
			<point x="473" y="9" type="curve"/>
			<point x="602" y="680" type="line"/>
			<point x="632" y="680" type="line" smooth="yes"/>
			<point x="647" y="680"/>
			<point x="659" y="691"/>
			<point x="659" y="705" type="curve" smooth="yes"/>
			<point x="659" y="719"/>
			<point x="647" y="730"/>
			<point x="632" y="730" type="curve" smooth="yes"/>
			<point x="480" y="730" type="line" smooth="yes"/>
			<point x="465" y="730"/>
			<point x="453" y="719"/>
			<point x="453" y="705" type="curve" smooth="yes"/>
			<point x="453" y="691"/>
			<point x="465" y="680"/>
			<point x="480" y="680" type="curve" smooth="yes"/>
			<point x="550" y="680" type="line"/>
			<point x="473" y="275" type="line"/>
			<point x="402" y="507" type="line"/>
			<point x="400" y="515"/>
			<point x="393" y="523"/>
		</contour>
	</outline>
</glyph>
<glyph name="X" format="2">
	<advance width="700"/>
	<unicode hex="0058"/>
	<outline>
		<contour>
			<point x="45" y="25" type="curve" smooth="yes"/>
			<point x="45" y="11"/>
			<point x="55" y="0"/>
			<point x="73" y="0" type="curve" smooth="yes"/>
			<point x="262" y="0" type="line" smooth="yes"/>
			<point x="279" y="0"/>
			<point x="290" y="10"/>
			<point x="290" y="25" type="curve" smooth="yes"/>
			<point x="290" y="40"/>
			<point x="279" y="50"/>
			<point x="262" y="50" type="curve" smooth="yes"/>
			<point x="196" y="50" type="line"/>
			<point x="331" y="280" type="line"/>
			<point x="446" y="50" type="line"/>
			<point x="394" y="50" type="line" smooth="yes"/>
			<point x="376" y="50"/>
			<point x="366" y="39"/>
			<point x="366" y="25" type="curve" smooth="yes"/>
			<point x="366" y="11"/>
			<point x="376" y="0"/>
			<point x="394" y="0" type="curve" smooth="yes"/>
			<point x="644" y="0" type="line" smooth="yes"/>
			<point x="661" y="0"/>
			<point x="672" y="10"/>
			<point x="672" y="25" type="curve" smooth="yes"/>
			<point x="672" y="40"/>
			<point x="661" y="50"/>
			<point x="644" y="50" type="curve" smooth="yes"/>
			<point x="581" y="50" type="line"/>
			<point x="402" y="403" type="line"/>
			<point x="564" y="680" type="line"/>
			<point x="634" y="680" type="line" smooth="yes"/>
			<point x="651" y="680"/>
			<point x="662" y="690"/>
			<point x="662" y="705" type="curve" smooth="yes"/>
			<point x="662" y="720"/>
			<point x="651" y="730"/>
			<point x="634" y="730" type="curve" smooth="yes"/>
			<point x="427" y="730" type="line" smooth="yes"/>
			<point x="409" y="730"/>
			<point x="399" y="719"/>
			<point x="399" y="705" type="curve" smooth="yes"/>
			<point x="399" y="691"/>
			<point x="409" y="680"/>
			<point x="427" y="680" type="curve" smooth="yes"/>
			<point x="494" y="680" type="line"/>
			<point x="370" y="468" type="line"/>
			<point x="263" y="680" type="line"/>
			<point x="304" y="680" type="line" smooth="yes"/>
			<point x="321" y="680"/>
			<point x="332" y="690"/>
			<point x="332" y="705" type="curve" smooth="yes"/>
			<point x="332" y="720"/>
			<point x="321" y="730"/>
			<point x="304" y="730" type="curve" smooth="yes"/>
			<point x="58" y="730" type="line" smooth="yes"/>
			<point x="40" y="730"/>
			<point x="30" y="719"/>
			<point x="30" y="705" type="curve" smooth="yes"/>
			<point x="30" y="691"/>
			<point x="40" y="680"/>
			<point x="58" y="680" type="curve" smooth="yes"/>
			<point x="129" y="680" type="line"/>
			<point x="298" y="344" type="line"/>
			<point x="126" y="50" type="line"/>
			<point x="73" y="50" type="line" smooth="yes"/>
			<point x="55" y="50"/>
			<point x="45" y="39"/>
		</contour>
	</outline>
</glyph>
<glyph name="Y" format="2">
	<advance width="700"/>
	<unicode hex="0059"/>
	<outline>
		<contour>
			<point x="36" y="705" type="curve" smooth="yes"/>
			<point x="36" y="690"/>
			<point x="47" y="680"/>
			<point x="62" y="680" type="curve" smooth="yes"/>
			<point x="124" y="680" type="line"/>
			<point x="276" y="335" type="line"/>
			<point x="276" y="50" type="line"/>
			<point x="157" y="50" type="line" smooth="yes"/>
			<point x="140" y="50"/>
			<point x="130" y="40"/>
			<point x="130" y="25" type="curve" smooth="yes"/>
			<point x="130" y="10"/>
			<point x="140" y="0"/>
			<point x="157" y="0" type="curve" smooth="yes"/>
			<point x="520" y="0" type="line" smooth="yes"/>
			<point x="536" y="0"/>
			<point x="547" y="10"/>
			<point x="547" y="25" type="curve" smooth="yes"/>
			<point x="547" y="40"/>
			<point x="536" y="50"/>
			<point x="520" y="50" type="curve" smooth="yes"/>
			<point x="401" y="50" type="line"/>
			<point x="401" y="341" type="line"/>
			<point x="566" y="680" type="line"/>
			<point x="635" y="680" type="line" smooth="yes"/>
			<point x="653" y="680"/>
			<point x="663" y="690"/>
			<point x="663" y="705" type="curve" smooth="yes"/>
			<point x="663" y="719"/>
			<point x="653" y="730"/>
			<point x="635" y="730" type="curve" smooth="yes"/>
			<point x="426" y="730" type="line" smooth="yes"/>
			<point x="411" y="730"/>
			<point x="400" y="720"/>
			<point x="400" y="705" type="curve" smooth="yes"/>
			<point x="400" y="690"/>
			<point x="411" y="680"/>
			<point x="426" y="680" type="curve" smooth="yes"/>
			<point x="496" y="680" type="line"/>
			<point x="375" y="421" type="line"/>
			<point x="269" y="680" type="line"/>
			<point x="307" y="680" type="line" smooth="yes"/>
			<point x="322" y="680"/>
			<point x="333" y="690"/>
			<point x="333" y="705" type="curve" smooth="yes"/>
			<point x="333" y="720"/>
			<point x="322" y="730"/>
			<point x="307" y="730" type="curve" smooth="yes"/>
			<point x="62" y="730" type="line" smooth="yes"/>
			<point x="47" y="730"/>
			<point x="36" y="720"/>
		</contour>
	</outline>
</glyph>
<glyph name="Z" format="2">
	<advance width="700"/>
	<unicode hex="005A"/>
	<outline>
		<contour>
			<point x="279" y="680" type="curve" smooth="yes"/>
			<point x="485" y="680" type="line"/>
			<point x="94" y="54" type="line" smooth="yes"/>
			<point x="86" y="41"/>
			<point x="78" y="29"/>
			<point x="85" y="15" type="curve" smooth="yes"/>
			<point x="93" y="0"/>
			<point x="111" y="0"/>
			<point x="139" y="0" type="curve" smooth="yes"/>
			<point x="573" y="0" type="line" smooth="yes"/>
			<point x="592" y="0"/>
			<point x="601" y="14"/>
			<point x="601" y="32" type="curve"/>
			<point x="619" y="214" type="line"/>
			<point x="619" y="232"/>
			<point x="610" y="245"/>
			<point x="591" y="245" type="curve" smooth="yes"/>
			<point x="572" y="245"/>
			<point x="567" y="232"/>
			<point x="565" y="214" type="curve" smooth="yes"/>
			<point x="559" y="167" type="line"/>
			<point x="547" y="94"/>
			<point x="526" y="50"/>
			<point x="445" y="50" type="curve" smooth="yes"/>
			<point x="231" y="50" type="line"/>
			<point x="625" y="676" type="line" smooth="yes"/>
			<point x="633" y="689"/>
			<point x="641" y="702"/>
			<point x="634" y="715" type="curve" smooth="yes"/>
			<point x="626" y="729"/>
			<point x="611" y="730"/>
			<point x="588" y="730" type="curve"/>
			<point x="151" y="730" type="line"/>
			<point x="132" y="730"/>
			<point x="122" y="715"/>
			<point x="122" y="698" type="curve"/>
			<point x="105" y="516" type="line"/>
			<point x="105" y="499"/>
			<point x="114" y="485"/>
			<point x="133" y="485" type="curve" smooth="yes"/>
			<point x="152" y="485"/>
			<point x="157" y="499"/>
			<point x="159" y="516" type="curve" smooth="yes"/>
			<point x="168" y="578" type="line"/>
			<point x="180" y="642"/>
			<point x="204" y="680"/>
		</contour>
	</outline>
</glyph>
<glyph name="bracketleft" format="2">
	<advance width="700"/>
	<unicode hex="005B"/>
	<outline>
		<contour>
			<point x="233" y="0" type="curve" smooth="yes"/>
			<point x="465" y="0" type="line" smooth="yes"/>
			<point x="480" y="0"/>
			<point x="492" y="16"/>
			<point x="492" y="30" type="curve" smooth="yes"/>
			<point x="492" y="44"/>
			<point x="480" y="59"/>
			<point x="465" y="60" type="curve" smooth="yes"/>
			<point x="326" y="70" type="line"/>
			<point x="326" y="660" type="line"/>
			<point x="465" y="670" type="line" smooth="yes"/>
			<point x="480" y="671"/>
			<point x="492" y="676"/>
			<point x="492" y="700" type="curve" smooth="yes"/>
			<point x="492" y="714"/>
			<point x="480" y="730"/>
			<point x="465" y="730" type="curve" smooth="yes"/>
			<point x="233" y="730" type="line" smooth="yes"/>
			<point x="207" y="730"/>
			<point x="206" y="716"/>
			<point x="206" y="699" type="curve" smooth="yes"/>
			<point x="206" y="31" type="line" smooth="yes"/>
			<point x="206" y="14"/>
			<point x="207" y="0"/>
		</contour>
	</outline>
</glyph>
<glyph name="backslash" format="2">
	<advance width="700"/>
	<unicode hex="005C"/>
	<outline>
		<contour>
			<point x="141" y="833" type="line" smooth="yes"/>
			<point x="132" y="853"/>
			<point x="121" y="874"/>
			<point x="97" y="872" type="curve" smooth="yes"/>
			<point x="63" y="869"/>
			<point x="58" y="844"/>
			<point x="73" y="812" type="curve" smooth="yes"/>
			<point x="506" y="-111" type="line" smooth="yes"/>
			<point x="515" y="-131"/>
			<point x="526" y="-153"/>
			<point x="549" y="-150" type="curve" smooth="yes"/>
			<point x="584" y="-145"/>
			<point x="588" y="-121"/>
			<point x="574" y="-90" type="curve" smooth="yes"/>
		</contour>
	</outline>
</glyph>
<glyph name="bracketright" format="2">
	<advance width="700"/>
	<unicode hex="005D"/>
	<outline>
		<contour>
			<point x="465" y="0" type="line" smooth="yes"/>
			<point x="491" y="0"/>
			<point x="492" y="14"/>
			<point x="492" y="31" type="curve" smooth="yes"/>
			<point x="492" y="699" type="line" smooth="yes"/>
			<point x="492" y="716"/>
			<point x="491" y="730"/>
			<point x="465" y="730" type="curve" smooth="yes"/>
			<point x="233" y="730" type="line" smooth="yes"/>
			<point x="218" y="730"/>
			<point x="206" y="714"/>
			<point x="206" y="700" type="curve" smooth="yes"/>
			<point x="206" y="676"/>
			<point x="218" y="671"/>
			<point x="233" y="670" type="curve" smooth="yes"/>
			<point x="372" y="660" type="line"/>
			<point x="372" y="70" type="line"/>
			<point x="233" y="60" type="line" smooth="yes"/>
			<point x="218" y="59"/>
			<point x="206" y="44"/>
			<point x="206" y="30" type="curve" smooth="yes"/>
			<point x="206" y="16"/>
			<point x="218" y="0"/>
			<point x="233" y="0" type="curve" smooth="yes"/>
		</contour>
	</outline>
</glyph>
<glyph name="underscore" format="2">
	<advance width="700"/>
	<unicode hex="005F"/>
	<outline>
		<contour>
			<point x="109" y="0" type="curve" smooth="yes"/>
			<point x="591" y="0" type="line" smooth="yes"/>
			<point x="621" y="0"/>
			<point x="638" y="3"/>
			<point x="638" y="41" type="curve" smooth="yes"/>
			<point x="638" y="79" type="line" smooth="yes"/>
			<point x="638" y="117"/>
			<point x="621" y="120"/>
			<point x="591" y="120" type="curve" smooth="yes"/>
			<point x="109" y="120" type="line" smooth="yes"/>
			<point x="79" y="120"/>
			<point x="62" y="117"/>
			<point x="62" y="79" type="curve" smooth="yes"/>
			<point x="62" y="41" type="line" smooth="yes"/>
			<point x="62" y="3"/>
			<point x="79" y="0"/>
		</contour>
	</outline>
</glyph>
<glyph name="b" format="2">
	<advance width="700"/>
	<unicode hex="0062"/>
	<outline>
		<contour>
			<point x="112" y="672" type="line"/>
			<point x="112" y="24" type="line" smooth="yes"/>
			<point x="112" y="5"/>
			<point x="112" y="0"/>
			<point x="127" y="0" type="curve" smooth="yes"/>
			<point x="205" y="0" type="line" smooth="yes"/>
			<point x="219" y="0"/>
			<point x="220" y="1"/>
			<point x="247" y="35" type="curve"/>
			<point x="270" y="23"/>
			<point x="307" y="-8"/>
			<point x="375" y="-8" type="curve" smooth="yes"/>
			<point x="545" y="-8"/>
			<point x="615" y="128"/>
			<point x="615" y="254" type="curve" smooth="yes"/>
			<point x="615" y="404"/>
			<point x="531" y="508"/>
			<point x="386" y="508" type="curve" smooth="yes"/>
			<point x="355" y="508"/>
			<point x="312" y="495"/>
			<point x="280" y="480" type="curve" smooth="yes"/>
			<point x="247" y="465" type="line"/>
			<point x="247" y="699" type="line" smooth="yes"/>
			<point x="247" y="723"/>
			<point x="238" y="730"/>
			<point x="216" y="730" type="curve" smooth="yes"/>
			<point x="42" y="730" type="line" smooth="yes"/>
			<point x="25" y="730"/>
			<point x="13" y="720"/>
			<point x="13" y="705" type="curve" smooth="yes"/>
			<point x="13" y="692"/>
			<point x="24" y="681"/>
			<point x="42" y="679" type="curve" smooth="yes"/>
		</contour>
		<contour>
			<point x="247" y="361" type="line"/>
			<point x="263" y="378" type="line" smooth="yes"/>
			<point x="269" y="384"/>
			<point x="325" y="448"/>
			<point x="374" y="448" type="curve" smooth="yes"/>
			<point x="452" y="448"/>
			<point x="480" y="372"/>
			<point x="480" y="254" type="curve" smooth="yes"/>
			<point x="480" y="154"/>
			<point x="460" y="57"/>
			<point x="374" y="57" type="curve" smooth="yes"/>
			<point x="337" y="57"/>
			<point x="305" y="71"/>
			<point x="268" y="106" type="curve" smooth="yes"/>
			<point x="250" y="123"/>
			<point x="247" y="131"/>
			<point x="247" y="162" type="curve" smooth="yes"/>
		</contour>
	</outline>
</glyph>
<glyph name="c" format="2">
	<advance width="700"/>
	<unicode hex="0063"/>
	<outline>
		<contour>
			<point x="107" y="247" type="curve" smooth="yes"/>
			<point x="107" y="57"/>
			<point x="254" y="-5"/>
			<point x="361" y="-5" type="curve" smooth="yes"/>
			<point x="425" y="-5"/>
			<point x="501" y="14"/>
			<point x="554" y="84" type="curve" smooth="yes"/>
			<point x="590" y="131"/>
			<point x="596" y="149"/>
			<point x="581" y="162" type="curve" smooth="yes"/>
			<point x="569" y="172"/>
			<point x="554" y="172"/>
			<point x="537" y="151" type="curve" smooth="yes"/>
			<point x="497" y="101"/>
			<point x="444" y="45"/>
			<point x="372" y="45" type="curve" smooth="yes"/>
			<point x="259" y="45"/>
			<point x="237" y="161"/>
			<point x="237" y="247" type="curve" smooth="yes"/>
			<point x="237" y="342"/>
			<point x="265" y="460"/>
			<point x="380" y="460" type="curve" smooth="yes"/>
			<point x="407" y="460"/>
			<point x="427" y="455"/>
			<point x="441" y="442" type="curve"/>
			<point x="441" y="435"/>
			<point x="441" y="392"/>
			<point x="441" y="365" type="curve" smooth="yes"/>
			<point x="441" y="338"/>
			<point x="450" y="293"/>
			<point x="512" y="293" type="curve" smooth="yes"/>
			<point x="560" y="293"/>
			<point x="583" y="324"/>
			<point x="583" y="370" type="curve" smooth="yes"/>
			<point x="583" y="455"/>
			<point x="477" y="510"/>
			<point x="380" y="510" type="curve" smooth="yes"/>
			<point x="286" y="510"/>
			<point x="107" y="457"/>
		</contour>
	</outline>
</glyph>
<glyph name="d" format="2">
	<advance width="700"/>
	<unicode hex="0064"/>
	<outline>
		<contour>
			<point x="277" y="508" type="curve"/>
			<point x="132" y="508"/>
			<point x="48" y="404"/>
			<point x="48" y="254" type="curve" smooth="yes"/>
			<point x="48" y="128"/>
			<point x="118" y="-8"/>
			<point x="288" y="-8" type="curve" smooth="yes"/>
			<point x="356" y="-8"/>
			<point x="393" y="23"/>
			<point x="416" y="35" type="curve"/>
			<point x="443" y="1"/>
			<point x="444" y="0"/>
			<point x="458" y="0" type="curve" smooth="yes"/>
			<point x="641" y="0" type="line" smooth="yes"/>
			<point x="658" y="0"/>
			<point x="668" y="11"/>
			<point x="668" y="25" type="curve" smooth="yes"/>
			<point x="668" y="39"/>
			<point x="658" y="50"/>
			<point x="641" y="50" type="curve" smooth="yes"/>
			<point x="550" y="50" type="line"/>
			<point x="550" y="699" type="line" smooth="yes"/>
			<point x="550" y="723"/>
			<point x="541" y="730"/>
			<point x="519" y="730" type="curve" smooth="yes"/>
			<point x="345" y="730" type="line" smooth="yes"/>
			<point x="328" y="730"/>
			<point x="316" y="720"/>
			<point x="316" y="705" type="curve" smooth="yes"/>
			<point x="316" y="692"/>
			<point x="327" y="681"/>
			<point x="345" y="679" type="curve" smooth="yes"/>
			<point x="415" y="672" type="line"/>
			<point x="415" y="465" type="line"/>
			<point x="383" y="480" type="line" smooth="yes"/>
			<point x="351" y="495"/>
			<point x="308" y="508"/>
		</contour>
		<contour>
			<point x="416" y="361" type="line"/>
			<point x="416" y="162" type="line" smooth="yes"/>
			<point x="416" y="131"/>
			<point x="413" y="123"/>
			<point x="395" y="106" type="curve" smooth="yes"/>
			<point x="358" y="71"/>
			<point x="326" y="57"/>
			<point x="289" y="57" type="curve" smooth="yes"/>
			<point x="203" y="57"/>
			<point x="183" y="154"/>
			<point x="183" y="254" type="curve" smooth="yes"/>
			<point x="183" y="372"/>
			<point x="211" y="448"/>
			<point x="289" y="448" type="curve" smooth="yes"/>
			<point x="338" y="448"/>
			<point x="394" y="384"/>
			<point x="400" y="378" type="curve" smooth="yes"/>
		</contour>
	</outline>
</glyph>
<glyph name="e" format="2">
	<advance width="700"/>
	<unicode hex="0065"/>
	<outline>
		<contour>
			<point x="375" y="55" type="curve" smooth="yes"/>
			<point x="272" y="55"/>
			<point x="243" y="140"/>
			<point x="243" y="226" type="curve"/>
			<point x="573" y="226" type="line" smooth="yes"/>
			<point x="579" y="226"/>
			<point x="594" y="226"/>
			<point x="594" y="243" type="curve" smooth="yes"/>
			<point x="594" y="412"/>
			<point x="488" y="509"/>
			<point x="358" y="509" type="curve" smooth="yes"/>
			<point x="200" y="509"/>
			<point x="107" y="375"/>
			<point x="107" y="247" type="curve" smooth="yes"/>
			<point x="107" y="77"/>
			<point x="245" y="-5"/>
			<point x="369" y="-5" type="curve" smooth="yes"/>
			<point x="443" y="-5"/>
			<point x="492" y="18"/>
			<point x="548" y="77" type="curve" smooth="yes"/>
			<point x="586" y="117"/>
			<point x="596" y="147"/>
			<point x="573" y="161" type="curve" smooth="yes"/>
			<point x="557" y="171"/>
			<point x="541" y="164"/>
			<point x="528" y="148" type="curve" smooth="yes"/>
			<point x="488" y="99"/>
			<point x="445" y="55"/>
		</contour>
		<contour>
			<point x="246" y="329" type="curve" smooth="yes"/>
			<point x="255" y="387"/>
			<point x="281" y="459"/>
			<point x="359" y="459" type="curve" smooth="yes"/>
			<point x="450" y="459"/>
			<point x="462" y="354"/>
			<point x="462" y="297" type="curve"/>
			<point x="261" y="297" type="line" smooth="yes"/>
			<point x="243" y="297"/>
			<point x="244" y="316"/>
		</contour>
	</outline>
</glyph>
<glyph name="f" format="2">
	<advance width="700"/>
	<unicode hex="0066"/>
	<outline>
		<contour>
			<point x="501" y="631" type="curve"/>
			<point x="498" y="619"/>
			<point x="498" y="619"/>
			<point x="487" y="572" type="curve" smooth="yes"/>
			<point x="478" y="532"/>
			<point x="511" y="491"/>
			<point x="560" y="491" type="curve" smooth="yes"/>
			<point x="593" y="491"/>
			<point x="623" y="508"/>
			<point x="634" y="553" type="curve" smooth="yes"/>
			<point x="654" y="633"/>
			<point x="596" y="733"/>
			<point x="443" y="733" type="curve" smooth="yes"/>
			<point x="290" y="733"/>
			<point x="238" y="613"/>
			<point x="238" y="529" type="curve" smooth="yes"/>
			<point x="238" y="489" type="line"/>
			<point x="126" y="489" type="line" smooth="yes"/>
			<point x="111" y="489"/>
			<point x="100" y="478"/>
			<point x="100" y="464" type="curve" smooth="yes"/>
			<point x="100" y="450"/>
			<point x="111" y="439"/>
			<point x="126" y="439" type="curve" smooth="yes"/>
			<point x="238" y="439" type="line"/>
			<point x="239" y="50" type="line"/>
			<point x="127" y="50" type="line" smooth="yes"/>
			<point x="112" y="50"/>
			<point x="100" y="39"/>
			<point x="100" y="25" type="curve" smooth="yes"/>
			<point x="100" y="11"/>
			<point x="112" y="0"/>
			<point x="127" y="0" type="curve" smooth="yes"/>
			<point x="477" y="0" type="line" smooth="yes"/>
			<point x="492" y="0"/>
			<point x="504" y="11"/>
			<point x="504" y="25" type="curve" smooth="yes"/>
			<point x="504" y="39"/>
			<point x="492" y="50"/>
			<point x="477" y="50" type="curve" smooth="yes"/>
			<point x="369" y="50" type="line"/>
			<point x="369" y="439" type="line"/>
			<point x="477" y="439" type="line" smooth="yes"/>
			<point x="492" y="439"/>
			<point x="504" y="450"/>
			<point x="504" y="464" type="curve" smooth="yes"/>
			<point x="504" y="478"/>
			<point x="492" y="489"/>
			<point x="477" y="489" type="curve" smooth="yes"/>
			<point x="369" y="489" type="line"/>
			<point x="369" y="566" type="line" smooth="yes"/>
			<point x="369" y="605"/>
			<point x="370" y="684"/>
			<point x="443" y="683" type="curve" smooth="yes"/>
			<point x="518" y="682"/>
			<point x="502" y="636"/>
		</contour>
	</outline>
</glyph>
<glyph name="g" format="2">
	<advance width="700"/>
	<unicode hex="0067"/>
	<outline>
		<contour>
			<point x="335" y="122" type="curve" smooth="yes"/>
			<point x="452" y="122"/>
			<point x="541" y="208"/>
			<point x="541" y="316" type="curve" smooth="yes"/>
			<point x="541" y="422"/>
			<point x="457" y="510"/>
			<point x="335" y="510" type="curve" smooth="yes"/>
			<point x="217" y="510"/>
			<point x="129" y="422"/>
			<point x="129" y="316" type="curve" smooth="yes"/>
			<point x="129" y="208"/>
			<point x="217" y="122"/>
		</contour>
		<contour>
			<point x="335" y="172" type="curve" smooth="yes"/>
			<point x="279" y="172"/>
			<point x="259" y="250"/>
			<point x="259" y="316" type="curve" smooth="yes"/>
			<point x="259" y="382"/>
			<point x="279" y="460"/>
			<point x="335" y="460" type="curve" smooth="yes"/>
			<point x="391" y="460"/>
			<point x="411" y="382"/>
			<point x="411" y="316" type="curve" smooth="yes"/>
			<point x="411" y="250"/>
			<point x="391" y="172"/>
		</contour>
		<contour>
			<point x="485" y="-89" type="curve" smooth="yes"/>
			<point x="478" y="-126"/>
			<point x="423" y="-160"/>
			<point x="293" y="-160" type="curve" smooth="yes"/>
			<point x="160" y="-160"/>
			<point x="157" y="-125"/>
			<point x="157" y="-95" type="curve" smooth="yes"/>
			<point x="157" y="-79"/>
			<point x="180" y="-35"/>
			<point x="258" y="-34" type="curve"/>
			<point x="180" y="9" type="line"/>
			<point x="113" y="-4"/>
			<point x="76" y="-49"/>
			<point x="76" y="-95" type="curve" smooth="yes"/>
			<point x="76" y="-170"/>
			<point x="144" y="-220"/>
			<point x="293" y="-220" type="curve" smooth="yes"/>
			<point x="488" y="-220"/>
			<point x="578" y="-157"/>
			<point x="578" y="-52" type="curve" smooth="yes"/>
			<point x="578" y="37"/>
			<point x="488" y="76"/>
			<point x="365" y="76" type="curve" smooth="yes"/>
			<point x="341" y="76"/>
			<point x="333" y="76"/>
			<point x="253" y="76" type="curve"/>
			<point x="244" y="76" type="line" smooth="yes"/>
			<point x="228" y="76"/>
			<point x="169" y="72"/>
			<point x="169" y="96" type="curve" smooth="yes"/>
			<point x="169" y="109"/>
			<point x="178" y="119"/>
			<point x="194" y="136" type="curve" smooth="yes"/>
			<point x="209" y="152"/>
			<point x="227" y="166"/>
			<point x="249" y="185" type="curve"/>
			<point x="195" y="228" type="line"/>
			<point x="175" y="210"/>
			<point x="144" y="180"/>
			<point x="117" y="149" type="curve" smooth="yes"/>
			<point x="101" y="131"/>
			<point x="88" y="106"/>
			<point x="88" y="85" type="curve" smooth="yes"/>
			<point x="88" y="19"/>
			<point x="144" y="-34"/>
			<point x="244" y="-34" type="curve" smooth="yes"/>
			<point x="269" y="-34"/>
			<point x="296" y="-34"/>
			<point x="357" y="-34" type="curve" smooth="yes"/>
			<point x="445" y="-34"/>
			<point x="494" y="-42"/>
		</contour>
		<contour>
			<point x="569" y="515" type="curve" smooth="yes"/>
			<point x="532" y="515"/>
			<point x="482" y="494"/>
			<point x="482" y="407" type="curve" smooth="yes"/>
			<point x="482" y="384" type="line"/>
			<point x="485" y="384"/>
			<point x="516" y="384"/>
			<point x="539" y="384" type="curve" smooth="yes"/>
			<point x="558" y="384"/>
			<point x="574" y="384"/>
			<point x="574" y="384" type="curve" smooth="yes"/>
			<point x="599" y="384"/>
			<point x="638" y="396"/>
			<point x="638" y="451" type="curve" smooth="yes"/>
			<point x="638" y="483"/>
			<point x="612" y="515"/>
		</contour>
	</outline>
</glyph>
<glyph name="h" format="2">
	<advance width="700"/>
	<unicode hex="0068"/>
	<outline>
		<contour>
			<point x="140" y="673" type="line"/>
			<point x="140" y="50" type="line"/>
			<point x="71" y="50" type="line" smooth="yes"/>
			<point x="54" y="50"/>
			<point x="44" y="39"/>
			<point x="44" y="25" type="curve" smooth="yes"/>
			<point x="44" y="11"/>
			<point x="54" y="0"/>
			<point x="71" y="0" type="curve" smooth="yes"/>
			<point x="329" y="0" type="line" smooth="yes"/>
			<point x="346" y="0"/>
			<point x="356" y="11"/>
			<point x="356" y="25" type="curve" smooth="yes"/>
			<point x="356" y="39"/>
			<point x="346" y="50"/>
			<point x="329" y="50" type="curve" smooth="yes"/>
			<point x="260" y="50" type="line"/>
			<point x="260" y="359" type="line"/>
			<point x="302" y="394" type="line" smooth="yes"/>
			<point x="336" y="422"/>
			<point x="364" y="440"/>
			<point x="394" y="440" type="curve" smooth="yes"/>
			<point x="436" y="440"/>
			<point x="467" y="412"/>
			<point x="467" y="345" type="curve" smooth="yes"/>
			<point x="467" y="50" type="line"/>
			<point x="398" y="50" type="line" smooth="yes"/>
			<point x="381" y="50"/>
			<point x="371" y="39"/>
			<point x="371" y="25" type="curve" smooth="yes"/>
			<point x="371" y="11"/>
			<point x="381" y="0"/>
			<point x="398" y="0" type="curve" smooth="yes"/>
			<point x="656" y="0" type="line" smooth="yes"/>
			<point x="673" y="0"/>
			<point x="683" y="11"/>
			<point x="683" y="25" type="curve" smooth="yes"/>
			<point x="683" y="39"/>
			<point x="673" y="50"/>
			<point x="656" y="50" type="curve" smooth="yes"/>
			<point x="587" y="50" type="line"/>
			<point x="587" y="338" type="line" smooth="yes"/>
			<point x="587" y="440"/>
			<point x="538" y="508"/>
			<point x="430" y="508" type="curve" smooth="yes"/>
			<point x="385" y="508"/>
			<point x="346" y="492"/>
			<point x="304" y="470" type="curve" smooth="yes"/>
			<point x="262" y="448" type="line"/>
			<point x="262" y="699" type="line" smooth="yes"/>
			<point x="262" y="723"/>
			<point x="252" y="730"/>
			<point x="231" y="730" type="curve" smooth="yes"/>
			<point x="64" y="730" type="line" smooth="yes"/>
			<point x="48" y="730"/>
			<point x="37" y="722"/>
			<point x="37" y="706" type="curve" smooth="yes"/>
			<point x="37" y="691"/>
			<point x="46" y="684"/>
			<point x="64" y="682" type="curve" smooth="yes"/>
		</contour>
	</outline>
</glyph>
<glyph name="i" format="2">
	<advance width="700"/>
	<unicode hex="0069"/>
	<outline>
		<contour>
			<point x="86" y="25" type="curve"/>
			<point x="86" y="11"/>
			<point x="98" y="0"/>
			<point x="113" y="0" type="curve" smooth="yes"/>
			<point x="587" y="0" type="line" smooth="yes"/>
			<point x="602" y="0"/>
			<point x="614" y="11"/>
			<point x="614" y="25" type="curve" smooth="yes"/>
			<point x="614" y="39"/>
			<point x="602" y="50"/>
			<point x="587" y="50" type="curve" smooth="yes"/>
			<point x="410" y="50" type="line"/>
			<point x="410" y="471" type="line" smooth="yes"/>
			<point x="410" y="500"/>
			<point x="386" y="500"/>
			<point x="376" y="500" type="curve" smooth="yes"/>
			<point x="113" y="500" type="line" smooth="yes"/>
			<point x="98" y="500"/>
			<point x="86" y="489"/>
			<point x="86" y="475" type="curve" smooth="yes"/>
			<point x="86" y="461"/>
			<point x="98" y="450"/>
			<point x="113" y="450" type="curve"/>
			<point x="290" y="436" type="line"/>
			<point x="290" y="50" type="line"/>
			<point x="113" y="50" type="line" smooth="yes"/>
			<point x="98" y="50"/>
			<point x="86" y="39"/>
		</contour>
		<contour>
			<point x="338" y="607" type="curve" smooth="yes"/>
			<point x="377" y="607"/>
			<point x="410" y="636"/>
			<point x="410" y="676" type="curve" smooth="yes"/>
			<point x="410" y="716"/>
			<point x="377" y="745"/>
			<point x="338" y="745" type="curve" smooth="yes"/>
			<point x="298" y="745"/>
			<point x="266" y="716"/>
			<point x="266" y="676" type="curve" smooth="yes"/>
			<point x="266" y="636"/>
			<point x="298" y="607"/>
		</contour>
	</outline>
</glyph>
<glyph name="j" format="2">
	<advance width="700"/>
	<unicode hex="006A"/>
	<outline>
		<contour>
			<point x="461" y="500" type="curve" smooth="yes"/>
			<point x="198" y="500" type="line" smooth="yes"/>
			<point x="181" y="500"/>
			<point x="171" y="489"/>
			<point x="171" y="475" type="curve" smooth="yes"/>
			<point x="171" y="461"/>
			<point x="181" y="450"/>
			<point x="198" y="450" type="curve"/>
			<point x="375" y="436" type="line"/>
			<point x="375" y="31" type="line" smooth="yes"/>
			<point x="375" y="-56"/>
			<point x="375" y="-170"/>
			<point x="281" y="-170" type="curve" smooth="yes"/>
			<point x="246" y="-170"/>
			<point x="227" y="-148"/>
			<point x="224" y="-144" type="curve"/>
			<point x="224" y="-144"/>
			<point x="232" y="-118"/>
			<point x="242" y="-84" type="curve" smooth="yes"/>
			<point x="251" y="-52"/>
			<point x="252" y="-11"/>
			<point x="192" y="4" type="curve" smooth="yes"/>
			<point x="155" y="13"/>
			<point x="120" y="-12"/>
			<point x="109" y="-52" type="curve" smooth="yes"/>
			<point x="87" y="-135"/>
			<point x="168" y="-215"/>
			<point x="281" y="-215" type="curve" smooth="yes"/>
			<point x="506" y="-215"/>
			<point x="495" y="-56"/>
			<point x="495" y="31" type="curve" smooth="yes"/>
			<point x="495" y="471" type="line" smooth="yes"/>
			<point x="495" y="500"/>
			<point x="471" y="500"/>
		</contour>
		<contour>
			<point x="423" y="607" type="curve"/>
			<point x="463" y="607"/>
			<point x="495" y="636"/>
			<point x="495" y="676" type="curve" smooth="yes"/>
			<point x="495" y="716"/>
			<point x="463" y="745"/>
			<point x="423" y="745" type="curve" smooth="yes"/>
			<point x="384" y="745"/>
			<point x="351" y="716"/>
			<point x="351" y="676" type="curve" smooth="yes"/>
			<point x="351" y="636"/>
			<point x="384" y="607"/>
		</contour>
	</outline>
</glyph>
<glyph name="k" format="2">
	<advance width="700"/>
	<unicode hex="006B"/>
	<outline>
		<contour>
			<point x="122" y="673" type="line"/>
			<point x="122" y="50" type="line"/>
			<point x="63" y="50" type="line" smooth="yes"/>
			<point x="46" y="50"/>
			<point x="32" y="42"/>
			<point x="32" y="25" type="curve" smooth="yes"/>
			<point x="32" y="8"/>
			<point x="46" y="0"/>
			<point x="63" y="0" type="curve" smooth="yes"/>
			<point x="312" y="0" type="line" smooth="yes"/>
			<point x="329" y="0"/>
			<point x="343" y="8"/>
			<point x="343" y="25" type="curve" smooth="yes"/>
			<point x="343" y="42"/>
			<point x="329" y="50"/>
			<point x="312" y="50" type="curve" smooth="yes"/>
			<point x="244" y="50" type="line"/>
			<point x="244" y="174" type="line"/>
			<point x="287" y="217" type="line"/>
			<point x="436" y="50" type="line"/>
			<point x="400" y="50" type="line" smooth="yes"/>
			<point x="383" y="50"/>
			<point x="369" y="42"/>
			<point x="369" y="25" type="curve" smooth="yes"/>
			<point x="369" y="8"/>
			<point x="383" y="0"/>
			<point x="400" y="0" type="curve" smooth="yes"/>
			<point x="649" y="0" type="line" smooth="yes"/>
			<point x="666" y="0"/>
			<point x="680" y="8"/>
			<point x="680" y="25" type="curve" smooth="yes"/>
			<point x="680" y="42"/>
			<point x="666" y="50"/>
			<point x="649" y="50" type="curve" smooth="yes"/>
			<point x="579" y="50" type="line"/>
			<point x="363" y="293" type="line"/>
			<point x="520" y="450" type="line"/>
			<point x="609" y="450" type="line" smooth="yes"/>
			<point x="626" y="450"/>
			<point x="640" y="458"/>
			<point x="640" y="475" type="curve" smooth="yes"/>
			<point x="640" y="492"/>
			<point x="626" y="500"/>
			<point x="609" y="500" type="curve" smooth="yes"/>
			<point x="360" y="500" type="line" smooth="yes"/>
			<point x="343" y="500"/>
			<point x="329" y="492"/>
			<point x="329" y="475" type="curve" smooth="yes"/>
			<point x="329" y="458"/>
			<point x="343" y="450"/>
			<point x="360" y="450" type="curve" smooth="yes"/>
			<point x="449" y="450" type="line"/>
			<point x="244" y="245" type="line"/>
			<point x="244" y="699" type="line" smooth="yes"/>
			<point x="244" y="722"/>
			<point x="234" y="730"/>
			<point x="213" y="730" type="curve" smooth="yes"/>
			<point x="46" y="730" type="line" smooth="yes"/>
			<point x="30" y="730"/>
			<point x="19" y="722"/>
			<point x="19" y="706" type="curve" smooth="yes"/>
			<point x="19" y="691"/>
			<point x="28" y="684"/>
			<point x="46" y="682" type="curve" smooth="yes"/>
		</contour>
	</outline>
</glyph>
<glyph name="l" format="2">
	<advance width="700"/>
	<unicode hex="006C"/>
	<outline>
		<contour>
			<point x="164" y="730" type="line" smooth="yes"/>
			<point x="147" y="730"/>
			<point x="135" y="720"/>
			<point x="135" y="705" type="curve" smooth="yes"/>
			<point x="135" y="692"/>
			<point x="145" y="681"/>
			<point x="164" y="679" type="curve" smooth="yes"/>
			<point x="298" y="667" type="line"/>
			<point x="298" y="50" type="line"/>
			<point x="151" y="50" type="line" smooth="yes"/>
			<point x="134" y="50"/>
			<point x="124" y="39"/>
			<point x="124" y="25" type="curve" smooth="yes"/>
			<point x="124" y="11"/>
			<point x="134" y="0"/>
			<point x="151" y="0" type="curve" smooth="yes"/>
			<point x="568" y="0" type="line" smooth="yes"/>
			<point x="585" y="0"/>
			<point x="595" y="11"/>
			<point x="595" y="25" type="curve" smooth="yes"/>
			<point x="595" y="39"/>
			<point x="585" y="50"/>
			<point x="568" y="50" type="curve" smooth="yes"/>
			<point x="418" y="50" type="line"/>
			<point x="418" y="699" type="line" smooth="yes"/>
			<point x="418" y="723"/>
			<point x="408" y="730"/>
			<point x="387" y="730" type="curve" smooth="yes"/>
		</contour>
	</outline>
</glyph>
<glyph name="m" format="2">
	<advance width="700"/>
	<unicode hex="006D"/>
	<outline>
		<contour>
			<point x="15" y="476" type="curve"/>
			<point x="15" y="462"/>
			<point x="23" y="457"/>
			<point x="42" y="451" type="curve" smooth="yes"/>
			<point x="76" y="441" type="line"/>
			<point x="76" y="50" type="line"/>
			<point x="44" y="50" type="line" smooth="yes"/>
			<point x="27" y="50"/>
			<point x="18" y="39"/>
			<point x="18" y="25" type="curve" smooth="yes"/>
			<point x="18" y="11"/>
			<point x="27" y="0"/>
			<point x="44" y="0" type="curve" smooth="yes"/>
			<point x="209" y="0" type="line" smooth="yes"/>
			<point x="226" y="0"/>
			<point x="235" y="11"/>
			<point x="235" y="25" type="curve" smooth="yes"/>
			<point x="235" y="39"/>
			<point x="226" y="50"/>
			<point x="209" y="50" type="curve" smooth="yes"/>
			<point x="187" y="50" type="line"/>
			<point x="187" y="378" type="line"/>
			<point x="214" y="426"/>
			<point x="239" y="452"/>
			<point x="265" y="452" type="curve" smooth="yes"/>
			<point x="285" y="452"/>
			<point x="297" y="431"/>
			<point x="297" y="390" type="curve" smooth="yes"/>
			<point x="297" y="50" type="line"/>
			<point x="271" y="50" type="line" smooth="yes"/>
			<point x="254" y="50"/>
			<point x="245" y="39"/>
			<point x="245" y="25" type="curve" smooth="yes"/>
			<point x="245" y="11"/>
			<point x="254" y="0"/>
			<point x="271" y="0" type="curve" smooth="yes"/>
			<point x="431" y="0" type="line" smooth="yes"/>
			<point x="448" y="0"/>
			<point x="457" y="11"/>
			<point x="457" y="25" type="curve" smooth="yes"/>
			<point x="457" y="39"/>
			<point x="448" y="50"/>
			<point x="431" y="50" type="curve" smooth="yes"/>
			<point x="407" y="50" type="line"/>
			<point x="407" y="375" type="line"/>
			<point x="434" y="426"/>
			<point x="462" y="451"/>
			<point x="483" y="451" type="curve" smooth="yes"/>
			<point x="500" y="451"/>
			<point x="517" y="431"/>
			<point x="517" y="390" type="curve" smooth="yes"/>
			<point x="517" y="50" type="line"/>
			<point x="493" y="50" type="line" smooth="yes"/>
			<point x="476" y="50"/>
			<point x="467" y="39"/>
			<point x="467" y="25" type="curve" smooth="yes"/>
			<point x="467" y="11"/>
			<point x="476" y="0"/>
			<point x="493" y="0" type="curve" smooth="yes"/>
			<point x="657" y="0" type="line" smooth="yes"/>
			<point x="674" y="0"/>
			<point x="683" y="11"/>
			<point x="683" y="25" type="curve" smooth="yes"/>
			<point x="683" y="39"/>
			<point x="674" y="50"/>
			<point x="657" y="50" type="curve" smooth="yes"/>
			<point x="626" y="50" type="line"/>
			<point x="626" y="382" type="line" smooth="yes"/>
			<point x="626" y="455"/>
			<point x="595" y="508"/>
			<point x="507" y="508" type="curve" smooth="yes"/>
			<point x="468" y="508"/>
			<point x="426" y="485"/>
			<point x="397" y="447" type="curve"/>
			<point x="381" y="487"/>
			<point x="338" y="508"/>
			<point x="293" y="508" type="curve" smooth="yes"/>
			<point x="252" y="508"/>
			<point x="215" y="487"/>
			<point x="187" y="451" type="curve"/>
			<point x="174" y="476" type="line" smooth="yes"/>
			<point x="165" y="494"/>
			<point x="158" y="500"/>
			<point x="143" y="500" type="curve" smooth="yes"/>
			<point x="42" y="500" type="line" smooth="yes"/>
			<point x="26" y="500"/>
			<point x="15" y="492"/>
		</contour>
	</outline>
</glyph>
<glyph name="n" format="2">
	<advance width="700"/>
	<unicode hex="006E"/>
	<outline>
		<contour>
			<point x="131" y="50" type="line"/>
			<point x="62" y="50" type="line" smooth="yes"/>
			<point x="45" y="50"/>
			<point x="35" y="39"/>
			<point x="35" y="25" type="curve" smooth="yes"/>
			<point x="35" y="11"/>
			<point x="45" y="0"/>
			<point x="62" y="0" type="curve" smooth="yes"/>
			<point x="320" y="0" type="line" smooth="yes"/>
			<point x="337" y="0"/>
			<point x="347" y="11"/>
			<point x="347" y="25" type="curve" smooth="yes"/>
			<point x="347" y="39"/>
			<point x="337" y="50"/>
			<point x="320" y="50" type="curve" smooth="yes"/>
			<point x="251" y="50" type="line"/>
			<point x="251" y="359" type="line"/>
			<point x="293" y="394" type="line" smooth="yes"/>
			<point x="327" y="422"/>
			<point x="355" y="440"/>
			<point x="385" y="440" type="curve" smooth="yes"/>
			<point x="427" y="440"/>
			<point x="458" y="412"/>
			<point x="458" y="345" type="curve" smooth="yes"/>
			<point x="458" y="50" type="line"/>
			<point x="389" y="50" type="line" smooth="yes"/>
			<point x="372" y="50"/>
			<point x="362" y="39"/>
			<point x="362" y="25" type="curve" smooth="yes"/>
			<point x="362" y="11"/>
			<point x="372" y="0"/>
			<point x="389" y="0" type="curve" smooth="yes"/>
			<point x="647" y="0" type="line" smooth="yes"/>
			<point x="664" y="0"/>
			<point x="674" y="11"/>
			<point x="674" y="25" type="curve" smooth="yes"/>
			<point x="674" y="39"/>
			<point x="664" y="50"/>
			<point x="647" y="50" type="curve" smooth="yes"/>
			<point x="578" y="50" type="line"/>
			<point x="578" y="338" type="line" smooth="yes"/>
			<point x="578" y="440"/>
			<point x="529" y="508"/>
			<point x="421" y="508" type="curve" smooth="yes"/>
			<point x="376" y="508"/>
			<point x="337" y="492"/>
			<point x="295" y="470" type="curve" smooth="yes"/>
			<point x="253" y="448" type="line"/>
			<point x="236" y="476" type="line" smooth="yes"/>
			<point x="225" y="494"/>
			<point x="220" y="500"/>
			<point x="205" y="500" type="curve" smooth="yes"/>
			<point x="55" y="500" type="line" smooth="yes"/>
			<point x="39" y="500"/>
			<point x="28" y="492"/>
			<point x="28" y="476" type="curve" smooth="yes"/>
			<point x="28" y="461"/>
			<point x="37" y="454"/>
			<point x="55" y="452" type="curve" smooth="yes"/>
			<point x="131" y="443" type="line"/>
		</contour>
	</outline>
</glyph>
<glyph name="o" format="2">
	<advance width="700"/>
	<unicode hex="006F"/>
	<outline>
		<contour>
			<point x="350" y="-10" type="curve"/>
			<point x="492" y="-10"/>
			<point x="602" y="94"/>
			<point x="602" y="250" type="curve" smooth="yes"/>
			<point x="602" y="406"/>
			<point x="492" y="510"/>
			<point x="350" y="510" type="curve" smooth="yes"/>
			<point x="208" y="510"/>
			<point x="99" y="406"/>
			<point x="99" y="250" type="curve" smooth="yes"/>
			<point x="99" y="94"/>
			<point x="208" y="-10"/>
		</contour>
		<contour>
			<point x="350" y="40" type="curve"/>
			<point x="275" y="40"/>
			<point x="224" y="129"/>
			<point x="224" y="250" type="curve" smooth="yes"/>
			<point x="224" y="371"/>
			<point x="275" y="460"/>
			<point x="350" y="460" type="curve" smooth="yes"/>
			<point x="425" y="460"/>
			<point x="477" y="371"/>
			<point x="477" y="250" type="curve" smooth="yes"/>
			<point x="477" y="129"/>
			<point x="425" y="40"/>
		</contour>
	</outline>
</glyph>
<glyph name="p" format="2">
	<advance width="700"/>
	<unicode hex="0070"/>
	<outline>
		<contour>
			<point x="161" y="443" type="line"/>
			<point x="161" y="-170" type="line"/>
			<point x="56" y="-170" type="line" smooth="yes"/>
			<point x="39" y="-170"/>
			<point x="29" y="-181"/>
			<point x="29" y="-195" type="curve" smooth="yes"/>
			<point x="29" y="-209"/>
			<point x="39" y="-220"/>
			<point x="56" y="-220" type="curve" smooth="yes"/>
			<point x="397" y="-220" type="line" smooth="yes"/>
			<point x="414" y="-220"/>
			<point x="424" y="-209"/>
			<point x="424" y="-195" type="curve" smooth="yes"/>
			<point x="424" y="-181"/>
			<point x="414" y="-170"/>
			<point x="397" y="-170" type="curve" smooth="yes"/>
			<point x="282" y="-170" type="line"/>
			<point x="282" y="35" type="line"/>
			<point x="305" y="23"/>
			<point x="342" y="-8"/>
			<point x="410" y="-8" type="curve" smooth="yes"/>
			<point x="580" y="-8"/>
			<point x="650" y="128"/>
			<point x="650" y="254" type="curve" smooth="yes"/>
			<point x="650" y="404"/>
			<point x="566" y="508"/>
			<point x="421" y="508" type="curve" smooth="yes"/>
			<point x="390" y="508"/>
			<point x="347" y="494"/>
			<point x="315" y="480" type="curve" smooth="yes"/>
			<point x="276" y="463" type="line"/>
			<point x="267" y="476" type="line" smooth="yes"/>
			<point x="256" y="494"/>
			<point x="251" y="500"/>
			<point x="236" y="500" type="curve" smooth="yes"/>
			<point x="85" y="500" type="line" smooth="yes"/>
			<point x="69" y="500"/>
			<point x="58" y="492"/>
			<point x="58" y="476" type="curve" smooth="yes"/>
			<point x="58" y="461"/>
			<point x="67" y="454"/>
			<point x="85" y="452" type="curve" smooth="yes"/>
		</contour>
		<contour>
			<point x="282" y="361" type="line"/>
			<point x="298" y="378" type="line" smooth="yes"/>
			<point x="304" y="384"/>
			<point x="360" y="448"/>
			<point x="409" y="448" type="curve" smooth="yes"/>
			<point x="487" y="448"/>
			<point x="515" y="372"/>
			<point x="515" y="254" type="curve" smooth="yes"/>
			<point x="515" y="154"/>
			<point x="495" y="57"/>
			<point x="409" y="57" type="curve" smooth="yes"/>
			<point x="372" y="57"/>
			<point x="340" y="71"/>
			<point x="303" y="106" type="curve" smooth="yes"/>
			<point x="285" y="123"/>
			<point x="282" y="131"/>
			<point x="282" y="162" type="curve" smooth="yes"/>
		</contour>
	</outline>
</glyph>
<glyph name="q" format="2">
	<advance width="700"/>
	<unicode hex="0071"/>
	<outline>
		<contour>
			<point x="320" y="508" type="curve" smooth="yes"/>
			<point x="175" y="508"/>
			<point x="91" y="404"/>
			<point x="91" y="254" type="curve" smooth="yes"/>
			<point x="91" y="128"/>
			<point x="161" y="-8"/>
			<point x="331" y="-8" type="curve" smooth="yes"/>
			<point x="399" y="-8"/>
			<point x="436" y="23"/>
			<point x="459" y="35" type="curve"/>
			<point x="459" y="-170" type="line"/>
			<point x="343" y="-170" type="line" smooth="yes"/>
			<point x="326" y="-170"/>
			<point x="316" y="-181"/>
			<point x="316" y="-195" type="curve" smooth="yes"/>
			<point x="316" y="-209"/>
			<point x="326" y="-220"/>
			<point x="343" y="-220" type="curve" smooth="yes"/>
			<point x="684" y="-220" type="line" smooth="yes"/>
			<point x="701" y="-220"/>
			<point x="711" y="-209"/>
			<point x="711" y="-195" type="curve" smooth="yes"/>
			<point x="711" y="-181"/>
			<point x="701" y="-170"/>
			<point x="684" y="-170" type="curve" smooth="yes"/>
			<point x="579" y="-170" type="line"/>
			<point x="579" y="469" type="line" smooth="yes"/>
			<point x="579" y="493"/>
			<point x="569" y="500"/>
			<point x="548" y="500" type="curve" smooth="yes"/>
			<point x="504" y="500" type="line" smooth="yes"/>
			<point x="489" y="500"/>
			<point x="484" y="494"/>
			<point x="473" y="476" type="curve" smooth="yes"/>
			<point x="465" y="463" type="line"/>
			<point x="426" y="480" type="line" smooth="yes"/>
			<point x="394" y="494"/>
			<point x="351" y="508"/>
		</contour>
		<contour>
			<point x="459" y="361" type="line"/>
			<point x="459" y="162" type="line" smooth="yes"/>
			<point x="459" y="131"/>
			<point x="456" y="123"/>
			<point x="438" y="106" type="curve" smooth="yes"/>
			<point x="401" y="71"/>
			<point x="369" y="57"/>
			<point x="332" y="57" type="curve" smooth="yes"/>
			<point x="246" y="57"/>
			<point x="226" y="154"/>
			<point x="226" y="254" type="curve" smooth="yes"/>
			<point x="226" y="372"/>
			<point x="254" y="448"/>
			<point x="332" y="448" type="curve" smooth="yes"/>
			<point x="381" y="448"/>
			<point x="437" y="384"/>
			<point x="443" y="378" type="curve" smooth="yes"/>
		</contour>
	</outline>
</glyph>
<glyph name="r" format="2">
	<advance width="700"/>
	<unicode hex="0072"/>
	<outline>
		<contour>
			<point x="213" y="439" type="line"/>
			<point x="213" y="50" type="line"/>
			<point x="98" y="50" type="line" smooth="yes"/>
			<point x="82" y="50"/>
			<point x="72" y="37"/>
			<point x="72" y="24" type="curve" smooth="yes"/>
			<point x="72" y="10"/>
			<point x="82" y="0"/>
			<point x="99" y="0" type="curve" smooth="yes"/>
			<point x="448" y="0" type="line" smooth="yes"/>
			<point x="465" y="0"/>
			<point x="475" y="11"/>
			<point x="475" y="24" type="curve" smooth="yes"/>
			<point x="475" y="37"/>
			<point x="465" y="50"/>
			<point x="448" y="50" type="curve" smooth="yes"/>
			<point x="333" y="50" type="line"/>
			<point x="333" y="356" type="line"/>
			<point x="333" y="356"/>
			<point x="401" y="410"/>
			<point x="422" y="426" type="curve" smooth="yes"/>
			<point x="451" y="448"/>
			<point x="475" y="456"/>
			<point x="493" y="456" type="curve"/>
			<point x="493" y="459"/>
			<point x="493" y="429"/>
			<point x="493" y="391" type="curve" smooth="yes"/>
			<point x="493" y="353"/>
			<point x="503" y="317"/>
			<point x="555" y="317" type="curve" smooth="yes"/>
			<point x="594" y="317"/>
			<point x="627" y="338"/>
			<point x="627" y="396" type="curve" smooth="yes"/>
			<point x="627" y="481"/>
			<point x="552" y="507"/>
			<point x="498" y="507" type="curve" smooth="yes"/>
			<point x="455" y="507"/>
			<point x="415" y="488"/>
			<point x="374" y="467" type="curve" smooth="yes"/>
			<point x="336" y="448" type="line"/>
			<point x="317" y="476" type="line" smooth="yes"/>
			<point x="306" y="493"/>
			<point x="300" y="500"/>
			<point x="285" y="500" type="curve" smooth="yes"/>
			<point x="99" y="500" type="line" smooth="yes"/>
			<point x="81" y="500"/>
			<point x="72" y="489"/>
			<point x="72" y="476" type="curve" smooth="yes"/>
			<point x="72" y="463"/>
			<point x="79" y="454"/>
			<point x="99" y="452" type="curve"/>
		</contour>
	</outline>
</glyph>
<glyph name="s" format="2">
	<advance width="700"/>
	<unicode hex="0073"/>
	<outline>
		<contour>
			<point x="363" y="39" type="curve" smooth="yes"/>
			<point x="303" y="39"/>
			<point x="251" y="68"/>
			<point x="218" y="101" type="curve" smooth="yes"/>
			<point x="184" y="135"/>
			<point x="171" y="172"/>
			<point x="163" y="182" type="curve" smooth="yes"/>
			<point x="159" y="188"/>
			<point x="153" y="192"/>
			<point x="143" y="192" type="curve" smooth="yes"/>
			<point x="129" y="192"/>
			<point x="118" y="180"/>
			<point x="118" y="165" type="curve" smooth="yes"/>
			<point x="118" y="26" type="line" smooth="yes"/>
			<point x="118" y="9"/>
			<point x="129" y="-1"/>
			<point x="143" y="-1" type="curve" smooth="yes"/>
			<point x="157" y="-1"/>
			<point x="168" y="9"/>
			<point x="168" y="26" type="curve" smooth="yes"/>
			<point x="168" y="77" type="line"/>
			<point x="179" y="61"/>
			<point x="255" y="-11"/>
			<point x="359" y="-11" type="curve" smooth="yes"/>
			<point x="490" y="-11"/>
			<point x="567" y="62"/>
			<point x="567" y="151" type="curve" smooth="yes"/>
			<point x="567" y="238"/>
			<point x="514" y="271"/>
			<point x="411" y="300" type="curve" smooth="yes"/>
			<point x="343" y="319" type="line" smooth="yes"/>
			<point x="291" y="333"/>
			<point x="235" y="349"/>
			<point x="235" y="394" type="curve" smooth="yes"/>
			<point x="235" y="429"/>
			<point x="263" y="461"/>
			<point x="325" y="461" type="curve" smooth="yes"/>
			<point x="395" y="461"/>
			<point x="429" y="430"/>
			<point x="453" y="399" type="curve" smooth="yes"/>
			<point x="483" y="360"/>
			<point x="486" y="351"/>
			<point x="494" y="341" type="curve" smooth="yes"/>
			<point x="498" y="335"/>
			<point x="504" y="331"/>
			<point x="514" y="331" type="curve" smooth="yes"/>
			<point x="528" y="331"/>
			<point x="539" y="341"/>
			<point x="539" y="358" type="curve" smooth="yes"/>
			<point x="539" y="474" type="line" smooth="yes"/>
			<point x="539" y="491"/>
			<point x="528" y="501"/>
			<point x="514" y="501" type="curve" smooth="yes"/>
			<point x="500" y="501"/>
			<point x="489" y="491"/>
			<point x="489" y="474" type="curve" smooth="yes"/>
			<point x="489" y="448" type="line"/>
			<point x="432" y="500"/>
			<point x="377" y="511"/>
			<point x="312" y="511" type="curve" smooth="yes"/>
			<point x="207" y="511"/>
			<point x="130" y="452"/>
			<point x="130" y="376" type="curve" smooth="yes"/>
			<point x="130" y="278"/>
			<point x="197" y="244"/>
			<point x="275" y="221" type="curve" smooth="yes"/>
			<point x="290" y="217"/>
			<point x="331" y="204"/>
			<point x="348" y="199" type="curve" smooth="yes"/>
			<point x="425" y="176"/>
			<point x="469" y="159"/>
			<point x="469" y="118" type="curve" smooth="yes"/>
			<point x="469" y="71"/>
			<point x="435" y="39"/>
		</contour>
	</outline>
</glyph>
<glyph name="t" format="2">
	<advance width="700"/>
	<unicode hex="0074"/>
	<outline>
		<contour>
			<point x="367" y="147" type="curve" smooth="yes"/>
			<point x="367" y="450" type="line"/>
			<point x="499" y="450" type="line" smooth="yes"/>
			<point x="515" y="450"/>
			<point x="526" y="461"/>
			<point x="526" y="475" type="curve" smooth="yes"/>
			<point x="526" y="489"/>
			<point x="515" y="500"/>
			<point x="499" y="500" type="curve" smooth="yes"/>
			<point x="367" y="500" type="line"/>
			<point x="367" y="694" type="line" smooth="yes"/>
			<point x="367" y="716"/>
			<point x="354" y="738"/>
			<point x="327" y="738" type="curve" smooth="yes"/>
			<point x="300" y="738"/>
			<point x="287" y="716"/>
			<point x="287" y="694" type="curve" smooth="yes"/>
			<point x="287" y="674" type="line" smooth="yes"/>
			<point x="287" y="607"/>
			<point x="270" y="500"/>
			<point x="166" y="500" type="curve" smooth="yes"/>
			<point x="98" y="500" type="line" smooth="yes"/>
			<point x="82" y="500"/>
			<point x="71" y="489"/>
			<point x="71" y="475" type="curve" smooth="yes"/>
			<point x="71" y="461"/>
			<point x="82" y="450"/>
			<point x="98" y="450" type="curve" smooth="yes"/>
			<point x="229" y="450" type="line" smooth="yes"/>
			<point x="246" y="450"/>
			<point x="247" y="439"/>
			<point x="247" y="415" type="curve" smooth="yes"/>
			<point x="247" y="157" type="line" smooth="yes"/>
			<point x="247" y="113"/>
			<point x="245" y="-18"/>
			<point x="430" y="-18" type="curve" smooth="yes"/>
			<point x="591" y="-18"/>
			<point x="605" y="186"/>
			<point x="609" y="216" type="curve" smooth="yes"/>
			<point x="611" y="230"/>
			<point x="610" y="251"/>
			<point x="586" y="252" type="curve" smooth="yes"/>
			<point x="564" y="252"/>
			<point x="562" y="233"/>
			<point x="560" y="218" type="curve" smooth="yes"/>
			<point x="553" y="167"/>
			<point x="521" y="32"/>
			<point x="430" y="32" type="curve" smooth="yes"/>
			<point x="364" y="32"/>
			<point x="367" y="119"/>
		</contour>
	</outline>
</glyph>
<glyph name="v" format="2">
	<advance width="700"/>
	<unicode hex="0076"/>
	<outline>
		<contour>
			<point x="120" y="450" type="line"/>
			<point x="326" y="11" type="line"/>
			<point x="331" y="2"/>
			<point x="338" y="-6"/>
			<point x="351" y="-6" type="curve" smooth="yes"/>
			<point x="363" y="-6"/>
			<point x="371" y="-1"/>
			<point x="376" y="11" type="curve" smooth="yes"/>
			<point x="569" y="450" type="line"/>
			<point x="646" y="450" type="line" smooth="yes"/>
			<point x="663" y="450"/>
			<point x="672" y="461"/>
			<point x="672" y="475" type="curve" smooth="yes"/>
			<point x="672" y="489"/>
			<point x="663" y="500"/>
			<point x="646" y="500" type="curve" smooth="yes"/>
			<point x="418" y="500" type="line" smooth="yes"/>
			<point x="401" y="500"/>
			<point x="391" y="489"/>
			<point x="391" y="475" type="curve" smooth="yes"/>
			<point x="391" y="461"/>
			<point x="401" y="450"/>
			<point x="418" y="450" type="curve" smooth="yes"/>
			<point x="508" y="450" type="line"/>
			<point x="383" y="166" type="line"/>
			<point x="261" y="450" type="line"/>
			<point x="332" y="450" type="line" smooth="yes"/>
			<point x="349" y="450"/>
			<point x="359" y="461"/>
			<point x="359" y="475" type="curve" smooth="yes"/>
			<point x="359" y="489"/>
			<point x="349" y="500"/>
			<point x="332" y="500" type="curve" smooth="yes"/>
			<point x="51" y="500" type="line" smooth="yes"/>
			<point x="34" y="500"/>
			<point x="24" y="489"/>
			<point x="24" y="475" type="curve" smooth="yes"/>
			<point x="24" y="461"/>
			<point x="34" y="450"/>
			<point x="51" y="450" type="curve" smooth="yes"/>
		</contour>
	</outline>
</glyph>
<glyph name="x" format="2">
	<advance width="700"/>
	<unicode hex="0078"/>
	<outline>
		<contour>
			<point x="45" y="25" type="curve" smooth="yes"/>
			<point x="45" y="8"/>
			<point x="56" y="0"/>
			<point x="73" y="0" type="curve" smooth="yes"/>
			<point x="290" y="0" type="line" smooth="yes"/>
			<point x="306" y="0"/>
			<point x="318" y="8"/>
			<point x="318" y="25" type="curve" smooth="yes"/>
			<point x="318" y="42"/>
			<point x="306" y="50"/>
			<point x="290" y="50" type="curve" smooth="yes"/>
			<point x="215" y="50" type="line"/>
			<point x="334" y="196" type="line"/>
			<point x="438" y="50" type="line"/>
			<point x="393" y="50" type="line" smooth="yes"/>
			<point x="376" y="50"/>
			<point x="365" y="42"/>
			<point x="365" y="25" type="curve" smooth="yes"/>
			<point x="365" y="8"/>
			<point x="376" y="0"/>
			<point x="393" y="0" type="curve" smooth="yes"/>
			<point x="634" y="0" type="line" smooth="yes"/>
			<point x="650" y="0"/>
			<point x="662" y="8"/>
			<point x="662" y="25" type="curve" smooth="yes"/>
			<point x="662" y="42"/>
			<point x="650" y="50"/>
			<point x="634" y="50" type="curve" smooth="yes"/>
			<point x="583" y="50" type="line"/>
			<point x="410" y="292" type="line"/>
			<point x="539" y="450" type="line"/>
			<point x="604" y="450" type="line" smooth="yes"/>
			<point x="620" y="450"/>
			<point x="632" y="458"/>
			<point x="632" y="475" type="curve" smooth="yes"/>
			<point x="632" y="492"/>
			<point x="620" y="500"/>
			<point x="604" y="500" type="curve" smooth="yes"/>
			<point x="415" y="500" type="line" smooth="yes"/>
			<point x="398" y="500"/>
			<point x="387" y="492"/>
			<point x="387" y="475" type="curve" smooth="yes"/>
			<point x="387" y="458"/>
			<point x="398" y="450"/>
			<point x="415" y="450" type="curve" smooth="yes"/>
			<point x="469" y="450" type="line"/>
			<point x="377" y="337" type="line"/>
			<point x="297" y="450" type="line"/>
			<point x="329" y="450" type="line" smooth="yes"/>
			<point x="345" y="450"/>
			<point x="357" y="458"/>
			<point x="357" y="475" type="curve" smooth="yes"/>
			<point x="357" y="492"/>
			<point x="345" y="500"/>
			<point x="329" y="500" type="curve" smooth="yes"/>
			<point x="105" y="500" type="line" smooth="yes"/>
			<point x="88" y="500"/>
			<point x="77" y="492"/>
			<point x="77" y="475" type="curve" smooth="yes"/>
			<point x="77" y="458"/>
			<point x="88" y="450"/>
			<point x="105" y="450" type="curve" smooth="yes"/>
			<point x="152" y="450" type="line"/>
			<point x="301" y="242" type="line"/>
			<point x="145" y="50" type="line"/>
			<point x="73" y="50" type="line" smooth="yes"/>
			<point x="56" y="50"/>
			<point x="45" y="42"/>
		</contour>
	</outline>
</glyph>
<glyph name="y" format="2">
	<advance width="700"/>
	<unicode hex="0079"/>
	<outline>
		<contour>
			<point x="138" y="450" type="line"/>
			<point x="324" y="8" type="line"/>
			<point x="265" y="-128"/>
			<point x="231" y="-169"/>
			<point x="189" y="-169" type="curve" smooth="yes"/>
			<point x="172" y="-169"/>
			<point x="173" y="-164"/>
			<point x="173" y="-164" type="curve" smooth="yes"/>
			<point x="173" y="-164"/>
			<point x="173" y="-80"/>
			<point x="173" y="-80" type="curve"/>
			<point x="173" y="-43"/>
			<point x="164" y="-8"/>
			<point x="102" y="-8" type="curve" smooth="yes"/>
			<point x="64" y="-8"/>
			<point x="31" y="-29"/>
			<point x="31" y="-85" type="curve" smooth="yes"/>
			<point x="31" y="-119"/>
			<point x="65" y="-219"/>
			<point x="185" y="-219" type="curve" smooth="yes"/>
			<point x="270" y="-219"/>
			<point x="308" y="-186"/>
			<point x="397" y="20" type="curve" smooth="yes"/>
			<point x="580" y="450" type="line"/>
			<point x="649" y="450" type="line" smooth="yes"/>
			<point x="667" y="450"/>
			<point x="678" y="458"/>
			<point x="678" y="475" type="curve" smooth="yes"/>
			<point x="678" y="492"/>
			<point x="667" y="500"/>
			<point x="649" y="500" type="curve" smooth="yes"/>
			<point x="446" y="500" type="line" smooth="yes"/>
			<point x="428" y="500"/>
			<point x="417" y="492"/>
			<point x="417" y="475" type="curve" smooth="yes"/>
			<point x="417" y="458"/>
			<point x="428" y="450"/>
			<point x="446" y="450" type="curve" smooth="yes"/>
			<point x="512" y="450" type="line"/>
			<point x="389" y="164" type="line"/>
			<point x="266" y="450" type="line"/>
			<point x="321" y="450" type="line" smooth="yes"/>
			<point x="339" y="450"/>
			<point x="351" y="458"/>
			<point x="351" y="475" type="curve" smooth="yes"/>
			<point x="351" y="492"/>
			<point x="339" y="500"/>
			<point x="321" y="500" type="curve" smooth="yes"/>
			<point x="88" y="500" type="line" smooth="yes"/>
			<point x="70" y="500"/>
			<point x="59" y="492"/>
			<point x="59" y="475" type="curve" smooth="yes"/>
			<point x="59" y="458"/>
			<point x="70" y="450"/>
			<point x="88" y="450" type="curve" smooth="yes"/>
		</contour>
	</outline>
</glyph>
<glyph name="z" format="2">
	<advance width="700"/>
	<unicode hex="007A"/>
	<outline>
		<contour>
			<point x="191" y="500" type="line" smooth="yes"/>
			<point x="167" y="500"/>
			<point x="147" y="500"/>
			<point x="145" y="467" type="curve" smooth="yes"/>
			<point x="140" y="363" type="line" smooth="yes"/>
			<point x="139" y="344"/>
			<point x="151" y="334"/>
			<point x="166" y="334" type="curve" smooth="yes"/>
			<point x="179" y="334"/>
			<point x="188" y="342"/>
			<point x="191" y="363" type="curve" smooth="yes"/>
			<point x="194" y="382"/>
			<point x="193" y="445"/>
			<point x="256" y="445" type="curve" smooth="yes"/>
			<point x="421" y="445" type="line"/>
			<point x="148" y="59" type="line" smooth="yes"/>
			<point x="137" y="44"/>
			<point x="120" y="25"/>
			<point x="127" y="10" type="curve" smooth="yes"/>
			<point x="131" y="1"/>
			<point x="138" y="0"/>
			<point x="150" y="0" type="curve" smooth="yes"/>
			<point x="528" y="0" type="line" smooth="yes"/>
			<point x="552" y="0"/>
			<point x="570" y="0"/>
			<point x="572" y="33" type="curve" smooth="yes"/>
			<point x="577" y="138" type="line" smooth="yes"/>
			<point x="578" y="157"/>
			<point x="566" y="167"/>
			<point x="551" y="167" type="curve" smooth="yes"/>
			<point x="538" y="167"/>
			<point x="529" y="159"/>
			<point x="526" y="138" type="curve" smooth="yes"/>
			<point x="523" y="119"/>
			<point x="514" y="55"/>
			<point x="451" y="55" type="curve" smooth="yes"/>
			<point x="280" y="55" type="line"/>
			<point x="553" y="441" type="line" smooth="yes"/>
			<point x="563" y="455"/>
			<point x="581" y="476"/>
			<point x="574" y="490" type="curve" smooth="yes"/>
			<point x="569" y="500"/>
			<point x="562" y="500"/>
			<point x="549" y="500" type="curve" smooth="yes"/>
		</contour>
	</outline>
</glyph>
<glyph name="braceleft" format="2">
	<advance width="700"/>
	<unicode hex="007B"/>
	<outline>
		<contour>
			<point x="219" y="370" type="curve"/>
			<point x="299" y="395"/>
			<point x="317" y="454"/>
			<point x="306" y="516" type="curve" smooth="yes"/>
			<point x="290" y="605" type="line" smooth="yes"/>
			<point x="270" y="714"/>
			<point x="319" y="789"/>
			<point x="379" y="789" type="curve" smooth="yes"/>
			<point x="426" y="789"/>
			<point x="439" y="770"/>
			<point x="442" y="763" type="curve"/>
			<point x="440" y="756"/>
			<point x="429" y="706"/>
			<point x="426" y="688" type="curve" smooth="yes"/>
			<point x="420" y="645"/>
			<point x="439" y="607"/>
			<point x="491" y="607" type="curve" smooth="yes"/>
			<point x="527" y="607"/>
			<point x="556" y="629"/>
			<point x="567" y="671" type="curve" smooth="yes"/>
			<point x="585" y="742"/>
			<point x="514" y="849"/>
			<point x="389" y="849" type="curve" smooth="yes"/>
			<point x="283" y="849"/>
			<point x="193" y="755"/>
			<point x="219" y="606" type="curve" smooth="yes"/>
			<point x="237" y="504" type="line" smooth="yes"/>
			<point x="250" y="430"/>
			<point x="175" y="416"/>
			<point x="143" y="405" type="curve" smooth="yes"/>
			<point x="129" y="400"/>
			<point x="116" y="394"/>
			<point x="116" y="370" type="curve" smooth="yes"/>
			<point x="116" y="346"/>
			<point x="129" y="340"/>
			<point x="143" y="335" type="curve" smooth="yes"/>
			<point x="175" y="324"/>
			<point x="250" y="310"/>
			<point x="237" y="236" type="curve" smooth="yes"/>
			<point x="219" y="134" type="line" smooth="yes"/>
			<point x="193" y="-15"/>
			<point x="283" y="-109"/>
			<point x="389" y="-109" type="curve" smooth="yes"/>
			<point x="514" y="-109"/>
			<point x="582" y="-3"/>
			<point x="567" y="69" type="curve" smooth="yes"/>
			<point x="557" y="117"/>
			<point x="524" y="134"/>
			<point x="493" y="134" type="curve" smooth="yes"/>
			<point x="448" y="134"/>
			<point x="417" y="92"/>
			<point x="426" y="52" type="curve" smooth="yes"/>
			<point x="430" y="34"/>
			<point x="440" y="-16"/>
			<point x="442" y="-23" type="curve"/>
			<point x="439" y="-30"/>
			<point x="426" y="-49"/>
			<point x="379" y="-49" type="curve" smooth="yes"/>
			<point x="319" y="-49"/>
			<point x="270" y="26"/>
			<point x="290" y="135" type="curve" smooth="yes"/>
			<point x="306" y="224" type="line" smooth="yes"/>
			<point x="317" y="286"/>
			<point x="299" y="345"/>
		</contour>
	</outline>
</glyph>
<glyph name="bar" format="2">
	<advance width="700"/>
	<unicode hex="007C"/>
	<outline>
		<contour>
			<point x="384" y="7" type="curve" smooth="yes"/>
			<point x="384" y="723" type="line" smooth="yes"/>
			<point x="384" y="748"/>
			<point x="364" y="760"/>
			<point x="349" y="760" type="curve" smooth="yes"/>
			<point x="334" y="760"/>
			<point x="314" y="748"/>
			<point x="314" y="723" type="curve" smooth="yes"/>
			<point x="314" y="7" type="line" smooth="yes"/>
			<point x="314" y="-18"/>
			<point x="334" y="-30"/>
			<point x="349" y="-30" type="curve" smooth="yes"/>
			<point x="364" y="-30"/>
			<point x="384" y="-18"/>
		</contour>
	</outline>
</glyph>
<glyph name="braceright" format="2">
	<advance width="700"/>
	<unicode hex="007D"/>
	<outline>
		<contour>
			<point x="480" y="370" type="curve"/>
			<point x="400" y="345"/>
			<point x="382" y="286"/>
			<point x="393" y="224" type="curve" smooth="yes"/>
			<point x="409" y="135" type="line" smooth="yes"/>
			<point x="429" y="26"/>
			<point x="380" y="-49"/>
			<point x="320" y="-49" type="curve" smooth="yes"/>
			<point x="273" y="-49"/>
			<point x="260" y="-30"/>
			<point x="257" y="-23" type="curve"/>
			<point x="259" y="-16"/>
			<point x="269" y="34"/>
			<point x="273" y="52" type="curve" smooth="yes"/>
			<point x="282" y="92"/>
			<point x="251" y="134"/>
			<point x="206" y="134" type="curve" smooth="yes"/>
			<point x="175" y="134"/>
			<point x="142" y="117"/>
			<point x="132" y="69" type="curve" smooth="yes"/>
			<point x="117" y="-3"/>
			<point x="185" y="-109"/>
			<point x="310" y="-109" type="curve" smooth="yes"/>
			<point x="416" y="-109"/>
			<point x="506" y="-15"/>
			<point x="480" y="134" type="curve" smooth="yes"/>
			<point x="462" y="236" type="line" smooth="yes"/>
			<point x="449" y="310"/>
			<point x="524" y="324"/>
			<point x="556" y="335" type="curve" smooth="yes"/>
			<point x="570" y="340"/>
			<point x="583" y="346"/>
			<point x="583" y="370" type="curve" smooth="yes"/>
			<point x="583" y="394"/>
			<point x="570" y="400"/>
			<point x="556" y="405" type="curve" smooth="yes"/>
			<point x="524" y="416"/>
			<point x="449" y="430"/>
			<point x="462" y="504" type="curve" smooth="yes"/>
			<point x="480" y="606" type="line" smooth="yes"/>
			<point x="506" y="755"/>
			<point x="416" y="849"/>
			<point x="310" y="849" type="curve" smooth="yes"/>
			<point x="185" y="849"/>
			<point x="113" y="742"/>
			<point x="132" y="671" type="curve" smooth="yes"/>
			<point x="143" y="629"/>
			<point x="172" y="607"/>
			<point x="208" y="607" type="curve" smooth="yes"/>
			<point x="260" y="607"/>
			<point x="280" y="645"/>
			<point x="273" y="688" type="curve" smooth="yes"/>
			<point x="270" y="706"/>
			<point x="259" y="756"/>
			<point x="257" y="763" type="curve"/>
			<point x="260" y="770"/>
			<point x="273" y="789"/>
			<point x="320" y="789" type="curve" smooth="yes"/>
			<point x="380" y="789"/>
			<point x="429" y="714"/>
			<point x="409" y="605" type="curve" smooth="yes"/>
			<point x="393" y="516" type="line" smooth="yes"/>
			<point x="382" y="454"/>
			<point x="400" y="395"/>
		</contour>
	</outline>
</glyph>
<glyph name="asciitilde" format="2">
	<advance width="700"/>
	<unicode hex="007E"/>
	<outline>
		<contour>
			<point x="272" y="248" type="curve" smooth="yes"/>
			<point x="330" y="248"/>
			<point x="354" y="181"/>
			<point x="424" y="181" type="curve" smooth="yes"/>
			<point x="464" y="181"/>
			<point x="507" y="200"/>
			<point x="543" y="260" type="curve" smooth="yes"/>
			<point x="570" y="305"/>
			<point x="518" y="339"/>
			<point x="491" y="299" type="curve"/>
			<point x="471" y="266"/>
			<point x="451" y="252"/>
			<point x="424" y="252" type="curve" smooth="yes"/>
			<point x="383" y="252"/>
			<point x="350" y="318"/>
			<point x="275" y="318" type="curve" smooth="yes"/>
			<point x="219" y="318"/>
			<point x="184" y="288"/>
			<point x="154" y="241" type="curve" smooth="yes"/>
			<point x="126" y="197"/>
			<point x="178" y="162"/>
			<point x="207" y="200" type="curve" smooth="yes"/>
			<point x="234" y="235"/>
			<point x="245" y="248"/>
		</contour>
	</outline>
</glyph>
<glyph name="exclamdown" format="2">
	<advance width="700"/>
	<unicode hex="00A1"/>
	<outline>
		<contour>
			<point x="313" y="334" type="curve" smooth="yes"/>
			<point x="267" y="-92" type="line" smooth="yes"/>
			<point x="262" y="-140"/>
			<point x="298" y="-173"/>
			<point x="346" y="-173" type="curve" smooth="yes"/>
			<point x="394" y="-173"/>
			<point x="430" y="-140"/>
			<point x="425" y="-92" type="curve" smooth="yes"/>
			<point x="383" y="333" type="line" smooth="yes"/>
			<point x="381" y="349"/>
			<point x="372" y="366"/>
			<point x="348" y="366" type="curve" smooth="yes"/>
			<point x="324" y="366"/>
			<point x="315" y="349"/>
		</contour>
		<contour>
			<point x="348" y="559" type="curve" smooth="yes"/>
			<point x="311" y="559"/>
			<point x="280" y="532"/>
			<point x="280" y="494" type="curve" smooth="yes"/>
			<point x="280" y="457"/>
			<point x="311" y="429"/>
			<point x="348" y="429" type="curve" smooth="yes"/>
			<point x="386" y="429"/>
			<point x="416" y="457"/>
			<point x="416" y="494" type="curve" smooth="yes"/>
			<point x="416" y="532"/>
			<point x="386" y="559"/>
		</contour>
	</outline>
</glyph>
<glyph name="cent" format="2">
	<advance width="700"/>
	<unicode hex="00A2"/>
	<outline>
		<contour>
			<point x="108" y="247" type="curve" smooth="yes"/>
			<point x="108" y="57"/>
			<point x="254" y="-5"/>
			<point x="361" y="-5" type="curve" smooth="yes"/>
			<point x="415" y="-5"/>
			<point x="491" y="14"/>
			<point x="544" y="84" type="curve" smooth="yes"/>
			<point x="580" y="131"/>
			<point x="586" y="149"/>
			<point x="571" y="162" type="curve" smooth="yes"/>
			<point x="559" y="172"/>
			<point x="544" y="172"/>
			<point x="527" y="151" type="curve" smooth="yes"/>
			<point x="487" y="101"/>
			<point x="434" y="45"/>
			<point x="372" y="45" type="curve" smooth="yes"/>
			<point x="259" y="45"/>
			<point x="238" y="161"/>
			<point x="238" y="247" type="curve" smooth="yes"/>
			<point x="238" y="342"/>
			<point x="266" y="460"/>
			<point x="380" y="460" type="curve" smooth="yes"/>
			<point x="397" y="460"/>
			<point x="417" y="455"/>
			<point x="431" y="442" type="curve"/>
			<point x="431" y="435"/>
			<point x="431" y="392"/>
			<point x="431" y="365" type="curve" smooth="yes"/>
			<point x="431" y="338"/>
			<point x="440" y="293"/>
			<point x="502" y="293" type="curve" smooth="yes"/>
			<point x="550" y="293"/>
			<point x="573" y="324"/>
			<point x="573" y="370" type="curve" smooth="yes"/>
			<point x="573" y="455"/>
			<point x="467" y="510"/>
			<point x="380" y="510" type="curve" smooth="yes"/>
			<point x="286" y="510"/>
			<point x="108" y="457"/>
		</contour>
		<contour>
			<point x="200" y="-77" type="curve" smooth="yes"/>
			<point x="568" y="561" type="line" smooth="yes"/>
			<point x="576" y="574"/>
			<point x="573" y="590"/>
			<point x="560" y="597" type="curve" smooth="yes"/>
			<point x="547" y="604"/>
			<point x="532" y="599"/>
			<point x="524" y="586" type="curve" smooth="yes"/>
			<point x="157" y="-51" type="line" smooth="yes"/>
			<point x="150" y="-64"/>
			<point x="153" y="-79"/>
			<point x="165" y="-87" type="curve" smooth="yes"/>
			<point x="178" y="-96"/>
			<point x="193" y="-90"/>
		</contour>
	</outline>
</glyph>
<glyph name="sterling" format="2">
	<advance width="700"/>
	<unicode hex="00A3"/>
	<outline>
		<contour>
			<point x="269" y="93" type="curve"/>
			<point x="252" y="62"/>
			<point x="223" y="47"/>
			<point x="196" y="47" type="curve" smooth="yes"/>
			<point x="161" y="47"/>
			<point x="147" y="66"/>
			<point x="147" y="87" type="curve" smooth="yes"/>
			<point x="147" y="99"/>
			<point x="154" y="124"/>
			<point x="188" y="124" type="curve" smooth="yes"/>
			<point x="205" y="124"/>
			<point x="237" y="116"/>
		</contour>
		<contour>
			<point x="418" y="673" type="curve" smooth="yes"/>
			<point x="455" y="673"/>
			<point x="474" y="673"/>
			<point x="481" y="658" type="curve" smooth="yes"/>
			<point x="481" y="658"/>
			<point x="481" y="610"/>
			<point x="481" y="588" type="curve" smooth="yes"/>
			<point x="481" y="557"/>
			<point x="500" y="526"/>
			<point x="550" y="526" type="curve" smooth="yes"/>
			<point x="600" y="526"/>
			<point x="621" y="557"/>
			<point x="621" y="603" type="curve" smooth="yes"/>
			<point x="621" y="671"/>
			<point x="522" y="730"/>
			<point x="420" y="730" type="curve" smooth="yes"/>
			<point x="292" y="730"/>
			<point x="174" y="647"/>
			<point x="174" y="536" type="curve" smooth="yes"/>
			<point x="174" y="416"/>
			<point x="296" y="379"/>
			<point x="296" y="245" type="curve" smooth="yes"/>
			<point x="296" y="190"/>
			<point x="293" y="162"/>
			<point x="286" y="146" type="curve"/>
			<point x="255" y="159"/>
			<point x="231" y="171"/>
			<point x="197" y="173" type="curve" smooth="yes"/>
			<point x="142" y="176"/>
			<point x="93" y="153"/>
			<point x="93" y="81" type="curve" smooth="yes"/>
			<point x="93" y="33"/>
			<point x="138" y="-1"/>
			<point x="189" y="-1" type="curve" smooth="yes"/>
			<point x="236" y="-1"/>
			<point x="278" y="14"/>
			<point x="308" y="56" type="curve"/>
			<point x="357" y="15"/>
			<point x="446" y="0"/>
			<point x="484" y="0" type="curve" smooth="yes"/>
			<point x="558" y="0"/>
			<point x="615" y="23"/>
			<point x="657" y="95" type="curve" smooth="yes"/>
			<point x="684" y="141"/>
			<point x="682" y="169"/>
			<point x="661" y="177" type="curve" smooth="yes"/>
			<point x="648" y="182"/>
			<point x="630" y="180"/>
			<point x="614" y="152" type="curve" smooth="yes"/>
			<point x="576" y="86"/>
			<point x="554" y="61"/>
			<point x="487" y="61" type="curve" smooth="yes"/>
			<point x="435" y="61"/>
			<point x="381" y="89"/>
			<point x="346" y="112" type="curve"/>
			<point x="369" y="148"/>
			<point x="417" y="187"/>
			<point x="417" y="280" type="curve" smooth="yes"/>
			<point x="417" y="426"/>
			<point x="267" y="480"/>
			<point x="267" y="565" type="curve" smooth="yes"/>
			<point x="267" y="644"/>
			<point x="347" y="673"/>
		</contour>
		<contour>
			<point x="543" y="330" type="line" smooth="yes"/>
			<point x="558" y="330"/>
			<point x="570" y="340"/>
			<point x="570" y="355" type="curve" smooth="yes"/>
			<point x="570" y="370"/>
			<point x="558" y="380"/>
			<point x="543" y="380" type="curve" smooth="yes"/>
			<point x="127" y="380" type="line" smooth="yes"/>
			<point x="112" y="380"/>
			<point x="100" y="370"/>
			<point x="100" y="355" type="curve" smooth="yes"/>
			<point x="100" y="340"/>
			<point x="112" y="330"/>
			<point x="127" y="330" type="curve" smooth="yes"/>
		</contour>
	</outline>
</glyph>
<glyph name="brokenbar" format="2">
	<advance width="700"/>
	<unicode hex="00A6"/>
	<outline>
		<contour>
			<point x="404" y="437" type="curve" smooth="yes"/>
			<point x="404" y="663" type="line" smooth="yes"/>
			<point x="404" y="688"/>
			<point x="384" y="700"/>
			<point x="369" y="700" type="curve" smooth="yes"/>
			<point x="354" y="700"/>
			<point x="334" y="688"/>
			<point x="334" y="663" type="curve" smooth="yes"/>
			<point x="334" y="437" type="line" smooth="yes"/>
			<point x="334" y="412"/>
			<point x="354" y="400"/>
			<point x="369" y="400" type="curve" smooth="yes"/>
			<point x="384" y="400"/>
			<point x="404" y="412"/>
		</contour>
		<contour>
			<point x="404" y="37" type="curve" smooth="yes"/>
			<point x="404" y="283" type="line" smooth="yes"/>
			<point x="404" y="308"/>
			<point x="384" y="320"/>
			<point x="369" y="320" type="curve" smooth="yes"/>
			<point x="354" y="320"/>
			<point x="334" y="308"/>
			<point x="334" y="283" type="curve" smooth="yes"/>
			<point x="334" y="37" type="line" smooth="yes"/>
			<point x="334" y="12"/>
			<point x="354" y="0"/>
			<point x="369" y="0" type="curve" smooth="yes"/>
			<point x="384" y="0"/>
			<point x="404" y="12"/>
		</contour>
	</outline>
</glyph>
<glyph name="section" format="2">
	<advance width="700"/>
	<unicode hex="00A7"/>
	<outline>
		<contour>
			<point x="322" y="637" type="curve" smooth="yes"/>
			<point x="280" y="693"/>
			<point x="294" y="803"/>
			<point x="376" y="813" type="curve"/>
			<point x="381" y="798"/>
			<point x="398" y="749"/>
			<point x="401" y="738" type="curve" smooth="yes"/>
			<point x="408" y="711"/>
			<point x="433" y="686"/>
			<point x="480" y="702" type="curve" smooth="yes"/>
			<point x="506" y="711"/>
			<point x="524" y="742"/>
			<point x="509" y="784" type="curve" smooth="yes"/>
			<point x="498" y="814"/>
			<point x="454" y="869"/>
			<point x="366" y="860" type="curve" smooth="yes"/>
			<point x="307" y="854"/>
			<point x="239" y="806"/>
			<point x="240" y="711" type="curve" smooth="yes"/>
			<point x="241" y="673"/>
			<point x="253" y="641"/>
			<point x="273" y="610" type="curve"/>
			<point x="161" y="540"/>
			<point x="128" y="479"/>
			<point x="128" y="396" type="curve" smooth="yes"/>
			<point x="128" y="242"/>
			<point x="316" y="161"/>
			<point x="377" y="81" type="curve" smooth="yes"/>
			<point x="405" y="45"/>
			<point x="408" y="-15"/>
			<point x="385" y="-55" type="curve" smooth="yes"/>
			<point x="372" y="-76"/>
			<point x="352" y="-92"/>
			<point x="323" y="-95" type="curve"/>
			<point x="318" y="-80"/>
			<point x="301" y="-31"/>
			<point x="298" y="-20" type="curve" smooth="yes"/>
			<point x="291" y="7"/>
			<point x="266" y="32"/>
			<point x="219" y="16" type="curve" smooth="yes"/>
			<point x="193" y="7"/>
			<point x="175" y="-24"/>
			<point x="190" y="-66" type="curve" smooth="yes"/>
			<point x="201" y="-96"/>
			<point x="245" y="-152"/>
			<point x="333" y="-142" type="curve" smooth="yes"/>
			<point x="396" y="-135"/>
			<point x="460" y="-88"/>
			<point x="459" y="7" type="curve" smooth="yes"/>
			<point x="458" y="45"/>
			<point x="446" y="77"/>
			<point x="426" y="108" type="curve"/>
			<point x="519" y="165"/>
			<point x="571" y="224"/>
			<point x="571" y="322" type="curve" smooth="yes"/>
			<point x="571" y="473"/>
			<point x="385" y="554"/>
		</contour>
		<contour>
			<point x="317" y="251" type="line"/>
			<point x="237" y="353"/>
			<point x="224" y="462"/>
			<point x="298" y="577" type="curve"/>
			<point x="372" y="467" type="line" smooth="yes"/>
			<point x="452" y="348"/>
			<point x="475" y="256"/>
			<point x="401" y="141" type="curve"/>
		</contour>
	</outline>
</glyph>
<glyph name="copyright" format="2">
	<advance width="700"/>
	<unicode hex="00A9"/>
	<outline>
		<contour>
			<point x="350" y="673" type="curve" smooth="yes"/>
			<point x="163" y="673"/>
			<point x="13" y="523"/>
			<point x="13" y="336" type="curve" smooth="yes"/>
			<point x="13" y="149"/>
			<point x="163" y="-1"/>
			<point x="350" y="-1" type="curve" smooth="yes"/>
			<point x="537" y="-1"/>
			<point x="687" y="149"/>
			<point x="687" y="336" type="curve" smooth="yes"/>
			<point x="687" y="523"/>
			<point x="537" y="673"/>
		</contour>
		<contour>
			<point x="350" y="623" type="curve" smooth="yes"/>
			<point x="509" y="623"/>
			<point x="637" y="496"/>
			<point x="637" y="336" type="curve" smooth="yes"/>
			<point x="637" y="177"/>
			<point x="509" y="49"/>
			<point x="350" y="49" type="curve" smooth="yes"/>
			<point x="190" y="49"/>
			<point x="63" y="177"/>
			<point x="63" y="336" type="curve" smooth="yes"/>
			<point x="63" y="496"/>
			<point x="190" y="623"/>
		</contour>
		<contour>
			<point x="364" y="555" type="curve" smooth="yes"/>
			<point x="448" y="555"/>
			<point x="538" y="507"/>
			<point x="538" y="435" type="curve" smooth="yes"/>
			<point x="538" y="395"/>
			<point x="518" y="368"/>
			<point x="478" y="368" type="curve" smooth="yes"/>
			<point x="425" y="368"/>
			<point x="417" y="407"/>
			<point x="417" y="430" type="curve" smooth="yes"/>
			<point x="417" y="454"/>
			<point x="417" y="490"/>
			<point x="417" y="496" type="curve"/>
			<point x="404" y="507"/>
			<point x="388" y="512"/>
			<point x="364" y="512" type="curve" smooth="yes"/>
			<point x="266" y="512"/>
			<point x="243" y="411"/>
			<point x="243" y="330" type="curve" smooth="yes"/>
			<point x="243" y="257"/>
			<point x="262" y="158"/>
			<point x="358" y="158" type="curve" smooth="yes"/>
			<point x="419" y="158"/>
			<point x="462" y="207"/>
			<point x="498" y="248" type="curve" smooth="yes"/>
			<point x="513" y="265"/>
			<point x="527" y="267"/>
			<point x="536" y="258" type="curve" smooth="yes"/>
			<point x="549" y="245"/>
			<point x="544" y="232"/>
			<point x="513" y="191" type="curve" smooth="yes"/>
			<point x="468" y="132"/>
			<point x="402" y="115"/>
			<point x="349" y="115" type="curve" smooth="yes"/>
			<point x="258" y="115"/>
			<point x="132" y="167"/>
			<point x="132" y="330" type="curve" smooth="yes"/>
			<point x="132" y="509"/>
			<point x="285" y="555"/>
		</contour>
	</outline>
</glyph>
<glyph name="guillemetleft" format="2">
	<advance width="700"/>
	<unicode hex="00AB"/>
	<outline>
		<contour>
			<point x="339" y="218" type="curve" smooth="yes"/>
			<point x="535" y="44" type="line" smooth="yes"/>
			<point x="548" y="32"/>
			<point x="565" y="23"/>
			<point x="584" y="32" type="curve" smooth="yes"/>
			<point x="601" y="40"/>
			<point x="605" y="67"/>
			<point x="587" y="83" type="curve" smooth="yes"/>
			<point x="387" y="261" type="line"/>
			<point x="581" y="434" type="line" smooth="yes"/>
			<point x="604" y="454"/>
			<point x="599" y="477"/>
			<point x="581" y="489" type="curve" smooth="yes"/>
			<point x="564" y="500"/>
			<point x="546" y="488"/>
			<point x="533" y="476" type="curve" smooth="yes"/>
			<point x="339" y="304" type="line" smooth="yes"/>
			<point x="319" y="286"/>
			<point x="302" y="275"/>
			<point x="302" y="261" type="curve" smooth="yes"/>
			<point x="302" y="247"/>
			<point x="317" y="237"/>
		</contour>
		<contour>
			<point x="168" y="218" type="curve" smooth="yes"/>
			<point x="364" y="44" type="line" smooth="yes"/>
			<point x="377" y="32"/>
			<point x="394" y="23"/>
			<point x="413" y="32" type="curve" smooth="yes"/>
			<point x="430" y="40"/>
			<point x="434" y="67"/>
			<point x="416" y="83" type="curve" smooth="yes"/>
			<point x="216" y="261" type="line"/>
			<point x="410" y="434" type="line" smooth="yes"/>
			<point x="433" y="454"/>
			<point x="428" y="477"/>
			<point x="410" y="489" type="curve" smooth="yes"/>
			<point x="393" y="500"/>
			<point x="375" y="488"/>
			<point x="362" y="476" type="curve" smooth="yes"/>
			<point x="168" y="304" type="line" smooth="yes"/>
			<point x="148" y="286"/>
			<point x="131" y="275"/>
			<point x="131" y="261" type="curve" smooth="yes"/>
			<point x="131" y="247"/>
			<point x="146" y="237"/>
		</contour>
	</outline>
</glyph>
<glyph name="registered" format="2">
	<advance width="700"/>
	<unicode hex="00AE"/>
	<outline>
		<contour>
			<point x="387" y="580" type="curve" smooth="yes"/>
			<point x="387" y="560"/>
			<point x="375" y="553"/>
			<point x="363" y="553" type="curve" smooth="yes"/>
			<point x="331" y="553" type="line"/>
			<point x="331" y="608" type="line"/>
			<point x="363" y="608" type="line" smooth="yes"/>
			<point x="375" y="608"/>
			<point x="387" y="600"/>
		</contour>
		<contour>
			<point x="353" y="354" type="curve" smooth="yes"/>
			<point x="456" y="354"/>
			<point x="539" y="439"/>
			<point x="539" y="543" type="curve" smooth="yes"/>
			<point x="539" y="646"/>
			<point x="456" y="730"/>
			<point x="353" y="730" type="curve" smooth="yes"/>
			<point x="247" y="730"/>
			<point x="162" y="646"/>
			<point x="162" y="543" type="curve" smooth="yes"/>
			<point x="162" y="439"/>
			<point x="247" y="354"/>
		</contour>
		<contour>
			<point x="353" y="404" type="curve" smooth="yes"/>
			<point x="274" y="404"/>
			<point x="218" y="462"/>
			<point x="218" y="543" type="curve" smooth="yes"/>
			<point x="218" y="619"/>
			<point x="274" y="678"/>
			<point x="353" y="678" type="curve" smooth="yes"/>
			<point x="428" y="678"/>
			<point x="488" y="619"/>
			<point x="488" y="543" type="curve" smooth="yes"/>
			<point x="488" y="461"/>
			<point x="428" y="404"/>
		</contour>
		<contour>
			<point x="331" y="531" type="line"/>
			<point x="353" y="531" type="line" smooth="yes"/>
			<point x="357" y="531"/>
			<point x="368" y="530"/>
			<point x="368" y="517" type="curve" smooth="yes"/>
			<point x="368" y="493" type="line" smooth="yes"/>
			<point x="368" y="476"/>
			<point x="377" y="455"/>
			<point x="410" y="455" type="curve" smooth="yes"/>
			<point x="428" y="455"/>
			<point x="440" y="471"/>
			<point x="444" y="483" type="curve" smooth="yes"/>
			<point x="448" y="494"/>
			<point x="446" y="501"/>
			<point x="439" y="503" type="curve" smooth="yes"/>
			<point x="433" y="505"/>
			<point x="429" y="500"/>
			<point x="427" y="494" type="curve" smooth="yes"/>
			<point x="424" y="484"/>
			<point x="417" y="476"/>
			<point x="412" y="477" type="curve" smooth="yes"/>
			<point x="404" y="479"/>
			<point x="405" y="489"/>
			<point x="405" y="500" type="curve" smooth="yes"/>
			<point x="405" y="517" type="line" smooth="yes"/>
			<point x="405" y="529"/>
			<point x="401" y="534"/>
			<point x="387" y="538" type="curve"/>
			<point x="412" y="543"/>
			<point x="426" y="558"/>
			<point x="426" y="580" type="curve" smooth="yes"/>
			<point x="426" y="607"/>
			<point x="401" y="629"/>
			<point x="370" y="629" type="curve" smooth="yes"/>
			<point x="281" y="629" type="line" smooth="yes"/>
			<point x="276" y="629"/>
			<point x="272" y="627"/>
			<point x="272" y="621" type="curve" smooth="yes"/>
			<point x="272" y="616"/>
			<point x="275" y="614"/>
			<point x="279" y="613" type="curve" smooth="yes"/>
			<point x="294" y="611" type="line"/>
			<point x="294" y="473" type="line"/>
			<point x="280" y="473" type="line" smooth="yes"/>
			<point x="276" y="473"/>
			<point x="272" y="470"/>
			<point x="272" y="465" type="curve" smooth="yes"/>
			<point x="272" y="461"/>
			<point x="276" y="457"/>
			<point x="280" y="457" type="curve" smooth="yes"/>
			<point x="350" y="457" type="line" smooth="yes"/>
			<point x="354" y="457"/>
			<point x="358" y="461"/>
			<point x="358" y="465" type="curve" smooth="yes"/>
			<point x="358" y="470"/>
			<point x="354" y="473"/>
			<point x="350" y="473" type="curve" smooth="yes"/>
			<point x="331" y="473" type="line"/>
		</contour>
	</outline>
</glyph>
<glyph name="degree" format="2">
	<advance width="700"/>
	<unicode hex="00B0"/>
	<outline>
		<contour>
			<point x="352" y="491" type="curve" smooth="yes"/>
			<point x="419" y="491"/>
			<point x="473" y="546"/>
			<point x="473" y="614" type="curve" smooth="yes"/>
			<point x="473" y="681"/>
			<point x="419" y="735"/>
			<point x="352" y="735" type="curve" smooth="yes"/>
			<point x="283" y="735"/>
			<point x="228" y="681"/>
			<point x="228" y="614" type="curve" smooth="yes"/>
			<point x="228" y="546"/>
			<point x="283" y="491"/>
		</contour>
		<contour>
			<point x="353" y="541" type="curve" smooth="yes"/>
			<point x="313" y="541"/>
			<point x="283" y="574"/>
			<point x="283" y="614" type="curve" smooth="yes"/>
			<point x="283" y="653"/>
			<point x="313" y="683"/>
			<point x="353" y="683" type="curve" smooth="yes"/>
			<point x="390" y="683"/>
			<point x="423" y="653"/>
			<point x="423" y="614" type="curve" smooth="yes"/>
			<point x="423" y="573"/>
			<point x="390" y="541"/>
		</contour>
	</outline>
</glyph>
<glyph name="periodcentered" format="2">
	<advance width="700"/>
	<unicode hex="00B7"/>
	<outline>
		<contour>
			<point x="350" y="367" type="curve" smooth="yes"/>
			<point x="313" y="367"/>
			<point x="283" y="340"/>
			<point x="283" y="303" type="curve" smooth="yes"/>
			<point x="283" y="266"/>
			<point x="313" y="239"/>
			<point x="350" y="239" type="curve" smooth="yes"/>
			<point x="387" y="239"/>
			<point x="417" y="266"/>
			<point x="417" y="303" type="curve" smooth="yes"/>
			<point x="417" y="340"/>
			<point x="387" y="367"/>
		</contour>
	</outline>
</glyph>
<glyph name="guillemetright" format="2">
	<advance width="700"/>
	<unicode hex="00BB"/>
	<outline>
		<contour>
			<point x="359" y="218" type="line" smooth="yes"/>
			<point x="381" y="237"/>
			<point x="396" y="247"/>
			<point x="396" y="261" type="curve" smooth="yes"/>
			<point x="396" y="275"/>
			<point x="379" y="286"/>
			<point x="359" y="304" type="curve" smooth="yes"/>
			<point x="165" y="476" type="line" smooth="yes"/>
			<point x="152" y="488"/>
			<point x="134" y="500"/>
			<point x="117" y="489" type="curve" smooth="yes"/>
			<point x="99" y="477"/>
			<point x="94" y="454"/>
			<point x="117" y="434" type="curve" smooth="yes"/>
			<point x="311" y="261" type="line"/>
			<point x="111" y="83" type="line" smooth="yes"/>
			<point x="93" y="67"/>
			<point x="97" y="40"/>
			<point x="114" y="32" type="curve" smooth="yes"/>
			<point x="133" y="23"/>
			<point x="150" y="32"/>
			<point x="163" y="44" type="curve" smooth="yes"/>
		</contour>
		<contour>
			<point x="530" y="218" type="line" smooth="yes"/>
			<point x="552" y="237"/>
			<point x="567" y="247"/>
			<point x="567" y="261" type="curve" smooth="yes"/>
			<point x="567" y="275"/>
			<point x="550" y="286"/>
			<point x="530" y="304" type="curve" smooth="yes"/>
			<point x="336" y="476" type="line" smooth="yes"/>
			<point x="323" y="488"/>
			<point x="305" y="500"/>
			<point x="288" y="489" type="curve" smooth="yes"/>
			<point x="270" y="477"/>
			<point x="265" y="454"/>
			<point x="288" y="434" type="curve" smooth="yes"/>
			<point x="482" y="261" type="line"/>
			<point x="282" y="83" type="line" smooth="yes"/>
			<point x="264" y="67"/>
			<point x="268" y="40"/>
			<point x="285" y="32" type="curve" smooth="yes"/>
			<point x="304" y="23"/>
			<point x="321" y="32"/>
			<point x="334" y="44" type="curve" smooth="yes"/>
		</contour>
	</outline>
</glyph>
<glyph name="onequarter" format="2">
	<advance width="700"/>
	<unicode hex="00BC"/>
	<outline>
		<contour>
			<point x="399" y="770" type="line" smooth="yes"/>
			<point x="399" y="791"/>
			<point x="387" y="795"/>
			<point x="377" y="795" type="curve" smooth="yes"/>
			<point x="357" y="795"/>
			<point x="342" y="773"/>
			<point x="270" y="723" type="curve" smooth="yes"/>
			<point x="204" y="677" type="line" smooth="yes"/>
			<point x="197" y="672"/>
			<point x="189" y="663"/>
			<point x="198" y="653" type="curve"/>
			<point x="200" y="650"/>
			<point x="205" y="649"/>
			<point x="208" y="649" type="curve" smooth="yes"/>
			<point x="222" y="648"/>
			<point x="297" y="696"/>
			<point x="311" y="708" type="curve"/>
			<point x="311" y="398" type="line" smooth="yes"/>
			<point x="311" y="389"/>
			<point x="317" y="382"/>
			<point x="325" y="383" type="curve"/>
			<point x="385" y="383" type="line" smooth="yes"/>
			<point x="393" y="383"/>
			<point x="399" y="389"/>
			<point x="399" y="398" type="curve" smooth="yes"/>
		</contour>
		<contour>
			<point x="178" y="-45" type="curve" smooth="yes"/>
			<point x="179" y="-49"/>
			<point x="183" y="-59"/>
			<point x="196" y="-59" type="curve" smooth="yes"/>
			<point x="345" y="-60" type="line"/>
			<point x="345" y="-179" type="line" smooth="yes"/>
			<point x="345" y="-188"/>
			<point x="351" y="-194"/>
			<point x="359" y="-194" type="curve" smooth="yes"/>
			<point x="414" y="-194" type="line" smooth="yes"/>
			<point x="421" y="-194"/>
			<point x="428" y="-188"/>
			<point x="428" y="-179" type="curve" smooth="yes"/>
			<point x="428" y="-60" type="line"/>
			<point x="469" y="-60" type="line" smooth="yes"/>
			<point x="483" y="-60"/>
			<point x="491" y="-50"/>
			<point x="491" y="-40" type="curve" smooth="yes"/>
			<point x="491" y="-30"/>
			<point x="483" y="-20"/>
			<point x="469" y="-20" type="curve" smooth="yes"/>
			<point x="428" y="-20" type="line"/>
			<point x="428" y="222" type="line" smooth="yes"/>
			<point x="428" y="238"/>
			<point x="423" y="253"/>
			<point x="402" y="253" type="curve" smooth="yes"/>
			<point x="392" y="253"/>
			<point x="381" y="247"/>
			<point x="372" y="234" type="curve"/>
			<point x="191" y="-14" type="line" smooth="yes"/>
			<point x="182" y="-27"/>
			<point x="176" y="-37"/>
		</contour>
		<contour>
			<point x="237" y="-20" type="line"/>
			<point x="345" y="133" type="line"/>
			<point x="345" y="-20" type="line"/>
		</contour>
		<contour>
			<point x="557" y="340" type="curve" smooth="yes"/>
			<point x="143" y="340" type="line" smooth="yes"/>
			<point x="122" y="340"/>
			<point x="109" y="325"/>
			<point x="109" y="310" type="curve" smooth="yes"/>
			<point x="109" y="295"/>
			<point x="122" y="280"/>
			<point x="143" y="280" type="curve" smooth="yes"/>
			<point x="557" y="280" type="line" smooth="yes"/>
			<point x="578" y="280"/>
			<point x="591" y="295"/>
			<point x="591" y="310" type="curve" smooth="yes"/>
			<point x="591" y="325"/>
			<point x="578" y="340"/>
		</contour>
	</outline>
</glyph>
<glyph name="onehalf" format="2">
	<advance width="700"/>
	<unicode hex="00BD"/>
	<outline>
		<contour>
			<point x="399" y="770" type="line" smooth="yes"/>
			<point x="399" y="791"/>
			<point x="387" y="795"/>
			<point x="377" y="795" type="curve" smooth="yes"/>
			<point x="357" y="795"/>
			<point x="342" y="773"/>
			<point x="270" y="723" type="curve" smooth="yes"/>
			<point x="204" y="677" type="line" smooth="yes"/>
			<point x="197" y="672"/>
			<point x="189" y="663"/>
			<point x="198" y="653" type="curve"/>
			<point x="200" y="650"/>
			<point x="205" y="649"/>
			<point x="208" y="649" type="curve" smooth="yes"/>
			<point x="222" y="648"/>
			<point x="297" y="696"/>
			<point x="311" y="708" type="curve"/>
			<point x="311" y="398" type="line" smooth="yes"/>
			<point x="311" y="389"/>
			<point x="317" y="382"/>
			<point x="325" y="383" type="curve"/>
			<point x="385" y="383" type="line" smooth="yes"/>
			<point x="393" y="383"/>
			<point x="399" y="389"/>
			<point x="399" y="398" type="curve" smooth="yes"/>
		</contour>
		<contour>
			<point x="490" y="-145" type="curve" smooth="yes"/>
			<point x="494" y="-90" type="line"/>
			<point x="496" y="-75"/>
			<point x="490" y="-68"/>
			<point x="481" y="-68" type="curve" smooth="yes"/>
			<point x="472" y="-68"/>
			<point x="468" y="-75"/>
			<point x="463" y="-90" type="curve"/>
			<point x="459" y="-105" type="line"/>
			<point x="289" y="-105" type="line"/>
			<point x="289" y="-73"/>
			<point x="344" y="-27"/>
			<point x="410" y="14" type="curve" smooth="yes"/>
			<point x="474" y="54"/>
			<point x="502" y="101"/>
			<point x="499" y="150" type="curve" smooth="yes"/>
			<point x="496" y="197"/>
			<point x="457" y="251"/>
			<point x="364" y="251" type="curve" smooth="yes"/>
			<point x="313" y="251"/>
			<point x="277" y="226"/>
			<point x="261" y="211" type="curve"/>
			<point x="239" y="188"/>
			<point x="214" y="154"/>
			<point x="231" y="143" type="curve"/>
			<point x="235" y="139"/>
			<point x="248" y="138"/>
			<point x="254" y="149" type="curve"/>
			<point x="276" y="183"/>
			<point x="303" y="215"/>
			<point x="353" y="215" type="curve" smooth="yes"/>
			<point x="393" y="215"/>
			<point x="413" y="183"/>
			<point x="414" y="145" type="curve" smooth="yes"/>
			<point x="415" y="98"/>
			<point x="380" y="50"/>
			<point x="322" y="12" type="curve" smooth="yes"/>
			<point x="226" y="-51"/>
			<point x="205" y="-116"/>
			<point x="205" y="-142" type="curve" smooth="yes"/>
			<point x="205" y="-143" type="line" smooth="yes"/>
			<point x="205" y="-157"/>
			<point x="214" y="-160"/>
			<point x="228" y="-160" type="curve" smooth="yes"/>
			<point x="474" y="-160" type="line" smooth="yes"/>
			<point x="484" y="-160"/>
			<point x="489" y="-155"/>
		</contour>
		<contour>
			<point x="557" y="340" type="curve" smooth="yes"/>
			<point x="143" y="340" type="line" smooth="yes"/>
			<point x="122" y="340"/>
			<point x="109" y="325"/>
			<point x="109" y="310" type="curve" smooth="yes"/>
			<point x="109" y="295"/>
			<point x="122" y="280"/>
			<point x="143" y="280" type="curve" smooth="yes"/>
			<point x="557" y="280" type="line" smooth="yes"/>
			<point x="578" y="280"/>
			<point x="591" y="295"/>
			<point x="591" y="310" type="curve" smooth="yes"/>
			<point x="591" y="325"/>
			<point x="578" y="340"/>
		</contour>
	</outline>
</glyph>
<glyph name="threequarters" format="2">
	<advance width="700"/>
	<unicode hex="00BE"/>
	<outline>
		<contour>
			<point x="390" y="717" type="curve" smooth="yes"/>
			<point x="390" y="666"/>
			<point x="341" y="639"/>
			<point x="332" y="634" type="curve" smooth="yes"/>
			<point x="324" y="629"/>
			<point x="310" y="622"/>
			<point x="313" y="610" type="curve" smooth="yes"/>
			<point x="315" y="601"/>
			<point x="322" y="597"/>
			<point x="363" y="600" type="curve" smooth="yes"/>
			<point x="416" y="604"/>
			<point x="431" y="565"/>
			<point x="426" y="524" type="curve" smooth="yes"/>
			<point x="417" y="448"/>
			<point x="334" y="394"/>
			<point x="265" y="394" type="curve" smooth="yes"/>
			<point x="246" y="394"/>
			<point x="230" y="393"/>
			<point x="231" y="378" type="curve"/>
			<point x="231" y="369"/>
			<point x="244" y="365"/>
			<point x="272" y="365" type="curve" smooth="yes"/>
			<point x="449" y="365"/>
			<point x="540" y="472"/>
			<point x="507" y="572" type="curve" smooth="yes"/>
			<point x="493" y="614"/>
			<point x="443" y="633"/>
			<point x="412" y="633" type="curve"/>
			<point x="442" y="642"/>
			<point x="491" y="678"/>
			<point x="474" y="743" type="curve" smooth="yes"/>
			<point x="463" y="784"/>
			<point x="426" y="810"/>
			<point x="360" y="810" type="curve" smooth="yes"/>
			<point x="301" y="810"/>
			<point x="270" y="779"/>
			<point x="255" y="765" type="curve" smooth="yes"/>
			<point x="237" y="748"/>
			<point x="230" y="731"/>
			<point x="240" y="723" type="curve"/>
			<point x="249" y="718"/>
			<point x="258" y="718"/>
			<point x="266" y="727" type="curve"/>
			<point x="316" y="792"/>
			<point x="390" y="791"/>
		</contour>
		<contour>
			<point x="178" y="-45" type="curve" smooth="yes"/>
			<point x="179" y="-49"/>
			<point x="183" y="-59"/>
			<point x="196" y="-59" type="curve" smooth="yes"/>
			<point x="345" y="-60" type="line"/>
			<point x="345" y="-179" type="line" smooth="yes"/>
			<point x="345" y="-188"/>
			<point x="351" y="-194"/>
			<point x="359" y="-194" type="curve" smooth="yes"/>
			<point x="414" y="-194" type="line" smooth="yes"/>
			<point x="421" y="-194"/>
			<point x="428" y="-188"/>
			<point x="428" y="-179" type="curve" smooth="yes"/>
			<point x="428" y="-60" type="line"/>
			<point x="469" y="-60" type="line" smooth="yes"/>
			<point x="483" y="-60"/>
			<point x="491" y="-50"/>
			<point x="491" y="-40" type="curve" smooth="yes"/>
			<point x="491" y="-30"/>
			<point x="483" y="-20"/>
			<point x="469" y="-20" type="curve" smooth="yes"/>
			<point x="428" y="-20" type="line"/>
			<point x="428" y="222" type="line" smooth="yes"/>
			<point x="428" y="238"/>
			<point x="423" y="253"/>
			<point x="402" y="253" type="curve" smooth="yes"/>
			<point x="392" y="253"/>
			<point x="381" y="247"/>
			<point x="372" y="234" type="curve"/>
			<point x="191" y="-14" type="line" smooth="yes"/>
			<point x="182" y="-27"/>
			<point x="176" y="-37"/>
		</contour>
		<contour>
			<point x="237" y="-20" type="line"/>
			<point x="345" y="133" type="line"/>
			<point x="345" y="-20" type="line"/>
		</contour>
		<contour>
			<point x="557" y="340" type="curve" smooth="yes"/>
			<point x="143" y="340" type="line" smooth="yes"/>
			<point x="122" y="340"/>
			<point x="109" y="325"/>
			<point x="109" y="310" type="curve" smooth="yes"/>
			<point x="109" y="295"/>
			<point x="122" y="280"/>
			<point x="143" y="280" type="curve" smooth="yes"/>
			<point x="557" y="280" type="line" smooth="yes"/>
			<point x="578" y="280"/>
			<point x="591" y="295"/>
			<point x="591" y="310" type="curve" smooth="yes"/>
			<point x="591" y="325"/>
			<point x="578" y="340"/>
		</contour>
	</outline>
</glyph>
<glyph name="questiondown" format="2">
	<advance width="700"/>
	<unicode hex="00BF"/>
	<outline>
		<contour>
			<point x="348" y="429" type="curve" smooth="yes"/>
			<point x="386" y="429"/>
			<point x="417" y="456"/>
			<point x="417" y="494" type="curve" smooth="yes"/>
			<point x="417" y="531"/>
			<point x="386" y="559"/>
			<point x="348" y="559" type="curve" smooth="yes"/>
			<point x="311" y="559"/>
			<point x="280" y="531"/>
			<point x="280" y="494" type="curve" smooth="yes"/>
			<point x="280" y="456"/>
			<point x="311" y="429"/>
		</contour>
		<contour>
			<point x="348" y="361" type="curve" smooth="yes"/>
			<point x="362" y="361"/>
			<point x="373" y="351"/>
			<point x="373" y="334" type="curve" smooth="yes"/>
			<point x="373" y="254" type="line" smooth="yes"/>
			<point x="373" y="200"/>
			<point x="347" y="184"/>
			<point x="310" y="135" type="curve" smooth="yes"/>
			<point x="268" y="79"/>
			<point x="257" y="39"/>
			<point x="257" y="-21" type="curve" smooth="yes"/>
			<point x="257" y="-84"/>
			<point x="297" y="-122"/>
			<point x="356" y="-122" type="curve" smooth="yes"/>
			<point x="420" y="-122"/>
			<point x="445" y="-84"/>
			<point x="445" y="-84" type="curve"/>
			<point x="447" y="-91"/>
			<point x="431" y="-29"/>
			<point x="426" y="-11" type="curve" smooth="yes"/>
			<point x="415" y="30"/>
			<point x="447" y="70"/>
			<point x="496" y="70" type="curve" smooth="yes"/>
			<point x="534" y="70"/>
			<point x="564" y="50"/>
			<point x="576" y="7" type="curve" smooth="yes"/>
			<point x="594" y="-64"/>
			<point x="511" y="-172"/>
			<point x="346" y="-172" type="curve" smooth="yes"/>
			<point x="233" y="-172"/>
			<point x="137" y="-119"/>
			<point x="137" y="-21" type="curve" smooth="yes"/>
			<point x="137" y="83"/>
			<point x="205" y="109"/>
			<point x="285" y="174" type="curve" smooth="yes"/>
			<point x="323" y="204"/>
			<point x="323" y="233"/>
			<point x="323" y="314" type="curve" smooth="yes"/>
			<point x="323" y="333" type="line" smooth="yes"/>
			<point x="323" y="351"/>
			<point x="334" y="361"/>
		</contour>
	</outline>
</glyph>
<glyph name="Aacute" format="2">
	<advance width="700"/>
	<unicode hex="00C1"/>
	<outline>
		<contour>
			<point x="557" y="1000" type="curve" smooth="yes"/>
			<point x="510" y="1000" type="line" smooth="yes"/>
			<point x="479" y="1000"/>
			<point x="465" y="1000"/>
			<point x="451" y="980" type="curve" smooth="yes"/>
			<point x="331" y="812" type="line" smooth="yes"/>
			<point x="319" y="796"/>
			<point x="321" y="772"/>
			<point x="342" y="767" type="curve" smooth="yes"/>
			<point x="359" y="763"/>
			<point x="373" y="770"/>
			<point x="386" y="783" type="curve" smooth="yes"/>
			<point x="563" y="953" type="line" smooth="yes"/>
			<point x="593" y="982"/>
			<point x="588" y="1000"/>
		</contour>
		<contour>
			<point x="356" y="731" type="curve" smooth="yes"/>
			<point x="330" y="731"/>
			<point x="316" y="720"/>
			<point x="310" y="699" type="curve" smooth="yes"/>
			<point x="112" y="50" type="line"/>
			<point x="52" y="50" type="line" smooth="yes"/>
			<point x="34" y="50"/>
			<point x="23" y="40"/>
			<point x="23" y="25" type="curve" smooth="yes"/>
			<point x="23" y="10"/>
			<point x="34" y="0"/>
			<point x="52" y="0" type="curve" smooth="yes"/>
			<point x="235" y="0" type="line" smooth="yes"/>
			<point x="253" y="0"/>
			<point x="264" y="10"/>
			<point x="264" y="25" type="curve" smooth="yes"/>
			<point x="264" y="40"/>
			<point x="253" y="50"/>
			<point x="235" y="50" type="curve" smooth="yes"/>
			<point x="178" y="50" type="line"/>
			<point x="221" y="205" type="line"/>
			<point x="436" y="205" type="line"/>
			<point x="481" y="50" type="line"/>
			<point x="409" y="50" type="line" smooth="yes"/>
			<point x="391" y="50"/>
			<point x="380" y="40"/>
			<point x="380" y="25" type="curve" smooth="yes"/>
			<point x="380" y="10"/>
			<point x="391" y="0"/>
			<point x="409" y="0" type="curve" smooth="yes"/>
			<point x="663" y="0" type="line" smooth="yes"/>
			<point x="681" y="0"/>
			<point x="692" y="10"/>
			<point x="692" y="25" type="curve" smooth="yes"/>
			<point x="692" y="40"/>
			<point x="681" y="50"/>
			<point x="663" y="50" type="curve" smooth="yes"/>
			<point x="608" y="50" type="line"/>
			<point x="402" y="699" type="line" smooth="yes"/>
			<point x="395" y="721"/>
			<point x="383" y="731"/>
		</contour>
		<contour>
			<point x="236" y="255" type="line"/>
			<point x="335" y="579" type="line"/>
			<point x="421" y="255" type="line"/>
		</contour>
	</outline>
</glyph>
<glyph name="Acircumflex" format="2">
	<advance width="700"/>
	<unicode hex="00C2"/>
	<outline>
		<contour>
			<point x="134" y="771" type="curve" smooth="yes"/>
			<point x="138" y="764"/>
			<point x="147" y="762"/>
			<point x="171" y="762" type="curve" smooth="yes"/>
			<point x="241" y="762" type="line" smooth="yes"/>
			<point x="261" y="762"/>
			<point x="271" y="762"/>
			<point x="278" y="776" type="curve" smooth="yes"/>
			<point x="351" y="924" type="line"/>
			<point x="425" y="786" type="line" smooth="yes"/>
			<point x="436" y="765"/>
			<point x="442" y="762"/>
			<point x="463" y="762" type="curve" smooth="yes"/>
			<point x="533" y="762" type="line" smooth="yes"/>
			<point x="556" y="762"/>
			<point x="566" y="763"/>
			<point x="569" y="771" type="curve" smooth="yes"/>
			<point x="573" y="781"/>
			<point x="568" y="795"/>
			<point x="555" y="809" type="curve" smooth="yes"/>
			<point x="384" y="989" type="line" smooth="yes"/>
			<point x="380" y="993"/>
			<point x="372" y="1000"/>
			<point x="351" y="1000" type="curve" smooth="yes"/>
			<point x="331" y="1000"/>
			<point x="324" y="995"/>
			<point x="319" y="989" type="curve"/>
			<point x="148" y="809" type="line" smooth="yes"/>
			<point x="130" y="790"/>
			<point x="129" y="780"/>
		</contour>
		<contour>
			<point x="356" y="731" type="curve" smooth="yes"/>
			<point x="330" y="731"/>
			<point x="316" y="720"/>
			<point x="310" y="699" type="curve" smooth="yes"/>
			<point x="112" y="50" type="line"/>
			<point x="52" y="50" type="line" smooth="yes"/>
			<point x="34" y="50"/>
			<point x="23" y="40"/>
			<point x="23" y="25" type="curve" smooth="yes"/>
			<point x="23" y="10"/>
			<point x="34" y="0"/>
			<point x="52" y="0" type="curve" smooth="yes"/>
			<point x="235" y="0" type="line" smooth="yes"/>
			<point x="253" y="0"/>
			<point x="264" y="10"/>
			<point x="264" y="25" type="curve" smooth="yes"/>
			<point x="264" y="40"/>
			<point x="253" y="50"/>
			<point x="235" y="50" type="curve" smooth="yes"/>
			<point x="178" y="50" type="line"/>
			<point x="221" y="205" type="line"/>
			<point x="436" y="205" type="line"/>
			<point x="481" y="50" type="line"/>
			<point x="409" y="50" type="line" smooth="yes"/>
			<point x="391" y="50"/>
			<point x="380" y="40"/>
			<point x="380" y="25" type="curve" smooth="yes"/>
			<point x="380" y="10"/>
			<point x="391" y="0"/>
			<point x="409" y="0" type="curve" smooth="yes"/>
			<point x="663" y="0" type="line" smooth="yes"/>
			<point x="681" y="0"/>
			<point x="692" y="10"/>
			<point x="692" y="25" type="curve" smooth="yes"/>
			<point x="692" y="40"/>
			<point x="681" y="50"/>
			<point x="663" y="50" type="curve" smooth="yes"/>
			<point x="608" y="50" type="line"/>
			<point x="402" y="699" type="line" smooth="yes"/>
			<point x="395" y="721"/>
			<point x="383" y="731"/>
		</contour>
		<contour>
			<point x="236" y="255" type="line"/>
			<point x="335" y="579" type="line"/>
			<point x="421" y="255" type="line"/>
		</contour>
	</outline>
</glyph>
